<ttFont>
<head>
    <!-- Most of this table will be recalculated by the compiler -->
    <tableVersion value="1.0"/>
    <fontRevision value="1.0"/>
    <checkSumAdjustment value="0xbf4b2a62"/>
    <magicNumber value="0x5f0f3cf5"/>
    <flags value="00000000 00000011"/>
    <unitsPerEm value="2048"/>
    <created value="Thu Aug 15 19:04:43 2019"/>
    <modified value="Fri Aug 16 02:19:01 2019"/>
    <xMin value="-517"/>
    <yMin value="-511"/>
    <xMax value="3586"/>
    <yMax value="2014"/>
<macStyle value="00000000 00000001"/>
    <lowestRecPPEM value="3"/>
    <fontDirectionHint value="2"/>
    <indexToLocFormat value="0"/>
    <glyphDataFormat value="0"/>
  </head>
          <CharString index="0">
            -1044 31 callsubr
            return
          </CharString>
          <CharString index="1">
            -614 34 callsubr
            return
          </CharString>
          <CharString index="2">
            392 15 rmoveto
            377 107 265 return
          </CharString>
          <CharString index="3">
            452 -341 293 -427 -462 -303 -329 -421 vhcurveto
            return
          </CharString>
          <CharString index="4">
            rmoveto
            -451 -43 callgsubr
            return
          </CharString>
          <CharString index="5">
            rmoveto
            55 callsubr
            return
          </CharString>
          <CharString index="6">
            260 97 callsubr
            endchar
          </CharString>
          <CharString index="7">
            315 -236 203 -324 -327 -241 -215 -311 return
          </CharString>
          <CharString index="8">
            -642 29 callsubr
            return
          </CharString>
          <CharString index="9">
            37 callsubr
            endchar
          </CharString>
          <CharString index="10">
            rmoveto
            327 241 216 311 return
          </CharString>
          <CharString index="11">
            556 -89 callgsubr
            return
          </CharString>
          <CharString index="12">
            143 callsubr
            endchar
          </CharString>
          <CharString index="13">
            rmoveto
            -16 callsubr
            48 callsubr
            endchar
          </CharString>
          <CharString index="14">
            rmoveto
            -33 callsubr
            1181 vlineto
            -83 callsubr
            -37 callsubr
            endchar
          </CharString>
          <CharString index="15">
            -50 -46 -63 -63 50 -45 63 hvcurveto
            return
          </CharString>
          <CharString index="16">
            -80 callsubr
            endchar
          </CharString>
          <CharString index="17">
            615 -57 callgsubr
            -505 vlineto
            -68 -14 -17 -90 -15 vhcurveto
            -67 556 67 vlineto
            -105 16 -17 20 70 vvcurveto
            528 vlineto
            214 -139 109 -207 return
          </CharString>
          <CharString index="18">
            52 callsubr
            endchar
          </CharString>
          <CharString index="19">
            rmoveto
            -700 vlineto
            -395 276 -181 332 370 209 228 349 5 vhcurveto
            8 636 3 138 18 33 118 18 rlinecurve
            68 -405 -68 vlineto
            130 -19 19 -32 3 140 callsubr
            endchar
          </CharString>
          <CharString index="20">
            rmoveto
            -452 -55 0 -63 58 -85 callgsubr
            15 callgsubr
            return
          </CharString>
          <CharString index="21">
            rmoveto
            -322 238 -196 301 return
          </CharString>
          <CharString index="22">
            46 callsubr
            endchar
          </CharString>
          <CharString index="23">
            65 callsubr
            endchar
          </CharString>
          <CharString index="24">
            14 433 rlineto
            -64 hlineto
            return
          </CharString>
          <CharString index="25">
            rmoveto
            -76 -63 -56 -76 -76 63 -56 76 -20 callsubr
          </CharString>
          <CharString index="26">
            rmoveto
            1044 -39 callsubr
            return
          </CharString>
          <CharString index="27">
            573 67 vlineto
            -104 16 -18 20 70 vvcurveto
            return
          </CharString>
          <CharString index="28">
            rmoveto
            -448 -43 callgsubr
            return
          </CharString>
          <CharString index="29">
            1164 rmoveto
            91 73 66 89 89 -73 66 -91 return
          </CharString>
          <CharString index="30">
            1124 rmoveto
            394 120 callsubr
            return
          </CharString>
          <CharString index="31">
            -67 hlineto
            123 -20 21 -23 -90 vvcurveto
            return
          </CharString>
          <CharString index="32">
            1846 rmoveto
            -230 -139 return
          </CharString>
          <CharString index="33">
            1538 rmoveto
            230 140 return
          </CharString>
          <CharString index="34">
            21 23 123 20 vhcurveto
            67 return
          </CharString>
          <CharString index="35">
            rmoveto
            338 -813 -77 -131 -128 -177 -92 -104 rlinecurve
            -5 260 vlineto
            156 434 123 295 196 481 60 146 26 23 86 17 rlinecurve
            68 -362 -68 vlineto
            117 -14 14 -30 -47 -132 rrcurveto
            -159 -443 -158 446 -45 129 13 30 119 14 rlinecurve
            68 -599 -68 vlineto
            84 -17 23 -24 52 -125 rrcurveto
            endchar
          </CharString>
          <CharString index="36">
            rmoveto
            84 68 59 81 80 -68 59 -84 -85 -68 -59 -80 -81 68 -59 85 hvcurveto
            endchar
          </CharString>
          <CharString index="37">
            -27 callsubr
            -335 vlineto
            -124 -294 rlineto
            return
          </CharString>
          <CharString index="38">
            rmoveto
            602 155 -602 hlineto
            endchar
          </CharString>
          <CharString index="39">
            364 hmoveto
            -54 callsubr
            return
          </CharString>
          <CharString index="40">
            200 rmoveto
            1044 vlineto
            90 return
          </CharString>
          <CharString index="41">
            rmoveto
            45 callgsubr
          </CharString>
          <CharString index="42">
            rmoveto
            315 -548 rlineto
            -419 -2 callsubr
            665 -23 callsubr
            193 callsubr
            endchar
          </CharString>
          <CharString index="43">
            60 47 38 54 53 -47 39 -60 hvcurveto
            -12 hlineto
            -60 -47 -39 -53 -54 47 -38 60 hvcurveto
            return
          </CharString>
          <CharString index="44">
            -394 rlineto
            64 hlineto
            49 237 76 58 234 18 47 3 rcurveline
            return
          </CharString>
          <CharString index="45">
            503 1499 -103 callsubr
            -50 callsubr
            return
          </CharString>
          <CharString index="46">
            vlineto
            47 -3 236 -18 75 -60 49 -235 rlinecurve
            63 hlineto
            return
          </CharString>
          <CharString index="47">
            500 1018 -79 callsubr
            return
          </CharString>
          <CharString index="48">
            rmoveto
            -77 -62 -56 -76 -76 62 -56 77 return
          </CharString>
          <CharString index="49">
            1524 rmoveto
            -247 -188 return
          </CharString>
          <CharString index="50">
            19 -23 30 98 vvcurveto
            1152 return
          </CharString>
          <CharString index="51">
            -58 -53 -72 -73 58 -53 72 hvcurveto
            return
          </CharString>
          <CharString index="52">
            1044 vlineto
            91 22 -48 callgsubr
            19 -21 -87 vvcurveto
            -471 -579 471 vlineto
            85 21 22 114 18 vhcurveto
            68 -633 29 callsubr
            -107 callsubr
            return
          </CharString>
          <CharString index="53">
            63 50 45 63 63 -50 46 -63 hvcurveto
            -12 hlineto
            -63 return
          </CharString>
          <CharString index="54">
            86 69 62 84 85 -69 61 -86 -85 return
          </CharString>
          <CharString index="55">
            -1152 -2 callsubr
            return
          </CharString>
          <CharString index="56">
            -69 -61 -85 -84 69 -62 85 hvcurveto
            return
          </CharString>
          <CharString index="57">
            -1095 34 callsubr
            return
          </CharString>
          <CharString index="58">
            665 67 vlineto
            -133 return
          </CharString>
          <CharString index="59">
            -44 callsubr
            endchar
          </CharString>
          <CharString index="60">
            1124 rmoveto
            393 373 rlineto
            10 -335 vlineto
            -143 -383 rlineto
            return
          </CharString>
          <CharString index="61">
            1324 1444 rmoveto
            -1270 hlineto
            -12 return
          </CharString>
          <CharString index="62">
            1218 rmoveto
            647 171 -647 hlineto
            return
          </CharString>
          <CharString index="63">
            633 67 vlineto
            -114 19 -21 22 85 vvcurveto
            return
          </CharString>
          <CharString index="64">
            -246 188 -86 0 233 -382 return
          </CharString>
          <CharString index="65">
            1502 -31 callgsubr
            return
          </CharString>
          <CharString index="66">
            199 0 232 382 rlineto
            return
          </CharString>
          <CharString index="67">
            -62 -56 -76 -76 62 -56 77 hvcurveto
            return
          </CharString>
          <CharString index="68">
            vlineto
            90 -73 callsubr
            return
          </CharString>
          <CharString index="69">
            rmoveto
            -164 137 -104 175 -28 vhcurveto
            -193 -29 -114 -88 -126 vvcurveto
            -127 127 -80 185 -2 vhcurveto
            -248 -15 -108 -74 -103 vvcurveto
            -140 195 -96 329 323 239 151 221 192 -146 114 -283 vhcurveto
            -187 hlineto
            -107 -54 31 57 47 37 33 66 17 hvcurveto
            -6 43 37 -3 38 hhcurveto
            270 213 119 204 101 -61 88 -94 39 hvcurveto
            268 -20 0 108 -352 -23 rlineto
            26 -66 -90 17 -96 hhcurveto
            -279 -204 -135 -202 hvcurveto
            323 13 rmoveto
            146 57 95 104 106 64 -97 -154 -147 -61 -95 -102 -101 -67 96 156 vhcurveto
            -81 -927 rmoveto
            84 54 56 98 11 vhcurveto
            169 hlineto
            142 63 -53 -89 -109 -109 -73 -166 -158 -93 71 102 hvcurveto
            endchar
          </CharString>
          <CharString index="70">
            -61 -276 -78 -58 -276 -13 rrcurveto
            -218 -8 0 622 206 -4 111 -4 30 -46 29 -157 rlinecurve
            60 498 -60 hlineto
            -32 -157 -28 -45 -110 -5 rrcurveto
            -206 -3 0 589 191 -7 261 -12 78 -61 55 -236 rlinecurve
            65 hlineto
            return
          </CharString>
          <CharString index="71">
            -231 137 -89 169 126 117 53 58 47 vhcurveto
            104 callgsubr
            9 callgsubr
            return
          </CharString>
          <CharString index="72">
            -272 -159 306 365 383 160 256 269 -15 callgsubr
          </CharString>
          <CharString index="73">
            311 84 310 -84 0 58 -286 172 -49 0 -286 -172 rlineto
            return
          </CharString>
          <CharString index="74">
            -1135 -76 callsubr
            -107 callsubr
            return
          </CharString>
          <CharString index="75">
            1554 rmoveto
            78 62 56 76 76 -62 56 -78 -77 return
          </CharString>
          <CharString index="76">
            rmoveto
            191 127 86 138 -7 hvcurveto
            -78 hlineto
            -53 return
          </CharString>
          <CharString index="77">
            rmoveto
            150 104 70 113 112 -93 68 -126 return
          </CharString>
          <CharString index="78">
            1594 rmoveto
            583 148 -583 hlineto
            return
          </CharString>
          <CharString index="79">
            1502 -81 callgsubr
            210 rlineto
            return
          </CharString>
          <CharString index="80">
            1538 rmoveto
            375 288 rlineto
            7 return
          </CharString>
          <CharString index="81">
            548 1444 -15 callsubr
            return
          </CharString>
          <CharString index="82">
            1561 rmoveto
            69 callsubr
            return
          </CharString>
          <CharString index="83">
            -172 -124 -78 -109 -52 vhcurveto
            return
          </CharString>
          <CharString index="84">
            67 vlineto
            -133 19 -22 30 98 vvcurveto
            return
          </CharString>
          <CharString index="85">
            -91 -73 -66 -89 -89 73 -66 91 hvcurveto
            return
          </CharString>
          <CharString index="86">
            1538 86 callgsubr
            return
          </CharString>
          <CharString index="87">
            77 62 75 callsubr
          </CharString>
          <CharString index="88">
            rmoveto
            241 373 rlineto
            9 return
          </CharString>
          <CharString index="89">
            rmoveto
            276 -771 190 0 253 702 250 -702 190 0 267 744 55 154 28 23 83 16 rlinecurve
            68 -342 -68 vlineto
            102 -13 14 -31 -42 -140 rrcurveto
            -140 -445 -138 447 -41 138 12 33 99 11 rlinecurve
            68 -553 -68 vlineto
            97 -12 13 -32 -41 -137 rrcurveto
            -142 -448 -135 447 -41 138 11 32 103 12 rlinecurve
            68 -584 -68 vlineto
            82 -18 30 -25 44 -123 rrcurveto
            endchar
          </CharString>
          <CharString index="90">
            rmoveto
            -451 331 -296 459 212 210 53 85 120 vhcurveto
            398 vlineto
            88 19 22 117 14 vhcurveto
            67 -596 -67 vlineto
            127 -14 19 -22 -87 vvcurveto
            -388 vlineto
            -33 -41 -74 -23 -88 hhcurveto
            -269 -154 304 367 383 157 256 274 205 135 -150 -237 54 hvcurveto
            64 hlineto
            -10 383 rlineto
            57 -85 -168 40 -217 hhcurveto
            -450 -351 -267 -482 hvcurveto
            endchar
          </CharString>
          <CharString index="91">
            -418 1167 -253 0 -412 -1141 -67 -187 -30 -32 -111 -19 rlinecurve
            -67 431 67 vlineto
            -143 22 -20 38 57 175 rrcurveto
            61 183 460 0 68 -199 53 -160 -23 -39 -136 -20 rlinecurve
            -67 return
          </CharString>
          <CharString index="92">
            rmoveto
            -508 -67 hlineto
            115 -21 25 -34 -1 -104 rrcurveto
            -10 -960 -1 -139 -19 -33 -123 -19 rlinecurve
            -67 412 68 vlineto
            -130 18 return
          </CharString>
          <CharString index="93">
            rmoveto
            -467 349 -282 452 197 183 48 59 82 vhcurveto
            11 384 rlineto
            -42 callgsubr
            return
          </CharString>
          <CharString index="94">
            1124 rmoveto
            248 188 245 -188 86 0 -232 383 -199 0 -233 -383 rlineto
            return
          </CharString>
          <CharString index="95">
            rmoveto
            230 169 228 -169 80 0 -216 -36 callgsubr
          </CharString>
          <CharString index="96">
            13 -50 hhcurveto
            -110 -71 -76 -143 2 hvcurveto
            76 hlineto
            55 1 return
          </CharString>
          <CharString index="97">
            14 464 rlineto
            -64 hlineto
            -68 -296 -92 -72 -241 -12 return
          </CharString>
          <CharString index="98">
            1124 rmoveto
            247 188 246 -188 86 0 return
          </CharString>
          <CharString index="99">
            104 -16 18 -20 -70 vvcurveto
            -657 34 callsubr
            return
          </CharString>
          <CharString index="100">
            1173 rmoveto
            16 callsubr
            470 hmoveto
            return
          </CharString>
          <CharString index="101">
            rmoveto
            -7 -332 rlineto
            63 45 callsubr
            endchar
          </CharString>
          <CharString index="102">
            58 65 59 76 vvcurveto
            82 -76 56 -111 vhcurveto
            return
          </CharString>
          <CharString index="103">
            rmoveto
            302 99 303 62 callsubr
            return
          </CharString>
          <CharString index="104">
            hlineto
            -60 -48 -39 -53 -54 48 -38 60 hvcurveto
            return
          </CharString>
          <CharString index="105">
            vlineto
            -98 -22 -30 -133 -19 vhcurveto
            -67 return
          </CharString>
          <CharString index="106">
            -19 32 -2 200 callsubr
            return
          </CharString>
          <CharString index="107">
            1706 87 720 rmoveto
            return
          </CharString>
          <CharString index="108">
            770 159 299 rmoveto
            return
          </CharString>
          <CharString index="109">
            -56 -76 -76 62 -56 78 hvcurveto
            return
          </CharString>
          <CharString index="110">
            rmoveto
            504 113 vlineto
            391 -697 rlineto
            427 64 hlineto
            -67 24 -40 41 -127 222 rrcurveto
            -337 606 180 190 155 159 69 45 124 26 rlinecurve
            67 -470 -67 vlineto
            133 -18 11 -40 -107 -128 rrcurveto
            -343 -411 -112 -1 rlineto
            472 vlineto
            85 21 22 114 18 vhcurveto
            68 -633 29 callsubr
            -107 callsubr
            -48 callsubr
          </CharString>
          <CharString index="111">
            rmoveto
            364 -1167 242 0 340 1107 329 -1107 246 0 358 1142 59 186 33 33 110 18 rlinecurve
            67 -426 -67 vlineto
            138 -21 15 -37 -47 -172 rrcurveto
            -232 -841 -240 864 -44 157 10 29 131 21 rlinecurve
            67 -638 -67 vlineto
            132 -21 14 -29 -43 -157 rrcurveto
            -237 -864 -241 858 -43 156 17 37 138 20 rlinecurve
            67 -676 -67 vlineto
            103 -17 37 -31 51 -164 rrcurveto
            endchar
          </CharString>
          <CharString index="112">
            -948 vlineto
            -349 -69 -150 -209 -138 vhcurveto
            28 -58 rlineto
            394 154 210 161 359 vvcurveto
            endchar
          </CharString>
          <CharString index="113">
            rmoveto
            181 151 66 102 77 hvcurveto
            138 callsubr
            -320 238 -198 297 vhcurveto
            endchar
          </CharString>
          <CharString index="114">
            204 151 153 245 242 -152 156 -198 -204 76 callgsubr
            return
          </CharString>
          <CharString index="115">
            1156 rmoveto
            95 77 69 94 94 -77 69 -95 -95 -77 -69 -94 -94 76 -69 96 hvcurveto
            return
          </CharString>
          <CharString index="116">
            rmoveto
            150 103 70 113 112 -93 68 -125 -90 -68 -37 -43 -30 hvcurveto
            -58 vlineto
            return
          </CharString>
          <CharString index="117">
            -63 -280 -89 -53 -302 -13 rrcurveto
            -252 -9 758 91 callsubr
            endchar
          </CharString>
          <CharString index="118">
            -229 139 -85 0 211 -294 204 0 211 294 rlineto
            return
          </CharString>
          <CharString index="119">
            -157 -6 rcurveline
            1158 7 callgsubr
            -107 callsubr
            vlineto
            return
          </CharString>
          <CharString index="120">
            rmoveto
            -323 182 -189 227 154 124 75 116 51 vhcurveto
            return
          </CharString>
          <CharString index="121">
            1688 554 193 30 callsubr
            24 callsubr
            return
          </CharString>
          <CharString index="122">
            1216 1162 hmoveto
            -10 callsubr
            12 callsubr
            return
          </CharString>
          <CharString index="123">
            85 69 62 84 85 -69 61 -85 -86 -69 -61 -85 -84 69 -62 86 hvcurveto
            return
          </CharString>
          <CharString index="124">
            24 -63 hhcurveto
            -114 -85 -88 -225 9 hvcurveto
            78 hlineto
            99 return
          </CharString>
          <CharString index="125">
            -615 27 callsubr
            47 callsubr
            endchar
          </CharString>
          <CharString index="126">
            1554 rmoveto
            77 62 56 76 76 -62 56 -77 return
          </CharString>
          <CharString index="127">
            1321 480 1018 -87 callsubr
            return
          </CharString>
          <CharString index="128">
            1457 rmoveto
            607 139 -607 hlineto
            return
          </CharString>
          <CharString index="129">
            1549 745 86 callsubr
            return
          </CharString>
          <CharString index="130">
            -1 -65 rlineto
            -48 40 81 -33 97 hhcurveto
            endchar
          </CharString>
          <CharString index="131">
            -19 -46 callgsubr
            -22 22 91 vvcurveto
            return
          </CharString>
          <CharString index="132">
            -78 -46 97 245 243 42 85 76 return
          </CharString>
          <CharString index="133">
            rmoveto
            63 51 45 63 63 -51 46 -63 hvcurveto
            return
          </CharString>
          <CharString index="134">
            vlineto
            -70 -18 -19 -104 -58 callgsubr
            return
          </CharString>
          <CharString index="135">
            -173 -125 -79 -110 -51 vhcurveto
            return
          </CharString>
          <CharString index="136">
            -67 vlineto
            123 -20 21 -23 -90 vvcurveto
            return
          </CharString>
          <CharString index="137">
            rmoveto
            503 579 -503 vlineto
            -87 return
          </CharString>
          <CharString index="138">
            vlineto
            -90 -21 -23 -123 -20 vhcurveto
            -67 return
          </CharString>
          <CharString index="139">
            -286 vlineto
            -44 -382 rlineto
            endchar
          </CharString>
          <CharString index="140">
            75 497 -86 callsubr
            return
          </CharString>
          <CharString index="141">
            vlineto
            -70 -18 -20 -104 -16 vhcurveto
            -67 return
          </CharString>
          <CharString index="142">
            229 -73 callgsubr
            return
          </CharString>
          <CharString index="143">
            44 -24 -44 vvcurveto
            -45 -42 -26 return
          </CharString>
          <CharString index="144">
            rmoveto
            164 129 69 99 45 hvcurveto
            -106 23 106 -57 120 hhcurveto
            88 76 24 30 42 hvcurveto
            63 vlineto
            -4 -11 -15 -2 -17 hhcurveto
            -54 -43 35 83 hvcurveto
            465 vlineto
            240 -170 106 -283 -278 -179 -112 -141 -81 65 -58 85 85 65 62 80 59 -34 49 -50 21 vhcurveto
            15 40 45 8 49 hhcurveto
            150 88 -68 -178 hvcurveto
            -92 vlineto
            -205 -43 rlineto
            -308 -62 -114 -104 -153 vvcurveto
            -146 120 -101 176 vhcurveto
            27 299 rmoveto
            108 60 70 166 38 vhcurveto
            78 17 rlineto
            -310 vlineto
            -53 -29 -56 -30 -71 hhcurveto
            -84 -64 56 104 hvcurveto
            return
          </CharString>
          <CharString index="145">
            rmoveto
            -124 -184 -44 -35 -112 -18 rrcurveto
            -67 436 67 vlineto
            -140 21 -5 37 99 162 rrcurveto
            201 323 220 -351 81 -133 -5 -37 -137 -22 rlinecurve
            -67 686 67 vlineto
            -96 26 -44 37 -81 131 rrcurveto
            -323 516 253 369 121 178 45 35 112 18 rlinecurve
            67 -435 -67 vlineto
            140 -21 4 -37 -98 -160 rrcurveto
            -188 -308 -209 334 -84 137 5 33 139 22 rlinecurve
            67 -683 -68 vlineto
            96 -25 41 -38 82 -131 310 -496 rcurveline
            endchar
          </CharString>
          <CharString index="146">
            rmoveto
            -390 276 -180 332 361 219 224 347 3 vhcurveto
            7 848 rlineto
            -4 22 23 -2 22 hhcurveto
            152 93 66 112 101 -76 94 -115 48 hvcurveto
            -67 hlineto
            23 -27 17 -56 -1 -56 rrcurveto
            -122 -86 -103 -185 vhcurveto
            -93 -68 hlineto
            142 -22 18 -24 1 -121 6 -653 rcurveline
            -274 1 -141 -157 -226 hhcurveto
            -220 -153 137 294 hvcurveto
            685 vlineto
            92 21 21 139 23 vhcurveto
            67 -662 -67 vlineto
            124 -22 23 -22 -92 vvcurveto
            endchar
          </CharString>
          <CharString index="147">
            rmoveto
            -529 -67 hlineto
            114 -18 27 -35 -4 -103 rrcurveto
            -31 -967 -6 -137 -19 -32 -121 -18 rlinecurve
            -67 407 68 vlineto
            -125 19 -18 31 138 vvcurveto
            3 988 434 -1244 185 0 97 336 314 907 26 -1047 3 -89 -23 -23 -118 -17 rlinecurve
            -67 636 67 vlineto
            -124 18 -19 23 -3 92 rrcurveto
            -30 1044 -2 91 24 24 121 18 rlinecurve
            67 vlineto
            -534 1 -328 -1044 rlineto
            endchar
          </CharString>
          <CharString index="148">
            307 -163 237 -234 115 vhcurveto
            -8 40 43 -5 43 hhcurveto
            170 116 64 125 1 hvcurveto
            1 103 -81 97 -118 48 rrcurveto
            -67 hlineto
            22 -27 17 -58 -54 vvcurveto
            -127 -1 -82 -96 -157 -97 -98 24 -123 hhcurveto
            -462 -303 -329 -421 hvcurveto
            -105 callsubr
            -101 callsubr
          </CharString>
          <CharString index="149">
            rmoveto
            278 -236 146 -408 vhcurveto
            -651 -76 callsubr
            -107 callsubr
            127 callsubr
            354 153 vlineto
            368 276 155 297 hvcurveto
            -375 -16 rmoveto
            -211 -118 -134 -231 -10 vhcurveto
            -73 -3 0 720 73 -3 rlineto
            240 -10 109 -141 -208 vvcurveto
            endchar
          </CharString>
          <CharString index="150">
            1323 rmoveto
            -123 128 -80 172 172 128 80 124 121 -128 82 -172 -172 -128 -82 -122 vhcurveto
            205 hmoveto
            79 39 57 56 56 39 -56 -79 -82 -39 -54 -56 -56 -39 55 80 vhcurveto
            return
          </CharString>
          <CharString index="151">
            rmoveto
            -457 -55 0 -63 59 -17 rlineto
            59 -19 9 -14 -63 vvcurveto
            15 callgsubr
            182 callsubr
            endchar
          </CharString>
          <CharString index="152">
            hlineto
            49 190 55 49 185 11 rrcurveto
            149 6 -513 -867 rlineto
            -61 879 vlineto
            6 353 rlineto
            -64 hlineto
            -42 -209 -64 -54 -174 -8 rrcurveto
            -177 -7 515 868 rlineto
            61 vlineto
            return
          </CharString>
          <CharString index="153">
            448 50 0 62 -57 17 rlineto
            -56 18 -9 15 63 vvcurveto
            805 vlineto
            -452 -55 0 -63 59 -85 callgsubr
            -566 vlineto
            -52 -30 -61 -38 -79 hhcurveto
            -114 -63 69 134 hvcurveto
            return
          </CharString>
          <CharString index="154">
            510 vlineto
            42 45 106 29 102 hhcurveto
            58 58 -9 -11 29 hvcurveto
            13 24 10 44 44 vvcurveto
            90 -42 74 -94 -103 -88 -85 -196 -98 vhcurveto
            return
          </CharString>
          <CharString index="155">
            682 67 vlineto
            -109 18 -32 34 -58 160 rrcurveto
            -875 295 rmoveto
            198 598 202 -598 rlineto
            return
          </CharString>
          <CharString index="156">
            7 32 -1 rrcurveto
            59 -1 36 callsubr
            -65 -54 -52 17 23 -31 vhcurveto
            -61 vlineto
            -45 39 79 -33 95 hhcurveto
            endchar
          </CharString>
          <CharString index="157">
            -55 -46 21 -59 hhcurveto
            -108 -81 -80 -208 8 hvcurveto
            77 hlineto
            89 3 25 32 return
          </CharString>
          <CharString index="158">
            229 -140 84 0 -211 295 -203 0 -212 -295 rlineto
            return
          </CharString>
          <CharString index="159">
            186 154 65 105 76 vhcurveto
            -90 callgsubr
            191 callsubr
            return
          </CharString>
          <CharString index="160">
            -1 -26 -23 -48 hhcurveto
            -28 -30 8 14 -40 hvcurveto
            -35 13 rlineto
            16 -47 -46 return
          </CharString>
          <CharString index="161">
            1304 75 491 13 callsubr
            -62 callgsubr
            return
          </CharString>
          <CharString index="162">
            -453 340 -293 428 461 304 330 421 return
          </CharString>
          <CharString index="163">
            27 23 47 hhcurveto
            28 31 -8 -14 39 hvcurveto
            36 -12 rlineto
            -17 46 47 return
          </CharString>
          <CharString index="164">
            26 23 48 hhcurveto
            28 30 -8 -14 40 hvcurveto
            35 -12 rlineto
            -17 47 46 return
          </CharString>
          <CharString index="165">
            42 63 -6 hvcurveto
            -76 hlineto
            -163 -7 124 -101 186 hhcurveto
            return
          </CharString>
          <CharString index="166">
            rmoveto
            310 84 311 -84 0 58 -287 172 -49 0 return
          </CharString>
          <CharString index="167">
            195 101 132 137 19 -1 18 -3 16 hvcurveto
            -74 return
          </CharString>
          <CharString index="168">
            -10 hlineto
            345 -373 rlineto
            93 hlineto
            103 callgsubr
            return
          </CharString>
          <CharString index="169">
            -99 0 68 -279 204 -48 0 -278 -204 rlineto
            return
          </CharString>
          <CharString index="170">
            104 -15 18 -21 -70 vvcurveto
            -657 34 callsubr
            return
          </CharString>
          <CharString index="171">
            -233 383 -199 0 -232 -383 rlineto
            return
          </CharString>
          <CharString index="172">
            642 67 vlineto
            -123 20 -21 23 90 vvcurveto
            return
          </CharString>
          <CharString index="173">
            rmoveto
            177 vlineto
            -606 -209 rlineto
            -66 vlineto
            return
          </CharString>
          <CharString index="174">
            1167 rmoveto
            115 84 88 224 return
          </CharString>
          <CharString index="175">
            1518 rmoveto
            -123 -89 -60 -69 return
          </CharString>
          <CharString index="176">
            73 58 53 73 72 -58 53 -73 -72 return
          </CharString>
          <CharString index="177">
            -2 -84 callgsubr
            195 vhcurveto
            return
          </CharString>
          <CharString index="178">
            -3 hlineto
            -91 -90 106 callgsubr
            return
          </CharString>
          <CharString index="179">
            rmoveto
            601 155 -601 hlineto
            endchar
          </CharString>
          <CharString index="180">
            -1145 -97 callsubr
            return
          </CharString>
          <CharString index="181">
            635 -21 -97 callsubr
            return
          </CharString>
          <CharString index="182">
            56 76 76 -62 56 -77 hvcurveto
            endchar
          </CharString>
          <CharString index="183">
            -12 hlineto
            -63 -92 callsubr
            return
          </CharString>
          <CharString index="184">
            rmoveto
            607 140 -607 hlineto
            return
          </CharString>
          <CharString index="185">
            rmoveto
            328 258 166 287 215 -126 150 -267 87 hvcurveto
            -124 42 rlineto
            -165 55 -83 70 120 vvcurveto
            123 90 88 169 183 132 -130 -221 47 vhcurveto
            65 hlineto
            -10 348 rlineto
            54 -79 -152 42 -190 hhcurveto
            -353 -229 -167 -268 -211 138 -145 253 -82 hvcurveto
            126 -41 rlineto
            173 -58 76 -80 -123 vvcurveto
            -135 -105 -93 -163 -200 -175 139 253 -54 vhcurveto
            -64 hlineto
            13 -379 rlineto
            -60 100 182 -46 206 hhcurveto
            return
          </CharString>
          <CharString index="186">
            rmoveto
            -237 337 181 237 83 114 38 29 90 17 rlinecurve
            68 -373 -68 vlineto
            108 -16 10 -25 -68 -107 rrcurveto
            -121 -175 -123 175 -70 106 10 29 112 13 rlinecurve
            68 -578 -68 vlineto
            64 -14 32 -25 66 -93 rrcurveto
            235 -335 -176 -229 -91 -122 -37 -30 -98 -21 rlinecurve
            -67 382 67 vlineto
            -101 16 -16 27 71 111 rrcurveto
            118 174 124 -176 72 -109 -13 -29 -109 -14 rlinecurve
            -67 581 67 vlineto
            -66 16 -34 26 -66 93 rrcurveto
            endchar
          </CharString>
          <CharString index="187">
            rmoveto
            -167 120 -92 188 -56 vhcurveto
            87 -26 rlineto
            117 -36 49 -43 -76 vvcurveto
            -78 -69 -56 -118 -154 -123 109 163 -37 vhcurveto
            -64 hlineto
            9 -279 rlineto
            -47 81 145 -36 152 hhcurveto
            273 196 122 205 169 -103 98 -199 59 hvcurveto
            -88 26 rlineto
            -112 34 -59 38 76 vvcurveto
            77 65 51 114 134 95 -87 -149 37 vhcurveto
            64 hlineto
            -5 262 rlineto
            33 -61 -119 30 -150 hhcurveto
            -289 -176 -122 -202 hvcurveto
            return
          </CharString>
          <CharString index="188">
            rmoveto
            -105 48 callgsubr
            -68 -5 -211 -69 vvcurveto
            -251 145 -154 266 281 211 233 371 278 -94 163 -146 -117 -70 -110 -141 33 vhcurveto
            157 -29 100 -146 -179 vvcurveto
            -182 -95 -101 -132 -135 -72 95 177 -1 vhcurveto
            70 7 201 60 vvcurveto
            188 -79 92 -157 vhcurveto
            endchar
          </CharString>
          <CharString index="189">
            1670 835 -25 rmoveto
            411 338 337 411 411 -338 337 -411 -411 -337 -337 -411 -411 337 -337 411 hvcurveto
            58 vmoveto
            -375 -308 311 379 379 308 311 375 374 309 -311 -379 -379 -309 -311 -374 hvcurveto
            return
          </CharString>
          <CharString index="190">
            1536 170 1250 rmoveto
            -700 vlineto
            -395 276 -181 332 370 209 228 349 5 vhcurveto
            8 636 3 138 18 33 118 18 rlinecurve
            68 -405 -68 vlineto
            130 -19 19 -32 3 140 callsubr
            return
          </CharString>
          <CharString index="191">
            -46 -1 -28 -20 -48 hhcurveto
            -29 -31 7 12 -40 hvcurveto
            -37 11 rlineto
            13 -48 -47 11 -52 hhcurveto
            -112 -72 -65 -121 1 hvcurveto
            78 hlineto
            47 1 27 20 49 hhcurveto
            29 31 -7 -12 40 -105 callgsubr
            return
          </CharString>
          <CharString index="192">
            rmoveto
            227 -192 124 -285 15 vhcurveto
            220 15 192 103 194 vvcurveto
            226 -226 119 -380 vhcurveto
            -662 -76 callsubr
            -107 callsubr
            184 callsubr
            endchar
          </CharString>
          <CharString index="193">
            rmoveto
            452 -351 247 -524 vhcurveto
            -618 -76 callsubr
            -107 callsubr
            -45 callgsubr
            -392 -22 147 callsubr
            return
          </CharString>
          <CharString index="194">
            rmoveto
            12 -709 rlineto
            -220 4 109 -96 179 hhcurveto
            133 113 63 82 57 hvcurveto
            65 vlineto
            -22 -31 -45 -14 -55 hhcurveto
            -96 -63 55 129 2 hvcurveto
            52 16 491 5 124 vhcurveto
            endchar
          </CharString>
          <CharString index="195">
            -25 -32 -43 hhcurveto
            -30 -100 callgsubr
            -54 -47 21 -59 hhcurveto
            -108 -80 -80 -208 8 hvcurveto
            77 hlineto
            89 2 25 32 -87 callgsubr
            30 -20 rlineto
            -36 54 return
          </CharString>
          <CharString index="196">
            423 664 rmoveto
            204 152 153 244 242 -153 156 -197 -205 -151 -153 -245 -242 152 -155 198 hvcurveto
            return
          </CharString>
          <CharString index="197">
            rmoveto
            -451 -55 0 -63 58 -85 callgsubr
            -51 callgsubr
            37 -55 75 117 callsubr
          </CharString>
          <CharString index="198">
            1302 rlineto
            64 -1122 vlineto
            -14 -394 rlineto
            63 hlineto
            55 234 73 61 298 13 rrcurveto
            251 8 -759 -1302 rlineto
            -64 vlineto
            return
          </CharString>
          <CharString index="199">
            -5 -96 -36 -132 hhcurveto
            -130 -97 36 53 -6 hvcurveto
            -77 hlineto
            -138 -7 127 -86 190 hhcurveto
            550 -1255 -94 callsubr
          </CharString>
          <CharString index="200">
            rmoveto
            186 124 101 163 -7 hvcurveto
            -76 hlineto
            -63 -6 -93 -42 -128 hhcurveto
            -128 -93 58 callsubr
            endchar
          </CharString>
          <CharString index="201">
            -68 vlineto
            114 -18 21 -22 -84 vvcurveto
            -1168 -479 1168 vlineto
            84 21 22 114 18 vhcurveto
            68 return
          </CharString>
          <CharString index="202">
            -468 rmoveto
            135 121 65 122 118 -105 67 -125 -9 -9 -1 -1 -9 hvcurveto
            80 98 rlineto
            return
          </CharString>
          <CharString index="203">
            -6 -96 -36 -131 hhcurveto
            -131 -96 36 53 -6 hvcurveto
            -78 hlineto
            -138 -7 127 -86 191 hhcurveto
            endchar
          </CharString>
          <CharString index="204">
            237 144 -279 -389 -377 -107 -265 -259 -238 -144 280 388 vhcurveto
            return
          </CharString>
          <CharString index="205">
            303 99 303 -99 0 68 -279 204 -48 0 -279 -204 rlineto
            endchar
          </CharString>
          <CharString index="206">
            1554 rmoveto
            77 63 56 76 76 -63 56 -77 -77 -63 2 callsubr
            return
          </CharString>
          <CharString index="207">
            346 hmoveto
            59 48 38 54 53 -48 39 -59 hvcurveto
            -12 -3 callsubr
            endchar
          </CharString>
          <CharString index="208">
            -229 139 -84 0 211 -294 203 0 212 294 rlineto
            return
          </CharString>
          <CharString index="209">
            1518 rmoveto
            -122 -89 -60 -69 -42 hvcurveto
            -59 vlineto
            25 28 50 19 return
          </CharString>
          <CharString index="210">
            441 1445 rmoveto
            -97 hlineto
            -249 -130 10 callgsubr
            return
          </CharString>
          <CharString index="211">
            98 79 80 97 98 -79 79 -98 -98 -79 -79 -98 -97 79 -80 98 hvcurveto
            return
          </CharString>
          <CharString index="212">
            72 58 53 73 72 -58 53 -72 -73 -58 -53 -72 -73 58 -53 73 hvcurveto
            return
          </CharString>
          <CharString index="213">
            1124 rmoveto
            241 373 rlineto
            10 -286 vlineto
            -44 -383 rlineto
            return
          </CharString>
          <CharString index="214">
            -64 -54 -53 17 23 -31 vhcurveto
            -61 vlineto
            -45 39 80 -33 94 hhcurveto
            endchar
          </CharString>
          <CharString index="215">
            1538 rmoveto
            84 hlineto
            -115 295 rlineto
            -347 -8 hlineto
            return
          </CharString>
          <CharString index="216">
            193 156 115 138 -115 472 -177 hlineto
            return
          </CharString>
          <CharString index="217">
            0 311 1863 rmoveto
            151 vlineto
            -622 -178 rlineto
            return
          </CharString>
          <CharString index="218">
            -37 -43 -30 hvcurveto
            -58 vlineto
            18 8 31 7 31 -1 rrcurveto
            59 -1 return
          </CharString>
          <CharString index="219">
            rmoveto
            110 -101 callgsubr
            -27 -23 -48 -28 -30 8 14 return
          </CharString>
          <CharString index="220">
            1124 rmoveto
            85 hlineto
            -134 383 rlineto
            -348 -10 hlineto
            return
          </CharString>
          <CharString index="221">
            1 -55 rlineto
            4 9 19 3 18 hhcurveto
            62 44 -25 -48 -48 return
          </CharString>
          <CharString index="222">
            hhcurveto
            -29 -24 12 25 -37 hvcurveto
            -29 20 rlineto
            36 -54 -46 20 return
          </CharString>
          <CharString index="223">
            -49 callgsubr
            -8 -9 -1 -1 -8 hvcurveto
            66 78 return
          </CharString>
          <CharString index="224">
            46 rlineto
            309 186 99 134 330 vvcurveto
            endchar
          </CharString>
          <CharString index="225">
            -13 -24 37 hvcurveto
            29 -20 rlineto
            -36 55 46 -21 59 hhcurveto
            return
          </CharString>
          <CharString index="226">
            rmoveto
            134 hlineto
            883 1444 rlineto
            -133 hlineto
            return
          </CharString>
          <CharString index="227">
            373 rlineto
            10 -336 vlineto
            -143 -383 rlineto
            return
          </CharString>
          <CharString index="228">
            -58 hhcurveto
            -107 -78 -78 -203 8 hvcurveto
            72 hlineto
            89 return
          </CharString>
          <CharString index="229">
            1594 rmoveto
            582 148 -582 hlineto
            return
          </CharString>
          <CharString index="230">
            1256 862 hmoveto
            136 callsubr
            return
          </CharString>
          <CharString index="231">
            -1044 vlineto
            -90 -20 -23 -124 -20 vhcurveto
            -67 return
          </CharString>
          <CharString index="232">
            -643 -67 vlineto
            124 -20 20 -23 -90 vvcurveto
            return
          </CharString>
          <CharString index="233">
            654 67 vlineto
            -134 19 -22 30 98 vvcurveto
            return
          </CharString>
          <CharString index="234">
            654 67 vlineto
            -133 19 -23 30 98 vvcurveto
            return
          </CharString>
          <CharString index="235">
            102 132 137 19 -2 18 -3 16 hvcurveto
            return
          </CharString>
          <CharString index="236">
            79 45 -97 -244 -244 -41 -85 -77 hvcurveto
            return
          </CharString>
          <CharString index="237">
            rmoveto
            113 71 65 121 -1 hvcurveto
            -78 hlineto
            return
          </CharString>
          <CharString index="238">
            rmoveto
            107 78 78 202 -8 hvcurveto
            -72 hlineto
            -88 return
          </CharString>
          <CharString index="239">
            rmoveto
            188 146 96 189 27 hvcurveto
            -180 74 187 -105 196 hhcurveto
            182 151 67 99 76 hvcurveto
            67 vlineto
            -48 -52 -87 -33 -94 hhcurveto
            -204 -146 143 249 -27 hvcurveto
            624 hlineto
            3 19 2 29 29 vvcurveto
            255 -166 169 -274 -128 -116 -48 -77 -71 vhcurveto
            83 -57 -120 42 -159 hhcurveto
            -252 -169 -109 -134 -79 62 -58 82 89 66 61 79 55 -32 46 -48 22 hvcurveto
            14 38 44 7 48 hhcurveto
            150 95 -81 -187 hvcurveto
            -70 vlineto
            -203 -35 rlineto
            -304 -52 -123 -113 -160 vvcurveto
            -160 127 -91 175 vhcurveto
            613 628 rmoveto
            213 73 115 115 107 48 -107 -174 -20 0 -16 -1 -14 vhcurveto
            -342 -3 rlineto
            1 0 3 2 vvcurveto
            -458 -486 rmoveto
            -82 -55 57 103 112 65 73 166 33 hvcurveto
            79 15 rlineto
            -162 vlineto
            -165 -79 -66 -94 vhcurveto
            endchar
          </CharString>
          <CharString index="240">
            1479 554 193 rmoveto
            504 113 vlineto
            391 -697 rlineto
            427 64 hlineto
            -67 24 -40 41 -127 222 rrcurveto
            -337 606 180 190 155 159 69 45 124 26 rlinecurve
            67 -470 -67 vlineto
            133 -18 11 -40 -107 -128 rrcurveto
            -343 -411 -112 -1 rlineto
            472 vlineto
            85 21 22 114 18 vhcurveto
            68 -633 29 callsubr
            -107 callsubr
            -44 callsubr
            return
          </CharString>
          <CharString index="241">
            rmoveto
            -1047 hlineto
            -554 -1127 -97 -201 -45 -32 -105 -17 rlinecurve
            -67 437 67 vlineto
            -132 21 -22 43 84 184 rrcurveto
            132 282 432 0 5 -404 rlineto
            -87 -21 -21 -114 -18 vhcurveto
            -67 1094 vlineto
            13 433 rlineto
            -64 hlineto
            -58 -276 -72 -56 -265 -15 rrcurveto
            -182 -8 -6 622 171 -4 109 -4 29 -46 30 -157 rlinecurve
            60 hlineto
            -4 498 rlineto
            -60 hlineto
            -29 -157 -28 -45 -109 -5 rrcurveto
            -170 -3 -6 589 159 -7 254 -13 73 -60 58 -235 rlinecurve
            64 hlineto
            -1006 314 rmoveto
            68 hlineto
            6 -679 rlineto
            -390 hlineto
            endchar
          </CharString>
          <CharString index="242">
            rmoveto
            237 -1 -196 154 -414 hhcurveto
            -661 36 callgsubr
            633 67 vlineto
            -114 20 -21 22 84 vvcurveto
            449 165 vlineto
            310 -642 rlineto
            407 64 hlineto
            -57 19 -41 38 -100 198 -193 395 rcurveline
            173 48 110 122 169 vvcurveto
            -356 -20 rmoveto
            -195 -128 -107 -194 -8 vhcurveto
            -96 -4 0 647 82 -2 rlineto
            229 -10 107 -131 -190 vvcurveto
            return
          </CharString>
          <CharString index="243">
            402 64 hlineto
            -61 19 -44 38 -95 180 rrcurveto
            -225 408 46 41 151 129 62 34 115 23 rlinecurve
            68 -448 -68 vlineto
            126 -21 7 -44 -95 -95 rrcurveto
            -209 -216 -91 -1 0 940 -451 -43 callgsubr
            -50 callsubr
            -96 callsubr
            313 vlineto
            94 -1 rlineto
            return
          </CharString>
          <CharString index="244">
            rmoveto
            321 -183 191 -227 -156 -123 -79 -112 -49 vhcurveto
            185 vlineto
            -447 -43 callgsubr
            -1075 27 callsubr
            375 vlineto
            -70 45 104 -49 117 hhcurveto
            255 213 199 334 hvcurveto
            -339 -28 rmoveto
            -245 -95 -146 -141 -74 -62 23 callgsubr
          </CharString>
          <CharString index="245">
            68 vlineto
            -49 -53 -92 -33 -94 hhcurveto
            -204 -161 155 268 225 120 142 175 48 41 -10 -18 34 hvcurveto
            -67 -11 -50 -60 -73 vvcurveto
            -83 65 -64 84 82 69 63 92 147 -137 118 -247 -314 -243 -209 -318 return
          </CharString>
          <CharString index="246">
            -182 vlineto
            449 50 0 62 -58 17 rlineto
            -57 18 -8 15 63 vvcurveto
            1284 vlineto
            -452 -53 0 -63 58 -17 rlineto
            56 -18 8 -15 -63 vvcurveto
            -362 vlineto
            70 -46 -104 48 -119 hhcurveto
            -255 -210 -196 -337 hvcurveto
            return
          </CharString>
          <CharString index="247">
            -141 8 -612 rcurveline
            -289 4 -148 -158 -225 hhcurveto
            -217 -153 141 295 hvcurveto
            683 vlineto
            90 21 23 124 20 vhcurveto
            67 -634 -67 vlineto
            113 -19 21 -22 -86 vvcurveto
            return
          </CharString>
          <CharString index="248">
            rmoveto
            180 -24 callgsubr
            -76 91 -114 -118 -68 -99 78 callgsubr
            endchar
          </CharString>
          <CharString index="249">
            3 17 hhcurveto
            62 45 -25 -48 -48 -45 -26 -61 -50 -50 15 20 -28 hvcurveto
            -65 vlineto
            -48 39 82 -33 96 hhcurveto
            136 120 66 121 118 -105 67 -125 -8 -8 -1 -1 -8 hvcurveto
            return
          </CharString>
          <CharString index="250">
            -315 237 -204 323 hvcurveto
            9 89 rmoveto
            -134 -87 167 276 264 74 160 137 135 86 -167 -275 -265 -74 -160 -137 hvcurveto
            return
          </CharString>
          <CharString index="251">
            52 28 60 39 83 hhcurveto
            107 64 -68 -134 hvcurveto
            -504 vlineto
            -68 -14 -17 -91 -15 vhcurveto
            -67 539 -89 callgsubr
            183 callsubr
            endchar
          </CharString>
          <CharString index="252">
            -46 -1 -27 -20 -49 hhcurveto
            -29 -30 7 12 -41 hvcurveto
            -36 11 rlineto
            13 60 callgsubr
            20 49 29 30 -7 -44 callgsubr
            endchar
          </CharString>
          <CharString index="253">
            1833 rmoveto
            -294 -7 hlineto
            323 -288 rlineto
            93 hlineto
            256 295 rmoveto
            -268 -7 hlineto
            212 -288 rlineto
            87 hlineto
            return
          </CharString>
          <CharString index="254">
            rmoveto
            1 -389 -199 -243 -324 -11 rrcurveto
            -81 -2 0 1288 81 -2 330 -11 193 -255 -1 -375 rlinecurve
            return
          </CharString>
          <CharString index="255">
            251 96 140 140 74 62 -38 -48 23 vhcurveto
            -600 vlineto
            -57 -30 -59 -37 -78 hhcurveto
            -134 -94 140 249 hvcurveto
            return
          </CharString>
          <CharString index="256">
            151 157 22 -2 21 -33 callgsubr
            -142 -102 72 100 vhcurveto
            4 -77 vlineto
            -4 -18 -47 callgsubr
            return
          </CharString>
          <CharString index="257">
            1524 rmoveto
            -248 -188 -245 188 -86 0 232 -382 199 0 233 382 rlineto
            return
          </CharString>
          <CharString index="258">
            444 rmoveto
            276 -233 154 -374 vhcurveto
            -185 356 hlineto
            98 23 30 133 19 vhcurveto
            67 return
          </CharString>
          <CharString index="259">
            -78 -51 -57 -36 hvcurveto
            -50 vlineto
            21 25 45 15 49 hhcurveto
            64 40 -27 -44 -47 -38 -42 -84 -49 hvcurveto
            71 hlineto
            return
          </CharString>
          <CharString index="260">
            207 -705 rmoveto
            84 69 59 81 80 -69 59 -84 -84 -69 -59 -80 -81 69 -59 84 hvcurveto
            endchar
          </CharString>
          <CharString index="261">
            127 91 -63 -89 vhcurveto
            -4 74 vlineto
            3 16 1 19 19 vvcurveto
            136 -102 132 -194 vhcurveto
            return
          </CharString>
          <CharString index="262">
            1 385 rlineto
            258 79 -258 hlineto
            1 198 -329 -40 rlineto
            -158 -124 vlineto
            endchar
          </CharString>
          <CharString index="263">
            -7 hlineto
            324 -288 rlineto
            93 hlineto
            255 295 rmoveto
            -267 -7 hlineto
            211 -288 rlineto
            return
          </CharString>
          <CharString index="264">
            vlineto
            67 14 17 91 15 vhcurveto
            68 -556 -68 vlineto
            -8 callsubr
            -96 callsubr
            endchar
          </CharString>
          <CharString index="265">
            -641 vlineto
            -306 -36 -126 -155 -136 vhcurveto
            37 -55 76 46 rlineto
            308 186 return
          </CharString>
          <CharString index="266">
            1500 rmoveto
            -38 callgsubr
            1 callgsubr
            -111 151 -216 vhcurveto
            return
          </CharString>
          <CharString index="267">
            1838 rmoveto
            623 118 -623 hlineto
            150 -402 -104 callgsubr
            return
          </CharString>
          <CharString index="268">
            60 47 38 53 55 -47 38 -60 hvcurveto
            -12 hlineto
            -60 -47 -38 -55 -53 47 -38 60 hvcurveto
            return
          </CharString>
          <CharString index="269">
            -68 hlineto
            103 -15 19 -21 -70 vvcurveto
            -657 vlineto
            -70 -19 -20 -103 -58 callgsubr
            return
          </CharString>
          <CharString index="270">
            -84 -88 -225 9 hvcurveto
            77 hlineto
            99 3 26 35 48 hhcurveto
            31 27 -13 -27 39 hvcurveto
            return
          </CharString>
          <CharString index="271">
            rmoveto
            135 120 66 121 118 -104 67 -125 -9 -8 -1 -1 -8 hvcurveto
            return
          </CharString>
          <CharString index="272">
            121 1 -97 90 -156 hhcurveto
            -162 -102 -85 -131 -39 hvcurveto
            42 -20 rlineto
            return
          </CharString>
          <CharString index="273">
            1657 rmoveto
            -85 -69 -38 -48 -39 hvcurveto
            -53 vlineto
            16 25 47 15 47 hhcurveto
            return
          </CharString>
          <CharString index="274">
            -229 139 -85 0 212 -294 203 0 211 294 rlineto
            return
          </CharString>
          <CharString index="275">
            44 15 50 hhcurveto
            63 40 -27 -44 -47 -37 -42 -84 -49 hvcurveto
            70 hlineto
            172 return
          </CharString>
          <CharString index="276">
            rmoveto
            96 77 69 94 94 -77 69 -96 -95 -77 -69 -94 -94 77 -69 95 hvcurveto
            return
          </CharString>
          <CharString index="277">
            -221 81 -183 132 -129 vhcurveto
            -129 -140 61 -58 132 143 rlineto
            -101 133 170 -57 188 hhcurveto
            461 304 330 421 221 -81 182 -133 130 hvcurveto
            129 139 -61 58 -132 -143 rlineto
            101 -132 -171 57 -187 62 callgsubr
            141 108 -99 -163 65 vhcurveto
            -643 -695 rlineto
            -25 92 -13 107 116 vvcurveto
            748 -26 rmoveto
            -377 -107 -265 -259 -142 -108 100 162 -65 vhcurveto
            644 695 rlineto
            24 -92 13 -106 -117 vvcurveto
            endchar
          </CharString>
          <CharString index="278">
            rmoveto
            324 240 215 311 148 -53 124 -90 89 hvcurveto
            95 97 -57 56 -99 -101 rlineto
            67 -94 -122 37 -136 hhcurveto
            -323 -241 -215 -310 -151 54 -125 92 -89 hvcurveto
            -89 -91 56 -57 95 97 rlineto
            -66 93 120 -36 135 hhcurveto
            -217 531 rmoveto
            265 76 160 140 87 68 -68 -120 38 vhcurveto
            -396 -405 rlineto
            -9 50 -4 56 62 vvcurveto
            226 -443 rmoveto
            -86 -67 66 117 -38 hvcurveto
            395 404 rlineto
            8 -49 4 -54 -59 vvcurveto
            -265 -76 -160 -140 vhcurveto
            endchar
          </CharString>
          <CharString index="279">
            rmoveto
            -284 155 -163 205 181 115 130 168 51 vhcurveto
            35 -169 110 -130 197 1 rrcurveto
            246 176 236 330 290 -116 188 -153 -127 -71 -125 -139 53 hvcurveto
            162 -31 115 -151 -184 vvcurveto
            -149 -73 -91 -111 -131 -78 120 271 vhcurveto
            208 -282 -211 vlineto
            -288 -61 -97 -102 -102 -56 107 205 219 65 188 124 102 vhcurveto
            -42 46 rlineto
            -302 -72 -183 -235 -290 vvcurveto
            endchar
          </CharString>
          <CharString index="280">
            rmoveto
            164 100 96 183 92 hvcurveto
            -193 45 76 -81 135 hhcurveto
            95 82 47 70 51 hvcurveto
            63 vlineto
            -12 -16 -23 -8 -25 hhcurveto
            -67 -53 51 249 -66 hvcurveto
            -12 46 231 513 rlineto
            -301 hlineto
            -17 -86 -23 -96 -26 -97 rrcurveto
            193 -69 -109 107 -201 hhcurveto
            -268 -178 -223 -309 -336 176 -177 207 hvcurveto
            -42 544 rmoveto
            251 61 149 102 96 43 -94 -229 38 vhcurveto
            37 -226 rlineto
            -164 -60 -60 -77 -86 hhcurveto
            -108 -63 146 244 hvcurveto
            endchar
          </CharString>
          <CharString index="281">
            rmoveto
            249 174 100 147 84 hvcurveto
            -1 67 -70 -64 -128 -46 -145 -1 rlinecurve
            -151 -1 -93 49 88 vvcurveto
            89 88 50 179 vhcurveto
            79 hlineto
            -44 198 rlineto
            -45 hlineto
            -194 -83 49 89 82 78 58 156 72 63 -10 -19 48 hvcurveto
            -42 -18 -32 -43 -54 vvcurveto
            -67 48 -58 84 71 57 58 74 125 -129 103 -299 -313 -163 -122 -168 -156 138 -91 217 -7 vhcurveto
            -243 -10 -135 -85 -141 vvcurveto
            -165 171 -100 254 vhcurveto
            endchar
          </CharString>
          <CharString index="282">
            210 -105 159 -165 76 hvcurveto
            -13 49 54 -7 55 hhcurveto
            156 107 65 113 hvcurveto
            1 99 -78 97 -117 47 rrcurveto
            -67 hlineto
            22 -26 18 -57 -1 -56 rrcurveto
            -120 -86 -90 -158 vhcurveto
            -80 -69 21 -109 hhcurveto
            -319 -236 -220 -306 -316 230 -203 330 hvcurveto
            9 89 rmoveto
            -137 -84 168 274 267 71 158 140 137 84 -167 -275 -267 -71 -158 -140 hvcurveto
            return
          </CharString>
          <CharString index="283">
            rmoveto
            -94 78 -71 102 163 105 118 258 134 vhcurveto
            440 847 70 134 29 26 115 20 rlinecurve
            67 -426 -67 vlineto
            156 -21 11 -22 -65 -138 rrcurveto
            -265 -555 -294 575 -61 120 4 23 151 18 rlinecurve
            67 -678 -67 vlineto
            108 -19 29 -26 62 -115 rrcurveto
            497 -913 -50 -97 -46 -67 -52 -40 rlinecurve
            2 11 2 12 12 vvcurveto
            90 -71 74 -89 -91 -70 -72 -88 vhcurveto
            endchar
          </CharString>
          <CharString index="284">
            rmoveto
            102 85 49 66 34 hvcurveto
            -1 66 rlineto
            -16 -14 -25 -10 -30 hhcurveto
            -74 -61 91 121 33 7 36 13 29 hvcurveto
            294 25 211 208 291 vvcurveto
            -100 callsubr
            -306 224 -201 309 -12 vhcurveto
            -97 -76 -62 -93 -98 vvcurveto
            -116 95 -79 118 vhcurveto
            -18 551 rmoveto
            -134 -87 167 276 264 74 160 137 135 86 -167 -275 -265 -74 -160 -137 hvcurveto
            endchar
          </CharString>
          <CharString index="285">
            340 hlineto
            59 -8 700 -1 vvcurveto
            65 25 60 40 83 hhcurveto
            118 62 -71 -203 -291 -5 -348 -11 -410 hvcurveto
            340 hlineto
            -3 1091 rlineto
            287 -1 -140 106 -206 hhcurveto
            -177 -120 -90 -118 -38 hvcurveto
            127 -14 -76 76 -131 hhcurveto
            -97 -86 -42 -48 -48 hvcurveto
            -65 vlineto
            6 11 19 5 22 hhcurveto
            72 34 -43 -120 -2 hvcurveto
            -59 -16 -511 -7 -142 vhcurveto
            endchar
          </CharString>
          <CharString index="286">
            334 664 rmoveto
            171 151 82 161 108 -82 86 -134 19 hvcurveto
            116 17 76 63 88 vvcurveto
            102 -99 68 -149 -160 -107 -85 77 callgsubr
            -41 -61 -72 -71 -48 -152 -15 hvcurveto
            -52 vlineto
            2 14 22 2 17 hhcurveto
            108 77 -63 -101 -92 -67 -57 -88 -37 -33 10 17 -25 hvcurveto
            36 9 26 32 38 vvcurveto
            48 -38 35 -48 -51 -37 -38 -48 -94 106 -78 159 vhcurveto
            return
          </CharString>
          <CharString index="287">
            rmoveto
            725 vlineto
            250 -12 0 109 -250 -13 rlineto
            220 vlineto
            148 54 58 86 vhcurveto
            3 3 0 4 hhcurveto
            -30 -21 -19 -34 -40 vvcurveto
            -70 52 -49 67 66 53 50 69 106 -92 82 -185 -226 -163 -136 -266 vhcurveto
            -108 vlineto
            -124 -47 rlineto
            -59 122 -723 vlineto
            -70 -17 -19 -105 -16 vhcurveto
            -67 589 67 vlineto
            -119 17 -19 20 79 vvcurveto
            endchar
          </CharString>
          <CharString index="288">
            rmoveto
            323 -181 189 -228 -153 -125 -74 -115 -50 vhcurveto
            3 663 -63 callgsubr
            -1268 177 vlineto
            115 129 rlineto
            -84 48 112 -66 140 hhcurveto
            259 213 196 338 hvcurveto
            -339 -29 rmoveto
            -250 -96 -141 -141 -74 -60 40 46 -24 vhcurveto
            600 vlineto
            58 30 59 36 77 hhcurveto
            135 94 -140 -249 hvcurveto
            return
          </CharString>
          <CharString index="289">
            456 50 0 62 -61 17 rlineto
            -60 18 -9 15 63 vvcurveto
            736 vlineto
            -2 16 18 -1 19 hhcurveto
            116 88 58 108 hvcurveto
            1 99 -81 96 -121 45 rrcurveto
            -67 hlineto
            21 -25 17 -53 -58 vvcurveto
            -134 -94 -82 -264 -26 vhcurveto
            -126 -12 0 -62 59 -17 rlineto
            60 -19 9 -14 -63 vvcurveto
            -566 vlineto
            -52 -30 -60 -38 -80 hhcurveto
            -113 -64 69 134 hvcurveto
            return
          </CharString>
          <CharString index="290">
            551 vlineto
            26 -2 22 -4 21 vhcurveto
            52 31 61 34 81 hhcurveto
            109 65 -68 -134 hvcurveto
            -504 vlineto
            -68 -13 -17 -91 -15 vhcurveto
            -67 555 67 vlineto
            -103 16 -19 20 70 vvcurveto
            527 vlineto
            214 -133 110 -203 -170 -129 -82 -109 -49 vhcurveto
            124 -38 -119 67 -160 hhcurveto
            -171 -123 -82 -107 -49 hvcurveto
            return
          </CharString>
          <CharString index="291">
            662 vlineto
            354 317 138 283 hvcurveto
            -424 652 rmoveto
            -179 -101 -92 -180 -2 vhcurveto
            -130 -1 0 567 86 -3 rlineto
            227 -7 98 -113 -170 vvcurveto
            49 -668 rmoveto
            -204 -137 -113 -237 -7 vhcurveto
            -86 -3 0 643 130 -2 rlineto
            214 -3 116 -125 -186 vvcurveto
            return
          </CharString>
          <CharString index="292">
            1180 672 1430 rmoveto
            110 70 76 143 -2 hvcurveto
            -75 hlineto
            -55 -1 -27 -23 -48 hhcurveto
            -28 -30 8 14 -39 hvcurveto
            -36 13 rlineto
            16 -47 -46 12 -50 hhcurveto
            -109 -72 -75 -143 2 hvcurveto
            76 hlineto
            55 1 27 23 48 hhcurveto
            28 30 -8 -14 39 hvcurveto
            36 -12 rlineto
            -17 46 47 -13 50 hhcurveto
            return
          </CharString>
          <CharString index="293">
            414 -1167 253 0 410 1141 66 187 31 33 110 18 rlinecurve
            67 -430 -67 vlineto
            143 -22 19 -38 -56 -175 rrcurveto
            -286 -870 -296 886 -53 160 23 39 136 20 rlinecurve
            67 -682 -67 vlineto
            108 -18 34 -34 56 -160 rrcurveto
            return
          </CharString>
          <CharString index="294">
            rmoveto
            314 240 210 316 319 -224 200 -325 -317 -240 -209 -316 -318 224 -202 328 hvcurveto
            7 89 rmoveto
            -135 -76 172 273 265 68 157 135 131 77 -171 -273 -265 -68 -158 -132 hvcurveto
            endchar
          </CharString>
          <CharString index="295">
            rmoveto
            301 vlineto
            99 -1 257 -467 rlineto
            398 64 hlineto
            -63 19 -39 45 -94 175 rrcurveto
            -220 391 46 48 154 149 56 26 107 19 rlinecurve
            68 -422 -68 vlineto
            117 -19 11 -40 -96 -100 rrcurveto
            -215 -229 -96 -1 rlineto
            290 157 callsubr
          </CharString>
          <CharString index="296">
            70 18 21 104 15 vhcurveto
            68 -552 -68 vlineto
            88 -14 13 -17 -68 vvcurveto
            -757 -315 757 vlineto
            68 13 18 88 13 vhcurveto
            68 -531 -68 vlineto
            88 -13 12 -18 -68 vvcurveto
            -757 -314 757 vlineto
            68 13 17 87 14 vhcurveto
            68 -551 -68 vlineto
            63 callsubr
            return
          </CharString>
          <CharString index="297">
            300 -771 192 0 290 743 60 153 25 24 86 17 rlinecurve
            68 -360 -68 vlineto
            117 -14 15 -30 -46 -140 rrcurveto
            -160 -466 -161 468 -45 138 15 30 119 14 rlinecurve
            68 -605 -68 vlineto
            85 -18 25 -25 48 -123 rrcurveto
            return
          </CharString>
          <CharString index="298">
            -209 -147 141 247 -28 hvcurveto
            636 93 callgsubr
            -313 -212 -215 -312 vhcurveto
            331 108 rmoveto
            213 72 117 122 109 53 -108 -175 -22 -1 -16 -1 -15 vhcurveto
            -354 -2 rlineto
            3 0 2 3 vvcurveto
            return
          </CharString>
          <CharString index="299">
            1568 rmoveto
            200 131 105 133 75 -51 52 -72 -71 -50 -53 -66 -58 41 -48 54 -8 hvcurveto
            -33 -45 -63 -21 -74 hhcurveto
            -73 -63 21 33 -45 hvcurveto
            53 8 42 48 58 vvcurveto
            66 -51 53 -70 -73 -50 -52 -75 -133 131 -105 199 vhcurveto
            return
          </CharString>
          <CharString index="300">
            438 vlineto
            295 509 97 166 35 31 103 19 rlinecurve
            67 -415 -67 vlineto
            135 -19 12 -38 -83 -160 rrcurveto
            -222 -424 -242 440 -79 145 15 38 129 18 rlinecurve
            67 -669 -67 vlineto
            99 -18 33 -30 87 -148 rrcurveto
            return
          </CharString>
          <CharString index="301">
            1465 1389 421 rmoveto
            227 -192 124 -285 15 vhcurveto
            220 15 192 103 194 vvcurveto
            226 -226 119 -380 vhcurveto
            -662 -76 callsubr
            -107 callsubr
            184 callsubr
            return
          </CharString>
          <CharString index="302">
            1951 rmoveto
            -83 -67 -33 -41 -39 hvcurveto
            -44 vlineto
            13 25 46 13 46 hhcurveto
            68 37 -25 -35 -36 -35 -26 -75 -15 hvcurveto
            57 -35 rlineto
            139 23 74 42 77 vvcurveto
            75 -85 47 -108 vhcurveto
            -572 -453 59 callsubr
            return
          </CharString>
          <CharString index="303">
            rmoveto
            39 vlineto
            367 476 rlineto
            -515 vlineto
            -68 -14 -17 -91 -15 vhcurveto
            -67 556 67 vlineto
            74 callgsubr
            -556 -68 vlineto
            91 -14 14 -18 -67 vvcurveto
            -40 vlineto
            -367 -475 rlineto
            515 157 callsubr
          </CharString>
          <CharString index="304">
            470 vlineto
            181 -3 110 -4 29 -45 29 -158 rlinecurve
            60 499 -60 hlineto
            -31 -159 -28 -44 -109 -4 rrcurveto
            -181 -4 0 604 170 -7 256 -12 77 -60 54 -237 rlinecurve
            64 hlineto
            endchar
          </CharString>
          <CharString index="305">
            -481 rmoveto
            99 93 40 61 40 hvcurveto
            65 vlineto
            -17 -19 -34 -12 -38 hhcurveto
            -57 -49 38 77 85 53 81 139 101 hvcurveto
            -78 -1 rlineto
            -261 -119 -94 -114 -111 vvcurveto
            -110 89 -64 117 vhcurveto
            endchar
          </CharString>
          <CharString index="306">
            -6 -8 -1 -9 hhcurveto
            -30 -24 19 41 hvcurveto
            230 vlineto
            138 -100 61 -174 -169 -103 -66 -79 -49 40 -34 54 53 41 38 50 29 -15 25 -22 15 vhcurveto
            4 17 18 2 19 hhcurveto
            84 47 return
          </CharString>
          <CharString index="307">
            143 rrcurveto
            -18 942 759 -1203 303 0 13 1186 2 139 18 33 122 19 rlinecurve
            67 -410 -68 vlineto
            129 -18 19 -32 3 -143 18 -848 rcurveline
            return
          </CharString>
          <CharString index="308">
            1789 rmoveto
            113 71 65 122 -1 hvcurveto
            -78 hlineto
            -47 -1 -27 -20 -49 hhcurveto
            -29 -30 7 12 -41 hvcurveto
            -36 11 rlineto
            14 -49 -47 11 -51 hhcurveto
            -113 -72 -65 -122 2 hvcurveto
            return
          </CharString>
          <CharString index="309">
            1123 602 75 callgsubr
            -4 18 hvcurveto
            -77 -4 hlineto
            -101 -101 -71 -143 -37 callgsubr
            -2 -21 -22 vvcurveto
            -157 111 -151 216 vhcurveto
            -527 -651 rmoveto
            return
          </CharString>
          <CharString index="310">
            430 1466 rmoveto
            -180 -34 -164 -135 -195 vvcurveto
            -134 76 -91 113 118 69 99 122 vhcurveto
            -96 4 -66 58 85 vvcurveto
            82 65 56 86 21 vhcurveto
            return
          </CharString>
          <CharString index="311">
            274 1476 rmoveto
            -89 -64 -58 -90 -1 hvcurveto
            -60 17 -47 35 -119 vhcurveto
            78 -270 48 0 79 270 35 117 17 50 -1 59 rlinecurve
            90 -64 58 -90 vhcurveto
            return
          </CharString>
          <CharString index="312">
            72 114 112 -128 74 -172 -172 -128 -74 -112 vhcurveto
            205 hmoveto
            70 39 50 56 56 39 -49 -71 -73 -39 -47 -56 -56 -39 48 72 vhcurveto
            endchar
          </CharString>
          <CharString index="313">
            60 -4 hvcurveto
            -37 -43 -64 -24 -80 hhcurveto
            -80 -64 24 37 -44 hvcurveto
            61 3 48 52 67 vvcurveto
            69 -52 57 -72 -78 -52 -53 -83 -139 132 -115 201 vhcurveto
            return
          </CharString>
          <CharString index="314">
            -68 -38 -48 -40 hvcurveto
            -53 vlineto
            16 25 48 15 46 hhcurveto
            70 38 -29 -41 -42 -36 -31 -77 -18 hvcurveto
            59 -41 rlineto
            141 27 76 50 90 vvcurveto
            88 -87 55 return
          </CharString>
          <CharString index="315">
            -68 vlineto
            119 -13 27 -30 -1 -89 rrcurveto
            -4 -128 -5 return
          </CharString>
          <CharString index="316">
            -70 91 hvcurveto
            176 -141 rmoveto
            -451 -14 rlineto
            -68 vlineto
            return
          </CharString>
          <CharString index="317">
            -85 0 211 -295 204 0 211 295 rlineto
            return
          </CharString>
          <CharString index="318">
            vlineto
            384 216 182 262 hvcurveto
            -375 -5 rmoveto
            return
          </CharString>
        <CharString name=".notdef">
          2048 126 -494 rmoveto
          158 2444 -158 hlineto
          -61 callgsubr
          409 -2444 rmoveto
          158 2444 -158 hlineto
          -61 callgsubr
          -61 callgsubr
          endchar
        </CharString>
        <CharString name=".null">
          0 endchar
        </CharString>
        <CharString name="A">
          1470 1281 279 -94 callsubr
        </CharString>
        <CharString name="AE">
          1949 1831 1444 134 callsubr
        </CharString>
        <CharString name="AEacute">
          1949 1183 -70 callsubr
          732 -95 134 callsubr
        </CharString>
        <CharString name="AEmacron">
          1949 939 -29 callsubr
          892 -298 134 callsubr
        </CharString>
        <CharString name="Aacute">
          1470 684 -70 callsubr
          681 -1260 -94 callsubr
        </CharString>
        <CharString name="Abreve">
          1470 731 1571 rmoveto
          195 128 callsubr
          -74 71 callsubr
          -1 -84 callgsubr
          194 vhcurveto
          550 -1292 -94 callsubr
        </CharString>
        <CharString name="Abreveacute">
          1470 1042 1863 rmoveto
          151 vlineto
          -621 -178 rlineto
          -56 vlineto
          310 -246 -31 callsubr
          92 callsubr
        </CharString>
        <CharString name="Abrevecyrillic">
          1470 731 192 callsubr
          550 -1289 -94 callsubr
        </CharString>
        <CharString name="Abrevedotbelow">
          1470 731 1571 rmoveto
          195 128 callsubr
          -74 71 callsubr
          -1 -84 callgsubr
          194 vhcurveto
          550 -1292 rmoveto
          -16 callsubr
          48 callsubr
          -144 -729 -82 callsubr
        </CharString>
        <CharString name="Abrevegrave">
          1470 421 94 callgsubr
          310 -480 -31 callsubr
          92 callsubr
        </CharString>
        <CharString name="Abrevehookabove">
          1470 722 2004 rmoveto
          -87 -71 -34 -40 -40 hvcurveto
          -45 vlineto
          14 26 48 12 48 hhcurveto
          71 39 -24 -36 -35 -37 -26 -79 -16 hvcurveto
          60 -34 rlineto
          145 23 78 42 76 vvcurveto
          76 -88 47 -113 vhcurveto
          9 -470 -31 callsubr
          92 callsubr
        </CharString>
        <CharString name="Abrevetilde">
          1470 859 1810 rmoveto
          113 72 65 121 -2 hvcurveto
          -77 hlineto
          -47 -1 -28 -19 -49 hhcurveto
          -29 -30 7 11 -65 callgsubr
          -121 1 hvcurveto
          78 hlineto
          47 1 27 19 49 hhcurveto
          29 30 -6 -12 41 -105 callgsubr
          -128 -276 -31 callsubr
          92 callsubr
        </CharString>
        <CharString name="Acaron">
          1470 976 -75 callsubr
          11 callsubr
          223 -1567 -94 callsubr
        </CharString>
        <CharString name="Acircumflex">
          1470 516 -74 callsubr
          35 callsubr
          847 -1259 -94 callsubr
        </CharString>
        <CharString name="Acircumflexacute">
          1470 1042 1843 -29 callgsubr
          -261 vmoveto
          -34 callsubr
          860 -1277 -94 callsubr
        </CharString>
        <CharString name="Acircumflexdotbelow">
          1470 516 -74 callsubr
          35 callsubr
          847 -1259 rmoveto
          -16 callsubr
          48 callsubr
          -144 -729 -82 callsubr
        </CharString>
        <CharString name="Acircumflexgrave">
          1470 421 1843 -32 callgsubr
          -496 vmoveto
          -34 callsubr
          860 -1277 -94 callsubr
        </CharString>
        <CharString name="Acircumflexhookabove">
          1470 994 1951 rmoveto
          -84 -67 25 callgsubr
          57 -35 rlineto
          139 23 74 42 77 vvcurveto
          75 -85 47 -107 vhcurveto
          -573 -453 rmoveto
          -34 callsubr
          860 -1277 -94 callsubr
        </CharString>
        <CharString name="Acircumflextilde">
          1470 859 1789 rmoveto
          113 72 65 122 -2 hvcurveto
          -77 hlineto
          -47 -1 -28 -20 -49 hhcurveto
          -29 -30 7 12 -65 callgsubr
          -122 1 hvcurveto
          78 hlineto
          47 1 27 20 49 hhcurveto
          29 30 -7 -12 41 -105 callgsubr
          -438 -291 rmoveto
          -34 callsubr
          860 -1277 -94 callsubr
        </CharString>
        <CharString name="Acyrillic">
          1470 1281 279 -94 callsubr
        </CharString>
        <CharString name="Adblgrave">
          1470 561 146 callsubr
          311 -1259 -94 callsubr
        </CharString>
        <CharString name="Adieresis">
          1470 557 1561 rmoveto
          -79 callgsubr
          349 hmoveto
          69 callsubr
          -56 callsubr
          375 -1282 -94 callsubr
        </CharString>
        <CharString name="Adieresismacron">
          1470 420 160 callsubr
          -12 hlineto
          -59 -48 -39 -53 -54 48 -38 59 hvcurveto
          346 hmoveto
          -64 callsubr
          389 -1275 -94 callsubr
        </CharString>
        <CharString name="Adotaccent">
          1470 731 -32 callsubr
          -40 callsubr
          550 -1275 -94 callsubr
        </CharString>
        <CharString name="Adotbelow">
          1470 1281 279 rmoveto
          -16 callsubr
          48 callsubr
          -144 -729 -82 callsubr
        </CharString>
        <CharString name="Adotmacron">
          1470 420 1812 rmoveto
          623 119 -623 92 callgsubr
          -51 -42 -58 -58 50 -43 65 hvcurveto
          550 -1266 -94 callsubr
        </CharString>
        <CharString name="Agrave">
          1470 807 1538 rmoveto
          84 -21 callgsubr
          851 -1546 -94 callsubr
        </CharString>
        <CharString name="Ahookabove">
          1470 766 1879 rmoveto
          -107 152 callsubr
          171 -5 callsubr
          515 -1600 -94 callsubr
        </CharString>
        <CharString name="Ainvertedbreve">
          1470 731 1893 rmoveto
          -74 callgsubr
          127 91 -63 -89 vhcurveto
          -4 74 91 callgsubr
          550 -1614 -94 callsubr
        </CharString>
        <CharString name="Alphagreek">
          1470 1281 279 -94 callsubr
        </CharString>
        <CharString name="Alphatonosgreek">
          1470 1281 279 rmoveto
          -16 callsubr
          682 67 vlineto
          -109 18 -32 34 -58 160 rrcurveto
          -1063 783 -19 callsubr
          -286 vlineto
          -44 -382 rlineto
          277 -488 rmoveto
          198 598 202 -598 rlineto
          endchar
        </CharString>
        <CharString name="Amacron">
          1470 440 -29 callsubr
          841 -1463 -94 callsubr
        </CharString>
        <CharString name="Aogonek">
          1470 1151 -483 rmoveto
          103 86 50 73 32 hvcurveto
          65 vlineto
          -16 -15 -27 -12 -33 hhcurveto
          -72 -63 82 111 52 12 47 19 31 hvcurveto
          287 67 hlineto
          -109 18 -32 34 -58 160 rrcurveto
          -16 callsubr
          314 -22 callgsubr
          94 -78 124 vhcurveto
          -745 1057 rmoveto
          198 598 202 -598 rlineto
          endchar
        </CharString>
        <CharString name="Aring">
          1470 461 1734 rmoveto
          -112 116 -72 154 155 116 72 112 111 -115 74 -156 -154 8 callgsubr
          636 -1455 -94 callsubr
        </CharString>
        <CharString name="Aringacute">
          1470 1042 1847 rmoveto
          151 vlineto
          -621 -179 rlineto
          -56 vlineto
          343 -238 rmoveto
          141 93 41 64 63 -93 41 -141 hvcurveto
          -65 hlineto
          -140 -95 -41 -63 -64 95 -41 140 hvcurveto
          50 48 rmoveto
          -35 hlineto
          -44 -25 23 34 33 25 23 44 hvcurveto
          35 hlineto
          43 25 -23 -33 -34 -25 -23 -43 hvcurveto
          532 -1294 -94 callsubr
        </CharString>
        <CharString name="Aringbelow">
          1470 1281 279 rmoveto
          -16 callsubr
          48 callsubr
          -444 -861 rmoveto
          -114 129 -72 171 172 128 72 114 112 -128 74 -172 -172 -128 -74 -112 vhcurveto
          205 hmoveto
          70 39 50 56 56 40 -49 -71 -73 -40 -47 -56 -56 -39 48 72 vhcurveto
          endchar
        </CharString>
        <CharString name="Atilde">
          1470 855 -55 callgsubr
          -36 hvcurveto
          -30 19 rlineto
          37 50 callsubr
          43 hhcurveto
          30 24 118 callsubr
          426 -1271 -94 callsubr
        </CharString>
        <CharString name="B">
          1465 1389 421 85 callsubr
        </CharString>
        <CharString name="Bdotaccent">
          1465 722 -32 callsubr
          -63 -56 -76 -76 63 -56 77 hvcurveto
          667 -1133 85 callsubr
        </CharString>
        <CharString name="Bdotbelow">
          194 callsubr
          -291 -560 -59 callsubr
          76 63 56 76 76 -63 56 -76 hvcurveto
          endchar
        </CharString>
        <CharString name="Becyrillic">
          1411 1347 419 rmoveto
          259 -229 152 -384 vhcurveto
          -180 535 hlineto
          199 -6 268 -8 74 -48 56 -232 rlinecurve
          64 hlineto
          -12 373 rlineto
          -1147 -67 hlineto
          123 -20 20 -23 -90 vvcurveto
          -1044 vlineto
          -90 -20 -23 -123 -20 vhcurveto
          -67 680 vlineto
          382 229 158 261 hvcurveto
          -375 -3 rmoveto
          -201 -107 -124 -219 -8 vhcurveto
          -92 -3 0 667 92 -3 rlineto
          214 -8 112 -124 -196 vvcurveto
          endchar
        </CharString>
        <CharString name="Betagreek">
          1465 1389 421 85 callsubr
        </CharString>
        <CharString name="Blinebelow">
          194 callsubr
          -592 -769 72 callsubr
        </CharString>
        <CharString name="C">
          1442 87 723 -14 callsubr
          -35 callsubr
        </CharString>
        <CharString name="Cacute">
          1442 827 -21 callsubr
          -655 -816 -14 callsubr
          -35 callsubr
        </CharString>
        <CharString name="Ccaron">
          1442 1118 -75 callsubr
          167 callsubr
          -1113 -1123 -14 callsubr
          -35 callsubr
        </CharString>
        <CharString name="Ccedilla">
          1442 87 723 rmoveto
          -447 320 -277 424 -23 vhcurveto
          -115 -138 rlineto
          -55 vlineto
          4 10 19 142 callsubr
          61 73 rlineto
          187 4 169 46 79 56 11 384 rcurveline
          -42 callgsubr
          -35 callsubr
        </CharString>
        <CharString name="Ccedillaacute">
          1442 827 -21 callsubr
          -655 -816 rmoveto
          -447 320 -277 424 -23 vhcurveto
          -115 -138 rlineto
          -55 vlineto
          4 10 19 142 callsubr
          61 73 rlineto
          187 4 169 46 79 56 11 384 rcurveline
          -42 callgsubr
          -35 callsubr
        </CharString>
        <CharString name="Ccircumflex">
          1442 659 -74 callsubr
          228 -73 callgsubr
          -489 -815 -14 callsubr
          -35 callsubr
        </CharString>
        <CharString name="Cdotaccent">
          1442 874 19 callsubr
          -78 -62 2 callsubr
          -787 -831 -14 callsubr
          -35 callsubr
        </CharString>
        <CharString name="Checyrillic">
          1628 1428 -67 callsubr
          -73 callsubr
          -633 -67 vlineto
          115 -18 19 -21 -87 vvcurveto
          -532 vlineto
          -29 -66 -86 -16 -96 hhcurveto
          -199 -98 106 226 hvcurveto
          245 vlineto
          87 20 21 114 18 vhcurveto
          67 -623 -67 vlineto
          115 -18 19 -21 -87 vvcurveto
          -232 vlineto
          -312 209 -148 315 156 134 31 44 86 vhcurveto
          -423 vlineto
          -96 -22 -29 -137 -19 vhcurveto
          -67 658 67 vlineto
          -93 callgsubr
        </CharString>
        <CharString name="Chigreek">
          1439 282 304 38 callsubr
        </CharString>
        <CharString name="D">
          1625 22 callsubr
          endchar
        </CharString>
        <CharString name="Dbar">
          1625 56 700 rmoveto
          144 -500 hlineto
          -90 -21 -23 -123 -20 vhcurveto
          -67 630 vlineto
          473 390 277 468 452 -351 247 -524 hvcurveto
          -618 -76 callsubr
          -464 -144 vlineto
          1101 -57 rmoveto
          -389 -198 -243 -324 -11 vhcurveto
          -81 -2 rlineto
          622 274 80 -274 586 vlineto
          81 -2 330 -11 193 -255 -1 -375 rlinecurve
          endchar
        </CharString>
        <CharString name="Dcaron">
          1625 1019 -75 callsubr
          -228 139 -85 0 211 -294 203 0 212 294 rlineto
          447 -1101 86 callsubr
          endchar
        </CharString>
        <CharString name="Dcircumflexbelow">
          1625 22 callsubr
          -659 -1182 rmoveto
          230 29 callgsubr
        </CharString>
        <CharString name="Dcommaaccent">
          1625 22 callsubr
          -444 -1191 -30 callsubr
          -89 -68 111 callsubr
          36 callsubr
          107 callsubr
        </CharString>
        <CharString name="Ddotaccent">
          1625 775 1554 rmoveto
          77 63 56 76 76 -63 -35 callgsubr
          774 -809 86 callsubr
          endchar
        </CharString>
        <CharString name="Ddotbelow">
          1625 22 callsubr
          -429 -878 -59 callsubr
          -20 callsubr
        </CharString>
        <CharString name="Decyrillic">
          1512 1470 84 rmoveto
          -184 1146 hlineto
          98 22 30 133 19 vhcurveto
          67 -1248 -67 vlineto
          146 -19 40 -35 -4 -139 rrcurveto
          -7 -177 -12 -421 -48 -316 -139 -186 rlinecurve
          -146 hlineto
          -9 -428 rlineto
          69 hlineto
          281 65 87 63 264 hhcurveto
          496 hlineto
          273 78 -71 -273 64 hvcurveto
          69 hlineto
          -548 428 rmoveto
          -643 hlineto
          123 191 45 299 12 433 11 353 rcurveline
          452 hlineto
          endchar
        </CharString>
        <CharString name="Deltagreek">
          1361 40 hmoveto
          1281 180 hlineto
          -514 1267 -252 0 -515 -1267 rlineto
          124 46 rmoveto
          393 969 372 -969 rlineto
          endchar
        </CharString>
        <CharString name="Djecyrillic">
          1776 -46 callsubr
          -20 callgsubr
          464 vlineto
          29 49 72 19 79 hhcurveto
          186 114 -134 -268 1 hvcurveto
          1 -276 -99 -231 -200 -131 32 -56 rcurveline
          365 131 256 250 339 vvcurveto
          320 -216 174 -298 -151 -123 -36 -44 -68 vhcurveto
          611 90 callgsubr
        </CharString>
        <CharString name="Dlinebelow">
          1625 22 callsubr
          -730 -1087 -69 callsubr
        </CharString>
        <CharString name="Dzecyrillic">
          1268 598 -26 78 callsubr
          endchar
        </CharString>
        <CharString name="Dzhecyrillic">
          1677 1477 1244 rmoveto
          90 -73 callsubr
          -633 -67 vlineto
          114 -19 47 callgsubr
          19 vhcurveto
          67 -633 29 callsubr
          -107 callsubr
          557 vlineto
          119 24 -36 -288 48 hvcurveto
          69 hlineto
          288 48 25 36 118 hhcurveto
          557 67 hlineto
          -93 callgsubr
        </CharString>
        <CharString name="E">
          1309 1191 1444 -93 callsubr
        </CharString>
        <CharString name="Eacute">
          1309 644 -27 callsubr
          -95 callgsubr
          632 -95 -93 callsubr
        </CharString>
        <CharString name="Ebreve">
          1309 691 1571 rmoveto
          60 callsubr
          71 callsubr
          70 callsubr
          500 -127 -93 callsubr
        </CharString>
        <CharString name="Ecaron">
          1309 935 -75 callsubr
          101 callsubr
          173 -402 -93 callsubr
        </CharString>
        <CharString name="Ecedilla">
          1309 656 -468 164 callsubr
          78 92 rlineto
          6 502 vlineto
          -83 callsubr
          -37 callsubr
          -13 394 rlineto
          -33 callsubr
          598 vlineto
          -135 -50 callgsubr
          -76 callgsubr
        </CharString>
        <CharString name="Ecedillabreve">
          1309 691 1571 rmoveto
          60 callsubr
          71 callsubr
          70 callsubr
          -35 -2039 164 callsubr
          78 92 rlineto
          6 502 vlineto
          -83 callsubr
          -37 callsubr
          -13 394 rlineto
          -33 callsubr
          598 vlineto
          -135 -50 callgsubr
          -76 callgsubr
        </CharString>
        <CharString name="Ecircumflex">
          1309 476 -74 callsubr
          51 callsubr
          798 -94 -93 callsubr
        </CharString>
        <CharString name="Ecircumflexacute">
          1309 1002 1843 -30 callgsubr
          1 -261 59 callsubr
          -286 -172 rlineto
          811 -112 -93 callsubr
        </CharString>
        <CharString name="Ecircumflexbelow">
          1309 1191 1444 rmoveto
          -33 callsubr
          1181 vlineto
          -83 callsubr
          -37 callsubr
          -749 -1509 -12 callsubr
        </CharString>
        <CharString name="Ecircumflexdotbelow">
          1309 476 -74 callsubr
          51 callsubr
          798 -94 rmoveto
          -33 callsubr
          1181 vlineto
          -83 callsubr
          -37 callsubr
          -520 -1205 -82 callsubr
        </CharString>
        <CharString name="Ecircumflexgrave">
          1309 380 21 callgsubr
          -286 -172 rlineto
          811 -112 -93 callsubr
        </CharString>
        <CharString name="Ecircumflexhookabove">
          1309 953 195 callsubr
          -286 -172 rlineto
          811 -112 -93 callsubr
        </CharString>
        <CharString name="Ecircumflextilde">
          1309 819 201 callsubr
          77 hlineto
          47 1 28 20 49 hhcurveto
          29 30 -7 -12 40 hvcurveto
          37 -11 rlineto
          -14 48 47 -11 52 hhcurveto
          -438 -291 59 callsubr
          -286 -172 rlineto
          811 -112 -93 callsubr
        </CharString>
        <CharString name="Ecyrillic">
          1459 87 723 -14 callsubr
          -261 -157 282 345 -12 hvcurveto
          600 -12 0 109 -600 -12 rlineto
          360 11 158 238 259 hhcurveto
          -15 callgsubr
        </CharString>
        <CharString name="Edblgrave">
          1309 520 1833 rmoveto
          -294 156 callsubr
          87 hlineto
          262 -94 -93 callsubr
        </CharString>
        <CharString name="Edieresis">
          1309 516 -25 callsubr
          -56 callsubr
          350 hmoveto
          -79 callgsubr
          325 -117 -93 callsubr
        </CharString>
        <CharString name="Edotaccent">
          1309 691 99 callsubr
          500 -110 -93 callsubr
        </CharString>
        <CharString name="Edotbelow">
          1309 1191 1444 rmoveto
          -33 callsubr
          1181 vlineto
          -83 callsubr
          -37 callsubr
          -520 -1205 -82 callsubr
        </CharString>
        <CharString name="Efcyrillic">
          2007 65 719 rmoveto
          -294 265 -189 508 -12 vhcurveto
          -35 vlineto
          -99 -22 -30 -133 -18 vhcurveto
          -68 641 68 vlineto
          -132 18 -22 30 99 vvcurveto
          35 vlineto
          516 12 256 186 299 vvcurveto
          291 -247 195 -525 12 vhcurveto
          36 vlineto
          99 22 30 132 18 vhcurveto
          68 -641 -68 vlineto
          133 -18 22 -30 -99 vvcurveto
          -36 vlineto
          -534 -11 -239 -192 -297 vvcurveto
          374 5 rmoveto
          214 115 179 284 19 vhcurveto
          -829 vlineto
          -279 20 -120 179 218 vvcurveto
          1129 -3 rmoveto
          -215 -121 -179 -277 -19 vhcurveto
          828 vlineto
          285 -19 113 -179 -217 vvcurveto
          endchar
        </CharString>
        <CharString name="Egrave">
          1309 767 108 callsubr
          802 -381 -93 callsubr
        </CharString>
        <CharString name="Ehookabove">
          1309 726 1879 rmoveto
          -107 -78 -51 -57 -37 hvcurveto
          -50 vlineto
          21 26 168 callsubr
          -5 callsubr
          465 -435 -93 callsubr
        </CharString>
        <CharString name="Einvertedbreve">
          1309 691 50 callgsubr
          74 4 hlineto
          90 90 62 128 154 callsubr
          500 -449 -93 callsubr
        </CharString>
        <CharString name="Elcyrillic">
          1531 24 callgsubr
          445 -1160 hlineto
          -91 -21 -22 -122 -20 vhcurveto
          -67 642 67 vlineto
          -122 20 -22 22 91 vvcurveto
          1044 vlineto
          91 22 22 122 20 vhcurveto
          67 -1230 -67 vlineto
          151 -18 34 -46 2 callgsubr
          endchar
        </CharString>
        <CharString name="Emacron">
          1309 400 122 callsubr
          791 -298 -93 callsubr
        </CharString>
        <CharString name="Emacronacute">
          1309 1002 1863 rmoveto
          151 vlineto
          -622 -178 rlineto
          -56 vlineto
          -194 vmoveto
          622 120 -622 hlineto
          811 -262 -93 callsubr
        </CharString>
        <CharString name="Emacrongrave">
          1309 380 12 callgsubr
          811 -262 -93 callsubr
        </CharString>
        <CharString name="Emcyrillic">
          1882 595 1444 40 callsubr
        </CharString>
        <CharString name="Encyrillic">
          14 callsubr
          -55 callsubr
          -48 callsubr
        </CharString>
        <CharString name="Eogonek">
          1309 1029 -483 rmoveto
          103 86 50 73 33 hvcurveto
          65 vlineto
          -16 -16 -26 -12 -34 hhcurveto
          -72 -63 82 111 52 12 47 20 31 hvcurveto
          165 hlineto
          -83 callsubr
          -37 callsubr
          -13 394 rlineto
          -33 callsubr
          935 -22 callgsubr
          93 -78 124 vhcurveto
          endchar
        </CharString>
        <CharString name="Epsilongreek">
          1309 1191 1444 -93 callsubr
        </CharString>
        <CharString name="Epsilontonosgreek">
          1658 1540 1444 rmoveto
          -1136 -67 hlineto
          124 -20 20 -23 -90 vvcurveto
          124 callsubr
          1182 vlineto
          -83 callsubr
          -61 -276 -78 -58 -277 -13 rrcurveto
          -217 -8 0 622 205 -4 111 -4 30 -46 30 -157 rlinecurve
          60 498 -60 hlineto
          -32 -157 -28 -45 -111 -5 rrcurveto
          -205 -3 0 589 191 -7 261 -12 77 -61 56 -236 rlinecurve
          64 hlineto
          -1458 12 -19 callsubr
          32 callsubr
        </CharString>
        <CharString name="Ercyrillic">
          1427 1351 1020 42 callsubr
        </CharString>
        <CharString name="Ereversedcyrillic">
          1465 115 82 rmoveto
          -60 87 190 -48 182 hhcurveto
          466 338 294 467 451 -329 284 -472 -208 -165 -45 -58 -83 hvcurveto
          -12 -330 rlineto
          64 hlineto
          225 53 131 115 195 hhcurveto
          257 164 -232 -365 13 hvcurveto
          -599 11 0 -109 599 11 rlineto
          -354 -11 -161 -272 -265 hhcurveto
          -180 -146 95 250 -57 hvcurveto
          -63 hlineto
          endchar
        </CharString>
        <CharString name="Escyrillic">
          1442 87 723 -14 callsubr
          -35 callsubr
        </CharString>
        <CharString name="Etagreek">
          14 callsubr
          -55 callsubr
          -48 callsubr
        </CharString>
        <CharString name="Etatonosgreek">
          2037 903 193 30 callsubr
          -20 -21 -114 -18 vhcurveto
          -67 633 67 vlineto
          -123 20 -21 22 91 vvcurveto
          1044 vlineto
          91 21 22 123 20 vhcurveto
          67 -633 -67 vlineto
          114 -18 20 -21 -87 vvcurveto
          -471 -579 471 vlineto
          85 21 22 114 18 vhcurveto
          68 -634 -67 vlineto
          124 -20 20 -23 -90 vvcurveto
          124 callsubr
          634 67 vlineto
          -114 19 -21 22 85 vvcurveto
          -809 869 -19 callsubr
          32 callsubr
        </CharString>
        <CharString name="Etilde">
          1309 814 1550 rmoveto
          109 80 80 208 -8 hvcurveto
          -76 hlineto
          -89 -3 88 callsubr
          46 -21 59 hhcurveto
          377 -106 -93 callsubr
        </CharString>
        <CharString name="Etildebelow">
          1309 1191 1444 rmoveto
          -33 callsubr
          1181 vlineto
          -83 callsubr
          -37 callsubr
          -398 -1473 131 callsubr
          -2 -25 -106 callgsubr
          20 rlineto
          36 -54 -46 20 121 callsubr
          3 25 32 44 hhcurveto
          29 81 callgsubr
        </CharString>
        <CharString name="F">
          1217 1163 1444 rmoveto
          -1107 -76 callsubr
          -107 callsubr
          127 callsubr
          197 callsubr
        </CharString>
        <CharString name="Fdotaccent">
          1217 673 -32 callsubr
          -40 callsubr
          490 -110 rmoveto
          -1107 -76 callsubr
          -107 callsubr
          127 callsubr
          197 callsubr
        </CharString>
        <CharString name="G">
          1578 87 721 -17 callsubr
        </CharString>
        <CharString name="Gacute">
          1578 824 -27 callsubr
          -95 callgsubr
          -652 -818 -17 callsubr
        </CharString>
        <CharString name="Gammagreek">
          1207 1150 1444 rmoveto
          -1094 -76 callsubr
          -107 callsubr
          126 callsubr
          1152 vlineto
          167 -6 251 -9 74 -52 52 -228 rlinecurve
          65 hlineto
          endchar
        </CharString>
        <CharString name="Gbreve">
          1578 871 1571 rmoveto
          60 callsubr
          -3 hlineto
          -91 -90 -62 -129 -127 -91 63 90 vhcurveto
          3 -73 vlineto
          -3 -16 70 callsubr
          -784 -850 -17 callsubr
        </CharString>
        <CharString name="Gcaron">
          1578 1115 -75 callsubr
          101 callsubr
          -1111 -1125 -17 callsubr
        </CharString>
        <CharString name="Gcircumflex">
          1578 656 -74 callsubr
          51 callsubr
          -486 -817 -17 callsubr
        </CharString>
        <CharString name="Gcommaaccent">
          1578 87 721 rmoveto
          -451 331 -296 459 212 210 53 85 120 vhcurveto
          398 vlineto
          88 19 22 117 14 vhcurveto
          67 -596 -67 vlineto
          127 -14 19 -22 -87 vvcurveto
          -388 vlineto
          -33 -41 -74 -23 -88 hhcurveto
          -269 -154 304 367 383 157 256 274 205 135 -150 -237 54 hvcurveto
          64 hlineto
          -10 383 rlineto
          57 -85 -168 40 -217 hhcurveto
          -450 -351 -267 -482 hvcurveto
          766 -1189 9 callsubr
          18 8 31 7 31 -1 rrcurveto
          59 -1 45 -24 -44 vvcurveto
          -45 -42 -26 -65 -54 -52 17 23 -31 vhcurveto
          -1 -61 rlineto
          -45 39 80 -33 95 hhcurveto
          endchar
        </CharString>
        <CharString name="Gdotaccent">
          1578 871 19 callsubr
          -77 -63 2 callsubr
          -784 -833 -17 callsubr
        </CharString>
        <CharString name="Geacutecyrillic">
          1207 587 -21 callsubr
          648 -95 rmoveto
          -1094 -76 callsubr
          -107 callsubr
          126 callsubr
          40 callgsubr
        </CharString>
        <CharString name="Gecyrillic">
          1207 1150 1444 rmoveto
          -1094 -76 callsubr
          -107 callsubr
          126 callsubr
          40 callgsubr
        </CharString>
        <CharString name="Germandbls">
          1562 554 hmoveto
          1366 vlineto
          178 -7 rlineto
          258 -10 108 -116 -149 vvcurveto
          -132 -80 -84 -143 -21 vhcurveto
          -221 vlineto
          209 -52 110 -127 -165 vvcurveto
          -136 -74 -79 -110 -130 -100 131 206 -35 vhcurveto
          -64 -351 hlineto
          -40 60 126 -37 154 hhcurveto
          233 232 136 273 232 -137 182 -222 64 hvcurveto
          180 16 123 98 148 vvcurveto
          191 -183 128 -416 vhcurveto
          -775 -67 hlineto
          123 -18 20 -23 -88 vvcurveto
          -1052 vlineto
          -88 -20 -23 -123 -18 vhcurveto
          -67 vlineto
          endchar
        </CharString>
        <CharString name="Geupturncyrillic">
          1178 1124 1360 rmoveto
          10 414 rlineto
          -69 hlineto
          -279 -80 -57 -51 -252 hhcurveto
          -620 -76 callsubr
          -107 callsubr
          126 callsubr
          1146 vlineto
          endchar
        </CharString>
        <CharString name="Gmacron">
          1578 580 122 callsubr
          -493 -1021 -17 callsubr
        </CharString>
        <CharString name="H">
          14 callsubr
          -55 callsubr
          -48 callsubr
        </CharString>
        <CharString name="Hacyrillic">
          1439 282 304 38 callsubr
        </CharString>
        <CharString name="Hardsigncyrillic">
          1656 1588 151 callsubr
          -898 vlineto
          -12 -373 rlineto
          64 hlineto
          45 230 69 50 211 12 11 1 rcurveline
          -1154 vlineto
          -96 -22 -28 -131 -19 vhcurveto
          -67 699 211 callsubr
          -210 -99 101 callgsubr
          206 -3 118 -131 -217 vvcurveto
          endchar
        </CharString>
        <CharString name="Hbar">
          14 callsubr
          833 144 81 -144 130 vlineto
          91 22 -48 callgsubr
          19 -21 -87 vvcurveto
          -137 -579 137 vlineto
          85 21 22 114 18 vhcurveto
          68 -633 29 callsubr
          -130 -144 -81 144 -833 31 callsubr
          -44 callsubr
          587 vmoveto
          253 579 -253 vlineto
          endchar
        </CharString>
        <CharString name="Hbrevebelow">
          14 callsubr
          -55 callsubr
          -44 callsubr
          290 -646 rmoveto
          201 103 136 141 20 -1 19 -4 16 hvcurveto
          -72 -4 hlineto
          -91 -93 -63 -134 -132 -95 64 90 vhcurveto
          4 -72 vlineto
          -3 -17 -1 -18 -20 vvcurveto
          -141 102 -136 201 vhcurveto
          endchar
        </CharString>
        <CharString name="Hcaron">
          1688 1089 1846 rmoveto
          -230 -140 -229 140 210 callsubr
          -617 -1653 30 callsubr
          24 callsubr
          -55 callsubr
          -48 callsubr
        </CharString>
        <CharString name="Hcedilla">
          1688 340 95 callsubr
          270 67 hlineto
          -114 19 -21 22 85 vvcurveto
          503 579 -503 vlineto
          -87 24 callsubr
          -55 callsubr
          279 vlineto
          -132 -162 1 -55 rlineto
          4 9 20 3 17 hhcurveto
          62 44 5 callgsubr
        </CharString>
        <CharString name="Hcircumflex">
          1688 629 1538 rmoveto
          230 139 229 -139 85 0 -211 294 -204 0 -211 -294 rlineto
          7 -1345 30 callsubr
          24 callsubr
          -55 callsubr
          -48 callsubr
        </CharString>
        <CharString name="Hdieresis">
          1688 670 1560 rmoveto
          72 58 54 72 73 -58 53 -72 -73 -58 -53 -73 -72 58 -54 73 hvcurveto
          349 hmoveto
          58 callgsubr
          -465 -1367 30 callsubr
          24 callsubr
          -55 callsubr
          -48 callsubr
        </CharString>
        <CharString name="Hdotaccent">
          1688 844 1554 rmoveto
          78 62 56 76 75 -62 56 -78 -77 -62 -56 -75 -76 62 -56 77 hvcurveto
          -290 -1361 30 callsubr
          24 callsubr
          -55 callsubr
          -48 callsubr
        </CharString>
        <CharString name="Hdotbelow">
          14 callsubr
          -55 callsubr
          -44 callsubr
          290 -348 -59 callsubr
          -20 callsubr
        </CharString>
        <CharString name="I">
          754 554 -67 callsubr
          -73 callsubr
          -99 callsubr
          -107 callsubr
          -84 callsubr
        </CharString>
        <CharString name="IAcyrillic">
          1464 131 1025 rmoveto
          -190 130 -111 174 -43 vhcurveto
          -209 -364 -112 -190 -33 -40 -63 -23 rlinecurve
          -64 385 vlineto
          356 637 rlineto
          144 -444 hlineto
          -84 -19 -22 -115 -20 vhcurveto
          -67 633 67 vlineto
          -122 21 -22 23 89 vvcurveto
          1044 vlineto
          90 22 23 122 19 vhcurveto
          68 -685 vlineto
          -393 -193 -166 -253 hvcurveto
          359 15 rmoveto
          199 111 116 209 8 vhcurveto
          93 3 0 -651 -98 2 rlineto
          -184 4 -131 119 200 vvcurveto
          endchar
        </CharString>
        <CharString name="IJ">
          1508 554 -67 callsubr
          -73 callsubr
          -99 callsubr
          -107 callsubr
          65 callsubr
          754 75 rmoveto
          969 -39 callsubr
          -99 callsubr
          5 callsubr
        </CharString>
        <CharString name="IJacute">
          1508 330 -27 callsubr
          -94 callgsubr
          839 -1 rmoveto
          375 288 rlineto
          7 -335 vlineto
          -124 -294 rlineto
          -446 -1339 -81 callsubr
          -99 callsubr
          -107 callsubr
          65 callsubr
          754 75 rmoveto
          969 -39 callsubr
          -99 callsubr
          5 callsubr
        </CharString>
        <CharString name="IUcyrillic">
          2360 554 193 rmoveto
          503 201 vlineto
          -442 12 332 -280 415 hhcurveto
          458 301 327 424 1 hvcurveto
          455 -338 290 -422 -437 -293 -296 -394 -27 vhcurveto
          -203 471 hlineto
          85 21 22 114 18 vhcurveto
          68 -633 29 callsubr
          -107 callsubr
          -44 callsubr
          969 -126 rmoveto
          -235 -143 277 391 380 105 262 255 235 144 -276 -392 -1 hvcurveto
          -379 -106 -263 -254 vhcurveto
          endchar
        </CharString>
        <CharString name="Iacute">
          754 330 -27 callsubr
          -94 callgsubr
          309 -1339 -81 callsubr
          -99 callsubr
          -107 callsubr
          -84 callsubr
        </CharString>
        <CharString name="Ibreve">
          754 377 1571 rmoveto
          60 callsubr
          71 callsubr
          70 callsubr
          177 -1371 -81 callsubr
          -99 callsubr
          -107 callsubr
          -84 callsubr
        </CharString>
        <CharString name="Icaron">
          754 621 -75 callsubr
          -228 139 -85 0 211 -294 203 0 212 294 rlineto
          -150 -1646 -81 callsubr
          -99 callsubr
          -107 callsubr
          -84 callsubr
        </CharString>
        <CharString name="Icircumflex">
          754 162 -74 callsubr
          229 -140 84 0 -211 -107 callgsubr
          474 -1338 -81 callsubr
          -99 callsubr
          -107 callsubr
          -84 callsubr
        </CharString>
        <CharString name="Icyrillic">
          754 554 -67 callsubr
          -73 callsubr
          -99 callsubr
          -107 callsubr
          -84 callsubr
        </CharString>
        <CharString name="Idblgrave">
          754 207 1833 rmoveto
          -295 156 callsubr
          88 hlineto
          -62 -1338 -81 callsubr
          -99 callsubr
          -107 callsubr
          -84 callsubr
        </CharString>
        <CharString name="Idieresis">
          754 202 -25 callsubr
          -56 callsubr
          350 hmoveto
          -79 callgsubr
          2 -1361 -81 callsubr
          -99 callsubr
          -107 callsubr
          -84 callsubr
        </CharString>
        <CharString name="Idieresisacute">
          754 688 1863 -30 callgsubr
          150 -225 rmoveto
          -64 callsubr
          346 hmoveto
          59 48 38 54 53 -48 39 -59 hvcurveto
          -12 -3 callsubr
          16 -1354 -81 callsubr
          -99 callsubr
          -107 callsubr
          -84 callsubr
        </CharString>
        <CharString name="Idotaccent">
          754 377 1554 rmoveto
          77 63 56 76 76 -63 -35 callgsubr
          177 -1354 -81 callsubr
          -99 callsubr
          -107 callsubr
          -84 callsubr
        </CharString>
        <CharString name="Idotbelow">
          754 554 -67 callsubr
          -73 callsubr
          -99 callsubr
          -107 callsubr
          65 callsubr
          -174 -355 -59 callsubr
          -20 callsubr
        </CharString>
        <CharString name="Iecyrillic">
          1309 1191 1444 -93 callsubr
        </CharString>
        <CharString name="Igrave">
          754 453 108 callsubr
          479 -1625 -81 callsubr
          -99 callsubr
          -107 callsubr
          -84 callsubr
        </CharString>
        <CharString name="Ihookabove">
          754 412 1879 64 callgsubr
          -5 callsubr
          142 -1679 -81 callsubr
          -99 callsubr
          -107 callsubr
          -84 callsubr
        </CharString>
        <CharString name="Iicyrillic">
          1711 554 193 rmoveto
          58 vlineto
          603 814 rlineto
          -872 vlineto
          -87 -20 -46 callgsubr
          -21 22 91 vvcurveto
          1044 vlineto
          91 21 -48 callgsubr
          20 -21 -87 vvcurveto
          -58 vlineto
          -603 -814 rlineto
          872 vlineto
          85 21 22 114 18 vhcurveto
          68 -633 29 callsubr
          -107 callsubr
          -48 callsubr
        </CharString>
        <CharString name="Iinvertedbreve">
          754 377 1893 rmoveto
          -195 -102 -132 -136 -19 2 -19 3 -23 callgsubr
          154 callsubr
          177 -1693 -81 callsubr
          -99 callsubr
          -107 callsubr
          -84 callsubr
        </CharString>
        <CharString name="Iishortcyrillic">
          1711 855 192 callsubr
          -301 -1375 rmoveto
          58 vlineto
          603 814 rlineto
          -872 vlineto
          -87 -20 -46 callgsubr
          -21 22 91 vvcurveto
          1044 vlineto
          91 21 -48 callgsubr
          20 -21 -87 vvcurveto
          -58 vlineto
          -603 -814 rlineto
          872 vlineto
          85 21 22 114 18 vhcurveto
          68 -633 29 callsubr
          -107 callsubr
          -48 callsubr
        </CharString>
        <CharString name="Imacron">
          754 86 -29 callsubr
          468 -1542 -81 callsubr
          -99 callsubr
          -107 callsubr
          -84 callsubr
        </CharString>
        <CharString name="Iocyrillic">
          1309 516 -25 callsubr
          -56 callsubr
          350 hmoveto
          -79 callgsubr
          325 -117 -93 callsubr
        </CharString>
        <CharString name="Iogonek">
          754 554 -67 callsubr
          -73 callsubr
          -99 callsubr
          -107 callsubr
          296 -22 callgsubr
          94 -78 123 -68 callgsubr
          -72 -63 82 111 52 12 47 20 31 hvcurveto
          265 67 hlineto
          -93 callgsubr
        </CharString>
        <CharString name="Iotadieresisgreek">
          754 202 -25 callsubr
          -56 callsubr
          350 hmoveto
          -79 callgsubr
          2 -1361 -81 callsubr
          -99 callsubr
          -107 callsubr
          -84 callsubr
        </CharString>
        <CharString name="Iotagreek">
          754 554 -67 callsubr
          -73 callsubr
          -99 callsubr
          -107 callsubr
          -84 callsubr
        </CharString>
        <CharString name="Iotatonosgreek">
          1103 903 -67 callsubr
          -73 callsubr
          125 callsubr
          124 callsubr
          643 67 vlineto
          -123 20 -21 23 90 vvcurveto
          -809 862 -19 callsubr
          32 callsubr
        </CharString>
        <CharString name="Itilde">
          754 500 1550 rmoveto
          109 -26 callgsubr
          88 callsubr
          47 -21 58 hhcurveto
          54 -1350 -81 callsubr
          -99 callsubr
          -107 callsubr
          -84 callsubr
        </CharString>
        <CharString name="Itildebelow">
          754 554 -67 callsubr
          -73 callsubr
          -99 callsubr
          -107 callsubr
          65 callsubr
          -52 -623 131 callsubr
          -2 -25 -32 -45 115 callsubr
          121 callsubr
          3 24 32 44 hhcurveto
          30 81 callgsubr
        </CharString>
        <CharString name="J">
          754 554 275 rmoveto
          969 -39 callsubr
          -99 callsubr
          5 callsubr
        </CharString>
        <CharString name="Jacute">
          754 330 -70 callsubr
          308 -1264 rmoveto
          969 -39 callsubr
          -99 callsubr
          5 callsubr
        </CharString>
        <CharString name="Jcircumflex">
          754 162 -74 callsubr
          229 -140 85 0 -212 -107 callgsubr
          474 -1263 rmoveto
          969 -39 callsubr
          -99 callsubr
          5 callsubr
        </CharString>
        <CharString name="Jecyrillic">
          754 554 275 rmoveto
          969 -39 callsubr
          -99 callsubr
          5 callsubr
        </CharString>
        <CharString name="K">
          1479 554 193 3 callsubr
        </CharString>
        <CharString name="Kaacutecyrillic">
          1479 757 -21 callsubr
          -118 -1346 3 callsubr
        </CharString>
        <CharString name="Kacute">
          1479 757 -21 callsubr
          -118 -1346 3 callsubr
        </CharString>
        <CharString name="Kacyrillic">
          1479 554 193 3 callsubr
        </CharString>
        <CharString name="Kappagreek">
          1479 554 193 3 callsubr
        </CharString>
        <CharString name="Kcaron">
          1479 1048 -75 callsubr
          167 callsubr
          -576 -1653 3 callsubr
        </CharString>
        <CharString name="Kcommaaccent">
          133 callsubr
          236 -661 rmoveto
          149 104 70 113 112 -93 68 -125 -90 -68 111 callsubr
          32 callgsubr
          95 hhcurveto
          endchar
        </CharString>
        <CharString name="Kdotbelow">
          133 callsubr
          250 -348 -82 callsubr
        </CharString>
        <CharString name="Klinebelow">
          133 callsubr
          -51 -557 -69 callsubr
        </CharString>
        <CharString name="L">
          15 callsubr
          endchar
        </CharString>
        <CharString name="Lacute">
          1216 331 -21 callsubr
          916 -1539 rmoveto
          -10 callsubr
          12 callsubr
          endchar
        </CharString>
        <CharString name="Lambdagreek">
          1464 1272 270 rmoveto
          -414 1176 -252 0 -408 -1167 -58 -165 -37 -31 -104 -16 rlinecurve
          -67 425 67 vlineto
          -144 20 -18 41 49 155 rrcurveto
          291 888 295 -903 47 -146 -32 -36 -129 -19 rlinecurve
          -67 682 67 vlineto
          -97 16 -41 29 -55 158 rrcurveto
          endchar
        </CharString>
        <CharString name="Lcaron">
          1216 948 1137 rmoveto
          217 416 -240 0 -45 -416 rlineto
          282 -1137 rmoveto
          -10 callsubr
          12 callsubr
          endchar
        </CharString>
        <CharString name="Lcircumflexbelow">
          15 callsubr
          363 -459 -12 callsubr
        </CharString>
        <CharString name="Lcommaaccent">
          15 callsubr
          578 -468 9 callsubr
          18 8 31 49 callsubr
        </CharString>
        <CharString name="Ldot">
          15 callsubr
          875 685 rmoveto
          91 73 65 90 89 -73 66 -91 -90 -74 -66 -89 -90 73 -65 91 hvcurveto
          endchar
        </CharString>
        <CharString name="Ldotbelow">
          15 callsubr
          592 -155 -82 callsubr
        </CharString>
        <CharString name="Ldotbelowmacron">
          1216 87 122 callsubr
          1075 -1742 rmoveto
          -10 callsubr
          12 callsubr
          592 -155 -82 callsubr
        </CharString>
        <CharString name="Ljecyrillic">
          2146 24 callgsubr
          399 -1160 hlineto
          -91 -22 -22 -122 -20 vhcurveto
          -67 691 vlineto
          384 215 182 262 276 -233 154 -373 hvcurveto
          -185 356 hlineto
          98 22 30 133 19 vhcurveto
          67 -1195 -67 vlineto
          151 -19 34 -45 2 callgsubr
          1697 298 rmoveto
          -210 -98 101 callgsubr
          205 -3 118 -131 -217 vvcurveto
          endchar
        </CharString>
        <CharString name="Llinebelow">
          15 callsubr
          291 -364 -69 callsubr
        </CharString>
        <CharString name="Lslash">
          1216 56 624 rmoveto
          144 38 rlineto
          -462 31 callsubr
          1106 vlineto
          -10 callsubr
          rrcurveto
          -157 -6 0 678 329 87 0 86 -329 -87 rlineto
          394 7 callgsubr
          -496 vlineto
          -144 -38 rlineto
          endchar
        </CharString>
        <CharString name="M">
          1882 595 1444 40 callsubr
        </CharString>
        <CharString name="Macute">
          1882 889 -70 callsubr
          -210 -95 40 callsubr
        </CharString>
        <CharString name="Mdotaccent">
          1882 936 -32 callsubr
          -40 callsubr
          -341 -110 40 callsubr
        </CharString>
        <CharString name="Mdotbelow">
          1882 595 1444 rmoveto
          -529 -67 hlineto
          114 -18 27 -35 -4 -103 rrcurveto
          -31 -967 -6 -137 -19 -32 -121 -18 rlinecurve
          -67 407 68 vlineto
          -125 19 -18 31 138 vvcurveto
          3 988 434 -1244 185 0 97 336 314 907 26 -1047 3 -89 -23 -23 -118 -17 rlinecurve
          -67 636 67 vlineto
          -124 18 -19 23 -3 92 rrcurveto
          -30 1044 -2 91 24 24 121 18 rlinecurve
          67 vlineto
          -534 1 -328 -1044 rlineto
          -135 -556 -82 callsubr
        </CharString>
        <CharString name="Mugreek">
          1882 595 1444 40 callsubr
        </CharString>
        <CharString name="N">
          1515 -26 callsubr
          -1 callsubr
          endchar
        </CharString>
        <CharString name="Nacute">
          1515 743 -70 callsubr
          -111 -95 -15 callsubr
          -1 callsubr
          endchar
        </CharString>
        <CharString name="Ncaron">
          1515 1034 1846 rmoveto
          -229 -139 11 callsubr
          -569 -402 -15 callsubr
          -1 callsubr
          endchar
        </CharString>
        <CharString name="Ncircumflexbelow">
          1515 -26 callsubr
          -1 callsubr
          -747 -794 rmoveto
          229 29 callgsubr
        </CharString>
        <CharString name="Ncommaaccent">
          1515 -26 callsubr
          -1 callsubr
          -533 -803 -30 callsubr
          -89 -68 111 callsubr
          36 callsubr
          -64 -54 -53 17 23 -30 vhcurveto
          -1 -61 rlineto
          -45 39 80 -33 94 hhcurveto
          endchar
        </CharString>
        <CharString name="Ndotaccent">
          1515 790 -32 callsubr
          -40 callsubr
          -242 -110 -15 callsubr
          -1 callsubr
          endchar
        </CharString>
        <CharString name="Ndotbelow">
          1515 -26 callsubr
          -1 callsubr
          -518 -490 -59 callsubr
          -20 callsubr
        </CharString>
        <CharString name="Ngrave">
          1515 866 1538 rmoveto
          84 hlineto
          -114 295 rlineto
          -348 -8 hlineto
          60 -381 -15 callsubr
          -1 callsubr
          endchar
        </CharString>
        <CharString name="Njecyrillic">
          2276 554 193 rmoveto
          546 506 -546 vlineto
          -85 -20 -22 -114 -19 vhcurveto
          -67 682 vlineto
          386 213 170 248 261 -234 144 -372 hvcurveto
          -186 407 hlineto
          98 23 30 133 19 vhcurveto
          67 -645 -68 vlineto
          114 -18 20 -22 -85 vvcurveto
          -427 -506 427 vlineto
          85 21 22 114 18 vhcurveto
          68 -633 29 callsubr
          -107 callsubr
          -44 callsubr
          1280 221 rmoveto
          -196 -99 -127 -218 -8 vhcurveto
          -102 -3 0 661 95 -2 rlineto
          205 -3 119 -121 -201 vvcurveto
          endchar
        </CharString>
        <CharString name="Nlinebelow">
          1515 -26 callsubr
          -1 callsubr
          -819 -699 -69 callsubr
        </CharString>
        <CharString name="Ntilde">
          1515 914 -55 callgsubr
          -37 hvcurveto
          -29 19 rlineto
          37 -55 -47 21 -59 hhcurveto
          -108 -80 -80 -208 8 hvcurveto
          77 hlineto
          89 2 25 32 44 hhcurveto
          29 25 118 callsubr
          -366 -106 -15 callsubr
          -1 callsubr
          endchar
        </CharString>
        <CharString name="Nugreek">
          1515 -26 callsubr
          -1 callsubr
          endchar
        </CharString>
        <CharString name="O">
          0 callsubr
          55 callsubr
          -104 callsubr
          -105 callsubr
          -101 callsubr
        </CharString>
        <CharString name="OE">
          2116 87 718 rmoveto
          -438 346 -305 428 vhcurveto
          144 113 25 142 hhcurveto
          785 hlineto
          13 433 rlineto
          -63 hlineto
          -62 -276 -72 -59 -267 -12 rrcurveto
          -207 -8 0 622 199 -4 110 -4 29 -46 29 -158 rlinecurve
          60 500 -60 hlineto
          -31 -158 -28 -45 -109 -5 rrcurveto
          -199 -3 0 589 182 -7 256 -12 74 -61 57 -235 rlinecurve
          63 hlineto
          -12 393 rlineto
          -742 hlineto
          -153 -89 25 -149 hhcurveto
          -480 -307 -324 -427 hvcurveto
          379 5 rmoveto
          380 149 274 286 49 46 -8 -15 36 vhcurveto
          -1266 vlineto
          -14 -39 -49 -6 -49 hhcurveto
          -264 -165 270 385 hvcurveto
          endchar
        </CharString>
        <CharString name="Oacute">
          1706 802 -70 callsubr
          -631 -819 -102 callsubr
          -104 callsubr
          -105 callsubr
          -101 callsubr
        </CharString>
        <CharString name="Obreve">
          1706 850 1571 rmoveto
          194 128 callsubr
          -73 -3 hlineto
          -91 -91 106 callgsubr
          -1 -84 callgsubr
          195 vhcurveto
          -763 -851 -102 callsubr
          -104 callsubr
          -105 callsubr
          -101 callsubr
        </CharString>
        <CharString name="Ocaron">
          1706 1094 -75 callsubr
          11 callsubr
          -1089 -1126 -102 callsubr
          -104 callsubr
          -105 callsubr
          -101 callsubr
        </CharString>
        <CharString name="Ocircumflex">
          1706 635 1538 rmoveto
          229 140 35 callsubr
          -465 -818 -102 callsubr
          -104 callsubr
          -105 callsubr
          -101 callsubr
        </CharString>
        <CharString name="Ocircumflexacute">
          1706 1160 1843 -29 callgsubr
          -261 vmoveto
          -34 callsubr
          -452 -836 -102 callsubr
          -104 callsubr
          -105 callsubr
          -101 callsubr
        </CharString>
        <CharString name="Ocircumflexdotbelow">
          1706 635 1538 rmoveto
          229 140 35 callsubr
          -465 -818 -102 callsubr
          -104 callsubr
          -105 callsubr
          260 97 callsubr
          379 -890 -82 callsubr
        </CharString>
        <CharString name="Ocircumflexgrave">
          1706 539 1843 -32 callgsubr
          -496 vmoveto
          -34 callsubr
          -452 -836 -102 callsubr
          -104 callsubr
          -105 callsubr
          -101 callsubr
        </CharString>
        <CharString name="Ocircumflexhookabove">
          1706 1112 1951 rmoveto
          -83 -68 25 callgsubr
          58 -35 rlineto
          138 23 75 42 77 vvcurveto
          75 -86 47 -107 vhcurveto
          -573 -453 rmoveto
          -34 callsubr
          -452 -836 -102 callsubr
          -104 callsubr
          -105 callsubr
          -101 callsubr
        </CharString>
        <CharString name="Ocircumflextilde">
          1706 977 1789 rmoveto
          113 72 65 122 -1 hvcurveto
          -78 hlineto
          -47 -1 -28 -20 -48 hhcurveto
          -29 -31 7 12 -65 callgsubr
          -122 1 hvcurveto
          78 hlineto
          47 1 27 20 49 hhcurveto
          29 31 -7 -12 40 -105 callgsubr
          -438 -291 rmoveto
          -34 callsubr
          -452 -836 -102 callsubr
          -104 callsubr
          -105 callsubr
          -101 callsubr
        </CharString>
        <CharString name="Ocyrillic">
          0 callsubr
          55 callsubr
          -104 callsubr
          -105 callsubr
          -101 callsubr
        </CharString>
        <CharString name="Odblgrave">
          1706 679 146 callsubr
          -1001 -818 -102 callsubr
          -104 callsubr
          -105 callsubr
          -101 callsubr
        </CharString>
        <CharString name="Odieresis">
          1706 675 1561 rmoveto
          -79 callgsubr
          350 hmoveto
          105 callsubr
          -938 -841 -102 callsubr
          -104 callsubr
          -105 callsubr
          -101 callsubr
        </CharString>
        <CharString name="Odieresismacron">
          1706 538 160 callsubr
          -11 -3 callsubr
          345 hmoveto
          -64 callsubr
          -923 -834 -102 callsubr
          -104 callsubr
          -105 callsubr
          -101 callsubr
        </CharString>
        <CharString name="Odotaccent">
          1706 850 19 callsubr
          -78 -62 2 callsubr
          -763 -834 -102 callsubr
          -104 callsubr
          -105 callsubr
          -101 callsubr
        </CharString>
        <CharString name="Odotaccentmacron">
          1706 538 1812 rmoveto
          623 119 -623 hlineto
          312 -386 rmoveto
          64 51 43 58 58 -51 42 -64 -65 -51 -42 -58 -58 51 -43 65 hvcurveto
          -763 -825 -102 callsubr
          -104 callsubr
          -105 callsubr
          -101 callsubr
        </CharString>
        <CharString name="Odotbelow">
          0 callsubr
          55 callsubr
          -104 callsubr
          -105 callsubr
          260 97 callsubr
          379 -890 -82 callsubr
        </CharString>
        <CharString name="Ograve">
          1706 926 -27 callgsubr
          -461 -1105 -102 callsubr
          -104 callsubr
          -105 callsubr
          -101 callsubr
        </CharString>
        <CharString name="Ohookabove">
          1706 885 -41 callgsubr
          171 58 66 59 76 vvcurveto
          82 -76 56 -111 vhcurveto
          -798 -1159 -102 callsubr
          -104 callsubr
          -105 callsubr
          -101 callsubr
        </CharString>
        <CharString name="Ohorn">
          1731 87 720 -102 callsubr
          41 callsubr
        </CharString>
        <CharString name="Ohornacute">
          1731 805 -27 callsubr
          -94 callgsubr
          -633 -819 -102 callsubr
          41 callsubr
        </CharString>
        <CharString name="Ohorndotbelow">
          1731 87 720 -102 callsubr
          307 -163 237 -234 115 vhcurveto
          -8 40 43 -5 43 hhcurveto
          170 116 64 125 1 hvcurveto
          1 103 -81 97 -118 48 rrcurveto
          -67 hlineto
          22 -27 17 -58 -54 vvcurveto
          -127 -1 -82 -96 -157 -97 -98 24 -123 62 callgsubr
          97 callsubr
          377 -890 -59 callsubr
          76 63 75 callsubr
        </CharString>
        <CharString name="Ohorngrave">
          1731 928 108 callsubr
          -463 -1105 -102 callsubr
          41 callsubr
        </CharString>
        <CharString name="Ohornhookabove">
          1731 887 1879 rmoveto
          -107 -78 -51 -57 -37 hvcurveto
          -50 vlineto
          21 26 168 callsubr
          -5 callsubr
          -800 -1159 -102 callsubr
          41 callsubr
        </CharString>
        <CharString name="Ohorntilde">
          1731 975 1550 rmoveto
          109 -26 callgsubr
          88 callsubr
          47 -21 58 hhcurveto
          -888 -830 -102 callsubr
          41 callsubr
        </CharString>
        <CharString name="Ohungarumlaut">
          1706 680 1833 rmoveto
          -31 -295 86 0 214 288 rlineto
          7 vlineto
          109 hmoveto
          -124 -39 callgsubr
          -1265 -1113 -102 callsubr
          -104 callsubr
          -105 callsubr
          -101 callsubr
        </CharString>
        <CharString name="Oinvertedbreve">
          1706 849 1893 rmoveto
          -74 callgsubr
          128 91 -63 -89 vhcurveto
          -4 73 91 callgsubr
          -762 -1173 -102 callsubr
          -104 callsubr
          -105 callsubr
          -101 callsubr
        </CharString>
        <CharString name="Omacron">
          1706 558 -29 callsubr
          -471 -1022 -102 callsubr
          -104 callsubr
          -105 callsubr
          -101 callsubr
        </CharString>
        <CharString name="Omacronacute">
          1706 1160 1863 rmoveto
          151 vlineto
          -621 -178 rlineto
          -56 vlineto
          -1 -194 rmoveto
          623 120 -623 hlineto
          -451 -986 -102 callsubr
          -104 callsubr
          -105 callsubr
          -101 callsubr
        </CharString>
        <CharString name="Omacrongrave">
          1706 539 94 callgsubr
          -1 -428 rmoveto
          623 120 -623 hlineto
          -451 -986 -102 callsubr
          -104 callsubr
          -105 callsubr
          -101 callsubr
        </CharString>
        <CharString name="Omegagreek">
          1614 83 hmoveto
          632 344 hlineto
          -197 67 -97 80 callgsubr
          144 -199 -325 -268 -101 -3 callgsubr
          340 41 234 223 313 vvcurveto
          331 -282 267 -464 -465 -278 -268 -342 -309 239 -222 336 -34 vhcurveto
          -96 vlineto
          -302 3 -175 48 -72 167 rrcurveto
          -54 hlineto
          endchar
        </CharString>
        <CharString name="Omegatonosgreek">
          1790 260 hmoveto
          631 344 hlineto
          -196 67 -98 80 callgsubr
          145 -199 -325 -268 -102 -3 callgsubr
          341 41 233 223 313 vvcurveto
          331 -282 267 -464 -464 -279 -268 -342 1 vhcurveto
          -309 238 -222 336 -34 vhcurveto
          -96 vlineto
          -302 3 -174 48 -73 167 rrcurveto
          -54 hlineto
          -113 647 -19 callsubr
          32 callsubr
        </CharString>
        <CharString name="Omicrongreek">
          0 callsubr
          55 callsubr
          -104 callsubr
          -105 callsubr
          -101 callsubr
        </CharString>
        <CharString name="Omicrontonosgreek">
          1819 199 720 rmoveto
          -453 340 -293 428 462 303 330 421 -104 callsubr
          -105 342 -19 callsubr
          -286 vlineto
          -44 -382 rlineto
          586 -327 rmoveto
          377 108 265 259 237 145 -279 -389 -377 -107 -265 -259 -238 -145 280 388 vhcurveto
          endchar
        </CharString>
        <CharString name="Oogonek">
          0 callsubr
          -439 319 -288 410 -18 vhcurveto
          -98 -66 -67 -95 -100 vvcurveto
          -119 94 -78 124 -68 callgsubr
          -73 -62 77 106 45 10 41 16 30 hvcurveto
          433 23 281 320 406 vvcurveto
          -104 callsubr
          -105 callsubr
          -101 callsubr
        </CharString>
        <CharString name="Oogonekmacron">
          1706 558 -29 callsubr
          -471 -1022 rmoveto
          -439 319 -288 410 -18 vhcurveto
          -98 -66 -67 -95 -100 vvcurveto
          -119 94 -78 124 -68 callgsubr
          -73 -62 77 106 45 10 41 16 30 hvcurveto
          433 23 281 320 406 vvcurveto
          -104 callsubr
          -105 callsubr
          -101 callsubr
        </CharString>
        <CharString name="Oslash">
          0 callsubr
          170 callsubr
        </CharString>
        <CharString name="Oslashacute">
          1706 802 -70 callsubr
          -631 -819 rmoveto
          170 callsubr
        </CharString>
        <CharString name="Otilde">
          1706 973 -40 callgsubr
          -24 -106 callgsubr
          19 rlineto
          37 50 callsubr
          44 hhcurveto
          29 24 118 callsubr
          -886 -830 -102 callsubr
          -104 callsubr
          -105 callsubr
          -101 callsubr
        </CharString>
        <CharString name="Otildeacute">
          1706 1160 1863 -29 callgsubr
          438 -220 rmoveto
          113 72 65 121 -1 hvcurveto
          -78 hlineto
          84 callsubr
          -890 -839 -102 callsubr
          -104 callsubr
          -105 callsubr
          -101 callsubr
        </CharString>
        <CharString name="Otildedieresis">
          1706 688 -13 callgsubr
          -33 -246 rmoveto
          113 72 65 121 -1 hvcurveto
          -78 hlineto
          84 callsubr
          -890 -839 -102 callsubr
          -104 callsubr
          -105 callsubr
          -101 callsubr
        </CharString>
        <CharString name="Otildemacron">
          1706 538 1837 rmoveto
          623 119 -623 hlineto
          439 -397 rmoveto
          113 72 65 121 -1 hvcurveto
          -78 hlineto
          84 callsubr
          -890 -839 -102 callsubr
          -104 callsubr
          -105 callsubr
          -101 callsubr
        </CharString>
        <CharString name="P">
          1427 1351 1020 42 callsubr
        </CharString>
        <CharString name="Pacute">
          1427 647 -70 callsubr
          788 -519 42 callsubr
        </CharString>
        <CharString name="Pdotaccent">
          1427 694 -32 callsubr
          -40 callsubr
          657 -534 42 callsubr
        </CharString>
        <CharString name="Pecyrillic">
          1677 1477 -67 callsubr
          -73 callsubr
          -1565 29 callsubr
          -107 callsubr
          -44 callsubr
          1167 568 -1167 vlineto
          -85 -20 -22 -114 -19 vhcurveto
          -67 633 67 vlineto
          -93 callgsubr
        </CharString>
        <CharString name="Phigreek">
          1937 71 720 rmoveto
          -318 278 -182 454 -12 vhcurveto
          -1 -94 -25 -29 -129 -18 rrcurveto
          -67 642 67 vlineto
          -130 18 -24 29 -2 94 rrcurveto
          440 12 292 175 325 vvcurveto
          321 -289 180 -443 13 vhcurveto
          94 23 30 133 19 vhcurveto
          67 -642 -67 vlineto
          130 -18 24 -30 1 -95 rrcurveto
          -429 -12 -303 -173 -329 vvcurveto
          1436 1 rmoveto
          -251 -146 -160 -227 -21 vhcurveto
          864 vlineto
          243 -19 130 -162 -251 vvcurveto
          -1077 4 rmoveto
          246 142 162 231 20 vhcurveto
          -864 vlineto
          -237 20 -136 160 256 vvcurveto
          endchar
        </CharString>
        <CharString name="Pigreek">
          1649 1449 -67 callsubr
          22 23 122 20 vhcurveto
          67 -1537 29 callsubr
          -107 callsubr
          -44 callsubr
          1167 541 -1167 vlineto
          -85 -21 -22 -114 -19 vhcurveto
          -67 633 67 vlineto
          -122 20 -22 23 90 vvcurveto
          endchar
        </CharString>
        <CharString name="Psigreek">
          1898 1115 214 rmoveto
          289 vlineto
          345 13 181 124 50 344 rrcurveto
          31 219 18 124 33 33 91 4 rlinecurve
          68 vlineto
          5 -32 -66 7 -60 hhcurveto
          -176 -92 -67 -207 -31 hvcurveto
          -34 -226 -35 -235 -62 -101 -161 -20 rlinecurve
          663 vlineto
          86 21 22 113 17 vhcurveto
          68 -600 -68 vlineto
          114 -17 21 -22 -86 vvcurveto
          -663 vlineto
          -162 20 -62 101 -35 235 -33 226 rcurveline
          207 -32 -92 67 -176 hhcurveto
          -60 -66 -7 -5 -33 hvcurveto
          -68 vlineto
          93 -4 32 -33 18 -124 rrcurveto
          31 -219 50 -344 181 -124 346 -13 rlinecurve
          -289 -2 callsubr
          641 -23 callsubr
          endchar
        </CharString>
        <CharString name="Q">
          0 callsubr
          -411 280 -279 371 -48 vhcurveto
          140 -134 rlineto
          -180 184 105 -46 146 hhcurveto
          116 113 34 53 92 hvcurveto
          62 vlineto
          -118 -14 -106 43 -187 151 -85 70 rcurveline
          299 105 183 272 327 vvcurveto
          452 -340 293 -427 -463 -303 -329 -421 vhcurveto
          -105 callsubr
          258 238 146 -279 -389 -1 vhcurveto
          -377 -107 -265 -258 -238 -145 280 388 vhcurveto
          endchar
        </CharString>
        <CharString name="R">
          1451 1328 1053 135 callsubr
          endchar
        </CharString>
        <CharString name="Racute">
          1451 648 -27 callsubr
          -95 callgsubr
          765 -486 135 callsubr
          endchar
        </CharString>
        <CharString name="Rcaron">
          1451 939 -75 callsubr
          101 callsubr
          306 -793 135 callsubr
          endchar
        </CharString>
        <CharString name="Rcommaaccent">
          -54 callgsubr
          -218 -1501 -30 callsubr
          -89 -68 111 callsubr
          -88 callgsubr
        </CharString>
        <CharString name="Rdblgrave">
          1451 524 1833 rmoveto
          -294 156 callsubr
          87 hlineto
          395 -485 135 callsubr
          endchar
        </CharString>
        <CharString name="Rdotaccent">
          1451 695 99 callsubr
          633 -501 135 callsubr
          endchar
        </CharString>
        <CharString name="Rdotbelow">
          -54 callgsubr
          -203 -1188 -82 callsubr
        </CharString>
        <CharString name="Rdotbelowmacron">
          1451 404 122 callsubr
          924 -689 135 callsubr
          -203 -1188 -82 callsubr
        </CharString>
        <CharString name="Rhogreek">
          1427 1351 1020 42 callsubr
        </CharString>
        <CharString name="Rinvertedbreve">
          1451 695 50 callgsubr
          73 4 hlineto
          90 91 62 128 154 callsubr
          633 -840 135 callsubr
          endchar
        </CharString>
        <CharString name="Rlinebelow">
          -54 callgsubr
          -504 -1397 -69 callsubr
        </CharString>
        <CharString name="S">
          1268 598 -26 78 callsubr
          endchar
        </CharString>
        <CharString name="Sacute">
          1268 620 -21 callsubr
          63 -1565 78 callsubr
          endchar
        </CharString>
        <CharString name="Sacutedotaccent">
          1268 667 1767 rmoveto
          65 50 43 57 58 -50 42 -65 -65 -51 -42 -58 -57 51 -43 65 hvcurveto
          310 -146 rmoveto
          150 vlineto
          -621 -178 rlineto
          -56 vlineto
          242 -1563 78 callsubr
          endchar
        </CharString>
        <CharString name="Scaron">
          1268 911 -75 callsubr
          167 callsubr
          -395 -1872 78 callsubr
          endchar
        </CharString>
        <CharString name="Scarondotaccent">
          1268 667 1788 rmoveto
          65 50 42 58 58 -50 43 -65 -65 -51 -6 callgsubr
          -388 -1746 78 callsubr
          endchar
        </CharString>
        <CharString name="Scedilla">
          1268 591 -468 rmoveto
          -49 callgsubr
          -9 -8 -1 -1 -8 hvcurveto
          63 74 rlineto
          300 18 229 163 270 vvcurveto
          215 -126 150 -267 87 vhcurveto
          -124 42 rlineto
          -165 55 -83 70 120 vvcurveto
          123 90 88 169 183 132 -130 -221 47 vhcurveto
          65 hlineto
          -10 348 rlineto
          54 -79 -152 42 -190 hhcurveto
          -353 -229 -167 -268 -211 138 -145 253 -82 hvcurveto
          126 -41 rlineto
          173 -58 76 -80 -123 vvcurveto
          -135 -105 -93 -163 -200 -175 139 253 -54 vhcurveto
          -64 hlineto
          13 -379 95 -57 170 -44 193 -4 rlinecurve
          -114 -137 114 callsubr
          -45 -26 -61 -49 -50 15 20 -28 hvcurveto
          23 callsubr
        </CharString>
        <CharString name="Schwa">
          1530 705 -26 rmoveto
          460 278 303 443 495 -335 255 -449 -222 -179 -39 -57 -88 hvcurveto
          -10 -383 rlineto
          64 hlineto
          231 54 140 155 219 hhcurveto
          269 153 -245 -420 hvcurveto
          -4 0 -4 -3 vvcurveto
          -991 hlineto
          -5 -28 -4 -40 -38 vvcurveto
          -368 226 -253 420 vhcurveto
          -301 578 rmoveto
          21 0 24 2 21 vhcurveto
          651 3 -17 -338 -109 -215 -222 -1 rlinecurve
          -228 -77 227 258 hvcurveto
          endchar
        </CharString>
        <CharString name="Scircumflex">
          1268 452 -74 callsubr
          51 callsubr
          229 -1564 78 callsubr
          endchar
        </CharString>
        <CharString name="Scommaaccent">
          1268 598 -26 78 callsubr
          7 -442 rmoveto
          150 103 70 113 112 -92 68 -126 -90 -67 111 callsubr
          36 callsubr
          107 callsubr
        </CharString>
        <CharString name="Sdotaccent">
          1268 667 19 callsubr
          -78 -62 2 callsubr
          -69 -1580 78 callsubr
          endchar
        </CharString>
        <CharString name="Sdotbelow">
          1268 598 -26 78 callsubr
          22 -129 -59 callsubr
          76 63 75 callsubr
        </CharString>
        <CharString name="Sdotbelowdotaccent">
          1268 667 19 callsubr
          -78 -62 2 callsubr
          -69 -1580 78 callsubr
          22 -129 -59 callsubr
          76 63 75 callsubr
        </CharString>
        <CharString name="Shacyrillic">
          2420 2221 -67 callsubr
          20 23 124 20 vhcurveto
          67 -634 94 callsubr
          -624 94 callsubr
          -633 29 callsubr
          -107 callsubr
          2309 67 vlineto
          -124 20 -20 23 90 vvcurveto
          endchar
        </CharString>
        <CharString name="Shchacyrillic">
          2448 2405 84 rmoveto
          -184 1160 hlineto
          90 20 23 124 20 vhcurveto
          67 -634 94 callsubr
          -624 94 callsubr
          -633 29 callsubr
          -107 callsubr
          1946 vlineto
          214 48 -48 -282 81 hvcurveto
          69 hlineto
          endchar
        </CharString>
        <CharString name="Sigmagreek">
          96 callgsubr
          488 -701 -479 -499 rlineto
          -180 1154 vlineto
          14 515 rlineto
          -73 hlineto
          -225 -54 -72 -45 -287 hhcurveto
          -502 hlineto
          582 552 0 22 -370 548 256 -9 286 -11 70 -68 57 -226 rlinecurve
          63 hlineto
          endchar
        </CharString>
        <CharString name="Softsigncyrillic">
          1415 1346 151 callsubr
          -654 29 callsubr
          -107 callsubr
          690 211 callsubr
          -1 callgsubr
        </CharString>
        <CharString name="T">
          1378 -46 callsubr
          -63 callsubr
          -52 callsubr
          -49 callsubr
          -57 callsubr
          -61 callsubr
          endchar
        </CharString>
        <CharString name="Taugreek">
          1378 -46 callsubr
          -63 callsubr
          -52 callsubr
          -49 callsubr
          -57 callsubr
          -61 callsubr
          endchar
        </CharString>
        <CharString name="Tbar">
          1378 230 700 rmoveto
          282 -486 hlineto
          -99 -22 -30 -133 -18 vhcurveto
          -67 -49 callsubr
          18 -23 30 99 vvcurveto
          486 282 80 -282 586 -61 callsubr
          -12 394 -1270 0 -12 -63 callsubr
          -586 -282 vlineto
          endchar
        </CharString>
        <CharString name="Tcaron">
          1378 933 -75 callsubr
          101 callsubr
          308 -402 rmoveto
          -1270 hlineto
          -12 -63 callsubr
          -52 callsubr
          -49 callsubr
          -57 callsubr
          -61 callsubr
          endchar
        </CharString>
        <CharString name="Tcedilla">
          1378 660 95 callsubr
          283 67 hlineto
          -133 -57 callsubr
          -61 callsubr
          -12 394 -1270 0 -12 -63 callsubr
          -52 callsubr
          298 vlineto
          -131 -162 rlineto
          -55 vlineto
          4 9 20 3 17 hhcurveto
          62 44 5 callgsubr
        </CharString>
        <CharString name="Tcircumflexbelow">
          1378 -46 callsubr
          -63 callsubr
          -52 callsubr
          -49 callsubr
          -57 callsubr
          -61 callsubr
          -877 -1509 rmoveto
          230 169 229 -169 80 0 -217 -36 callgsubr
        </CharString>
        <CharString name="Tcommaaccent">
          1378 -46 callsubr
          -63 callsubr
          -52 callsubr
          -49 callsubr
          -57 callsubr
          -61 callsubr
          -662 -1518 -30 callsubr
          -90 -67 111 callsubr
          36 callsubr
          107 callsubr
        </CharString>
        <CharString name="Tdotaccent">
          1378 689 99 callsubr
          635 -110 rmoveto
          -1270 hlineto
          -12 -63 callsubr
          -52 callsubr
          -49 callsubr
          -57 callsubr
          -61 callsubr
          endchar
        </CharString>
        <CharString name="Tdotbelow">
          1378 -46 callsubr
          -63 callsubr
          -52 callsubr
          -49 callsubr
          -57 callsubr
          -61 callsubr
          -647 -1205 -59 callsubr
          -20 callsubr
        </CharString>
        <CharString name="Tecyrillic">
          1378 -46 callsubr
          -63 callsubr
          -52 callsubr
          -49 callsubr
          -57 callsubr
          -61 callsubr
          endchar
        </CharString>
        <CharString name="Thetagreek">
          1718 859 -26 rmoveto
          466 307 329 421 453 -345 293 -428 -467 -306 -329 -422 -452 344 -293 429 hvcurveto
          6 84 rmoveto
          -259 -153 273 404 394 117 257 282 259 154 -271 -406 -394 -118 -257 -282 hvcurveto
          -273 418 rmoveto
          53 hlineto
          138 22 42 58 118 hhcurveto
          64 hlineto
          118 43 -58 -138 21 hvcurveto
          53 486 -53 hlineto
          -137 -21 -43 -57 -118 hhcurveto
          -64 hlineto
          -118 -42 57 137 -22 hvcurveto
          -53 hlineto
          endchar
        </CharString>
        <CharString name="Thorn">
          1408 1348 748 rmoveto
          269 -241 123 -396 vhcurveto
          -157 90 hlineto
          98 23 30 133 19 vhcurveto
          67 -654 -67 vlineto
          123 -20 21 -23 -89 vvcurveto
          -1046 vlineto
          -89 -21 -23 -123 -20 vhcurveto
          -67 127 callsubr
          115 157 vlineto
          376 1 261 145 273 vvcurveto
          -374 -19 rmoveto
          -198 -127 -113 -218 -8 vhcurveto
          -75 -3 0 656 75 -3 rlineto
          227 -8 118 -132 -191 vvcurveto
          endchar
        </CharString>
        <CharString name="Tlinebelow">
          1378 -46 callsubr
          -63 callsubr
          -52 callsubr
          -49 callsubr
          -57 callsubr
          -61 callsubr
          -948 -1414 -69 callsubr
        </CharString>
        <CharString name="Tsecyrillic">
          1705 1662 84 rmoveto
          -185 1160 hlineto
          90 -73 callsubr
          -633 -68 vlineto
          114 -18 47 callgsubr
          18 vhcurveto
          68 -633 29 callsubr
          -107 callsubr
          1203 vlineto
          213 49 -48 -282 81 hvcurveto
          69 hlineto
          endchar
        </CharString>
        <CharString name="Tshecyrillic">
          1850 -46 callsubr
          -20 callgsubr
          460 vlineto
          34 56 78 18 92 hhcurveto
          174 92 -101 -210 hvcurveto
          -404 489 67 vlineto
          -114 19 -21 22 85 vvcurveto
          204 vlineto
          311 -207 125 -281 -156 -126 -35 -49 -76 vhcurveto
          615 90 callgsubr
        </CharString>
        <CharString name="U">
          1536 170 1250 -88 callsubr
        </CharString>
        <CharString name="Uacute">
          1536 798 -70 callsubr
          -544 -289 -88 callsubr
        </CharString>
        <CharString name="Ubreve">
          1536 846 1571 rmoveto
          194 128 callsubr
          -73 -3 hlineto
          -91 -91 -62 -128 -127 -91 63 90 vhcurveto
          3 -74 vlineto
          -2 -16 70 callsubr
          -676 -321 -88 callsubr
        </CharString>
        <CharString name="Ubrevecyrillic">
          1456 827 1568 rmoveto
          199 131 105 133 75 -50 -9 callgsubr
          -52 53 -70 -72 -51 -52 -75 -133 132 -105 199 vhcurveto
          -597 -1429 176 callsubr
        </CharString>
        <CharString name="Ucaron">
          1536 1090 -75 callsubr
          11 callsubr
          -1002 -596 -88 callsubr
        </CharString>
        <CharString name="Ucircumflex">
          1536 631 -74 callsubr
          228 -73 callgsubr
          -378 -288 -88 callsubr
        </CharString>
        <CharString name="Ucircumflexbelow">
          83 callsubr
          421 -1709 -12 callsubr
        </CharString>
        <CharString name="Ucyrillic">
          1456 230 139 176 callsubr
        </CharString>
        <CharString name="Udblgrave">
          1536 675 146 callsubr
          -914 -288 -88 callsubr
        </CharString>
        <CharString name="Udieresis">
          1536 671 -25 callsubr
          -59 -53 -72 -73 59 -53 72 hvcurveto
          350 hmoveto
          105 callsubr
          -851 -311 -88 callsubr
        </CharString>
        <CharString name="Udieresisacute">
          1536 1156 1863 -29 callgsubr
          149 -225 -104 callgsubr
          -11 -3 callsubr
          345 hmoveto
          -64 callsubr
          -836 -304 -88 callsubr
        </CharString>
        <CharString name="Udieresisbelow">
          83 callsubr
          432 -1668 rmoveto
          55 callgsubr
          69 callgsubr
          64 -55 80 hvcurveto
          endchar
        </CharString>
        <CharString name="Udieresiscaron">
          1536 1156 2008 rmoveto
          -311 -81 -310 81 0 -56 286 -166 49 0 286 166 rlineto
          -472 -398 -104 callgsubr
          -11 -3 callsubr
          345 hmoveto
          -64 callsubr
          -836 -304 -88 callsubr
        </CharString>
        <CharString name="Udieresisgrave">
          1536 535 1863 -32 callgsubr
          149 -460 -104 callgsubr
          -11 -3 callsubr
          345 hmoveto
          -64 callsubr
          -836 -304 -88 callsubr
        </CharString>
        <CharString name="Udieresismacron">
          1536 534 160 callsubr
          -11 -3 callsubr
          345 hmoveto
          -64 callsubr
          -836 -304 -88 callsubr
        </CharString>
        <CharString name="Udotbelow">
          83 callsubr
          650 -1405 -82 callsubr
        </CharString>
        <CharString name="Ugrave">
          1536 922 -27 callgsubr
          -374 -575 -88 callsubr
        </CharString>
        <CharString name="Uhookabove">
          1536 881 -41 callgsubr
          172 -5 callsubr
          -711 -629 -88 callsubr
        </CharString>
        <CharString name="Uhorn">
          1690 175 544 39 callsubr
        </CharString>
        <CharString name="Uhornacute">
          1690 814 -70 callsubr
          -555 -995 39 callsubr
        </CharString>
        <CharString name="Uhorndotbelow">
          1690 175 544 rmoveto
          -390 276 -180 332 361 219 224 347 3 vhcurveto
          7 848 rlineto
          -4 22 23 -2 22 hhcurveto
          152 93 66 112 101 -76 94 -115 48 hvcurveto
          -67 hlineto
          23 -27 17 -56 -1 -56 rrcurveto
          -122 -86 -103 -185 vhcurveto
          -93 -68 hlineto
          142 -22 18 -24 1 -121 6 -653 rcurveline
          -274 1 -141 -157 -226 hhcurveto
          -220 -153 137 294 hvcurveto
          685 vlineto
          92 21 21 139 23 vhcurveto
          67 -662 -67 vlineto
          124 -22 23 -22 -92 vvcurveto
          638 -1396 -82 callsubr
        </CharString>
        <CharString name="Uhorngrave">
          1690 938 -27 callgsubr
          -385 -1281 39 callsubr
        </CharString>
        <CharString name="Uhornhookabove">
          1690 897 -41 callgsubr
          172 -5 callsubr
          -722 -1335 39 callsubr
        </CharString>
        <CharString name="Uhorntilde">
          1690 985 -28 callgsubr
          -100 callgsubr
          50 callsubr
          -87 callgsubr
          30 -20 rlineto
          -36 54 46 -21 59 hhcurveto
          -810 -1006 39 callsubr
        </CharString>
        <CharString name="Uhungarumlaut">
          1536 676 1833 rmoveto
          -31 99 callgsubr
          -124 -39 callgsubr
          -1178 -583 -88 callsubr
        </CharString>
        <CharString name="Uinvertedbreve">
          1536 845 1893 rmoveto
          -195 -101 -132 -136 -19 2 -19 2 -23 callgsubr
          128 91 -63 -89 vhcurveto
          -4 73 91 callgsubr
          -675 -643 -88 callsubr
        </CharString>
        <CharString name="Umacron">
          1536 554 -29 callsubr
          -384 -492 -88 callsubr
        </CharString>
        <CharString name="Umacrondieresis">
          1536 684 -13 callgsubr
          -449 -219 rmoveto
          577 120 -577 hlineto
          -387 -456 -88 callsubr
        </CharString>
        <CharString name="Uogonek">
          1536 830 -483 rmoveto
          103 87 50 73 32 hvcurveto
          65 vlineto
          -16 -15 -28 -12 -33 hhcurveto
          -72 -63 77 106 46 11 43 18 30 hvcurveto
          312 35 175 218 5 319 rrcurveto
          8 636 3 138 18 33 118 18 rlinecurve
          68 -405 -68 vlineto
          130 -19 20 -32 2 140 callsubr
          -700 vlineto
          -394 275 -181 331 -1 vhcurveto
          -97 -66 -66 -95 -99 vvcurveto
          -119 93 -78 124 vhcurveto
          endchar
        </CharString>
        <CharString name="Upsilondieresisgreek">
          1405 618 1561 rmoveto
          72 58 53 73 72 -58 53 -72 -72 -59 -53 -72 -73 58 -53 73 hvcurveto
          349 hmoveto
          69 callsubr
          -56 callsubr
          -755 -380 -65 callsubr
        </CharString>
        <CharString name="Upsilongreek">
          1405 212 1181 -65 callsubr
        </CharString>
        <CharString name="Upsilontonosgreek">
          1791 598 1181 rmoveto
          316 -548 rlineto
          -419 vlineto
          -98 -23 -30 -133 -19 vhcurveto
          -67 666 67 vlineto
          -134 19 -22 30 98 vvcurveto
          438 vlineto
          296 509 97 166 34 31 103 19 rlinecurve
          67 -415 -67 vlineto
          136 -19 12 -38 -83 -160 rrcurveto
          -222 -424 -243 440 -79 145 16 38 129 18 rlinecurve
          67 -669 -67 vlineto
          98 -18 34 -30 86 -148 rrcurveto
          -504 -119 -19 callsubr
          32 callsubr
        </CharString>
        <CharString name="Uring">
          1536 575 1734 rmoveto
          -112 116 -72 155 154 116 72 112 111 -115 74 -155 -155 8 callgsubr
          -589 -484 -88 callsubr
        </CharString>
        <CharString name="Utilde">
          1536 969 -28 callgsubr
          -100 callgsubr
          50 callsubr
          -87 callgsubr
          30 -20 rlineto
          -36 54 46 -21 59 hhcurveto
          -799 -300 -88 callsubr
        </CharString>
        <CharString name="Utildeacute">
          1536 1156 1863 -29 callgsubr
          438 -220 rmoveto
          114 71 65 121 -1 hvcurveto
          -78 hlineto
          84 callsubr
          -803 -309 -88 callsubr
        </CharString>
        <CharString name="Utildebelow">
          83 callsubr
          772 -1673 rmoveto
          107 79 78 202 -9 hvcurveto
          -72 hlineto
          -88 -2 -25 -106 callgsubr
          82 callgsubr
          72 hlineto
          89 3 25 32 44 hhcurveto
          29 81 callgsubr
        </CharString>
        <CharString name="V">
          95 callgsubr
          endchar
        </CharString>
        <CharString name="Vdotbelow">
          95 callgsubr
          550 -1320 -82 callsubr
        </CharString>
        <CharString name="Vecyrillic">
          1465 1389 421 85 callsubr
        </CharString>
        <CharString name="Vtilde">
          1463 943 -28 callgsubr
          -100 callgsubr
          50 callsubr
          -87 callgsubr
          30 -20 rlineto
          -36 54 46 -21 59 hhcurveto
          -755 -385 rmoveto
          186 callsubr
          endchar
        </CharString>
        <CharString name="W">
          2253 183 1165 4 callsubr
        </CharString>
        <CharString name="Wacute">
          2253 1176 -27 callsubr
          -95 callgsubr
          -908 -374 4 callsubr
        </CharString>
        <CharString name="Wcircumflex">
          2253 1008 -74 callsubr
          51 callsubr
          -742 -373 4 callsubr
        </CharString>
        <CharString name="Wdieresis">
          2253 1048 -25 callsubr
          -56 callsubr
          350 hmoveto
          72 59 53 73 72 -59 53 -72 -72 -59 -53 -72 -73 58 -53 73 hvcurveto
          -1215 -396 4 callsubr
        </CharString>
        <CharString name="Wdotaccent">
          2253 1223 19 callsubr
          -77 -63 2 callsubr
          -1040 -389 4 callsubr
        </CharString>
        <CharString name="Wdotbelow">
          2253 183 1165 rmoveto
          364 -1167 242 0 340 1107 329 -1107 246 0 358 1142 59 186 33 33 110 18 rlinecurve
          67 -426 -67 vlineto
          138 -21 15 -37 -47 -172 rrcurveto
          -232 -841 -240 864 -44 157 10 29 131 21 rlinecurve
          67 -638 -67 vlineto
          132 -21 14 -29 -43 -157 rrcurveto
          -237 -864 -241 858 -43 156 17 37 138 20 rlinecurve
          67 -676 -67 vlineto
          103 -17 37 -31 51 -164 rrcurveto
          944 -1320 -59 callsubr
          -20 callsubr
        </CharString>
        <CharString name="Wgrave">
          2253 1299 108 callsubr
          -738 -660 4 callsubr
        </CharString>
        <CharString name="X">
          1439 282 304 38 callsubr
        </CharString>
        <CharString name="Xdieresis">
          1439 638 -25 callsubr
          -56 callsubr
          350 hmoveto
          -79 callgsubr
          -706 -1257 38 callsubr
        </CharString>
        <CharString name="Xdotaccent">
          1439 813 99 callsubr
          -531 -1250 38 callsubr
        </CharString>
        <CharString name="Xigreek">
          1364 1274 1444 rmoveto
          -1183 hlineto
          -19 -449 rlineto
          64 hlineto
          181 47 72 32 250 hhcurveto
          354 hlineto
          250 72 -32 -181 47 hvcurveto
          64 hlineto
          -672 -310 rmoveto
          124 hlineto
          167 47 -46 -148 28 hvcurveto
          59 470 -59 hlineto
          -146 -29 -46 -44 -167 hhcurveto
          -124 hlineto
          -167 -47 44 146 -27 hvcurveto
          -61 -470 61 hlineto
          148 27 47 46 167 hhcurveto
          671 -685 rmoveto
          18 498 rlineto
          -64 hlineto
          -220 -51 -71 -36 -279 hhcurveto
          -324 hlineto
          -279 -72 36 220 -50 hvcurveto
          -64 hlineto
          18 -498 rlineto
          endchar
        </CharString>
        <CharString name="Xigreek.1">
          1365 621 685 rmoveto
          28 -443 -129 hlineto
          -278 -72 37 219 -51 hvcurveto
          -63 hlineto
          18 -498 1217 0 19 498 rlineto
          -64 hlineto
          -220 -51 -72 -36 -278 hhcurveto
          -129 443 29 hlineto
          166 47 -46 -148 28 hvcurveto
          60 470 -60 hlineto
          -146 -28 -47 -44 -166 hhcurveto
          -29 437 143 hlineto
          250 73 -33 -180 47 hvcurveto
          64 hlineto
          -18 449 -1183 0 -20 -449 rlineto
          64 hlineto
          180 48 72 33 250 hhcurveto
          143 -437 -28 hlineto
          -167 -47 44 146 -28 hvcurveto
          -60 -470 60 hlineto
          148 28 47 46 167 hhcurveto
          endchar
        </CharString>
        <CharString name="Y">
          1405 212 1181 -65 callsubr
        </CharString>
        <CharString name="Yacute">
          1405 745 -70 callsubr
          -449 -358 -65 callsubr
        </CharString>
        <CharString name="Ycircumflex">
          1405 577 -74 callsubr
          35 callsubr
          -283 -357 -65 callsubr
        </CharString>
        <CharString name="Ydieresis">
          1405 618 1561 rmoveto
          72 58 53 73 72 -58 53 -72 -72 -59 -53 -72 -73 58 -53 73 hvcurveto
          349 hmoveto
          69 callsubr
          -56 callsubr
          -755 -380 -65 callsubr
        </CharString>
        <CharString name="Ydotaccent">
          1405 792 -32 callsubr
          -40 callsubr
          -580 -373 -65 callsubr
        </CharString>
        <CharString name="Ydotbelow">
          1405 212 1181 rmoveto
          315 -548 rlineto
          -419 -2 callsubr
          665 -23 callsubr
          193 callsubr
          503 -1336 -59 callsubr
          76 63 75 callsubr
        </CharString>
        <CharString name="Yericyrillic">
          2086 1346 151 callsubr
          -654 29 callsubr
          -107 callsubr
          690 vlineto
          384 216 182 262 hvcurveto
          540 -244 rmoveto
          1044 vlineto
          90 20 23 124 20 vhcurveto
          67 125 callsubr
          124 callsubr
          643 67 vlineto
          -124 20 -20 23 90 vvcurveto
          -915 239 rmoveto
          -1 callgsubr
        </CharString>
        <CharString name="Ygrave">
          1405 868 1538 rmoveto
          84 -21 callgsubr
          -279 -644 -65 callsubr
        </CharString>
        <CharString name="Yhookabove">
          1405 827 1879 rmoveto
          -107 152 callsubr
          171 -5 callsubr
          -615 -698 -65 callsubr
        </CharString>
        <CharString name="Yicyrillic">
          754 202 -25 callsubr
          -56 callsubr
          350 hmoveto
          -79 callgsubr
          2 -1361 -81 callsubr
          -99 callsubr
          -107 callsubr
          -84 callsubr
        </CharString>
        <CharString name="Ymacron">
          1405 501 -29 callsubr
          -289 -561 -65 callsubr
        </CharString>
        <CharString name="Ytilde">
          1405 916 -55 callgsubr
          -36 hvcurveto
          -30 19 rlineto
          37 -55 -46 21 -60 hhcurveto
          -107 -81 -80 -208 8 hvcurveto
          77 hlineto
          89 3 25 32 43 hhcurveto
          30 24 118 callsubr
          -704 -369 -65 callsubr
        </CharString>
        <CharString name="Z">
          1313 1226 hmoveto
          -83 callsubr
          10 callsubr
        </CharString>
        <CharString name="Zacute">
          1313 630 -70 callsubr
          680 -1539 rmoveto
          -83 callsubr
          10 callsubr
        </CharString>
        <CharString name="Zcaron">
          1313 922 -75 callsubr
          11 callsubr
          222 -1846 rmoveto
          -83 callsubr
          10 callsubr
        </CharString>
        <CharString name="Zcircumflex">
          1313 462 -74 callsubr
          35 callsubr
          846 -1538 rmoveto
          -83 callsubr
          10 callsubr
        </CharString>
        <CharString name="Zdotaccent">
          1313 677 -32 callsubr
          -40 callsubr
          549 -1554 rmoveto
          -83 callsubr
          10 callsubr
        </CharString>
        <CharString name="Zdotbelow">
          -11 callgsubr
          593 -159 rmoveto
          -77 -62 -56 -76 -77 62 -56 77 76 63 56 77 76 -63 56 -76 hvcurveto
          endchar
        </CharString>
        <CharString name="Zecyrillic">
          1292 1215 419 rmoveto
          231 -210 111 -261 17 vhcurveto
          235 30 190 113 196 vvcurveto
          232 -219 121 -376 -188 -163 -47 -56 -86 vhcurveto
          -10 -347 rlineto
          64 hlineto
          219 50 119 138 187 hhcurveto
          174 81 -112 -176 -189 -109 -106 -196 hvcurveto
          -124 -83 124 hlineto
          225 120 -111 -200 -218 -122 -115 -194 -173 -136 124 239 -54 hvcurveto
          -64 hlineto
          11 -348 rlineto
          -59 93 169 -49 181 hhcurveto
          364 298 143 302 hvcurveto
          endchar
        </CharString>
        <CharString name="Zetagreek">
          1313 1226 hmoveto
          -83 callsubr
          10 callsubr
        </CharString>
        <CharString name="Zhecyrillic">
          2142 410 hmoveto
          391 696 97 1 rlineto
          -504 vlineto
          -87 -20 -21 -115 -18 vhcurveto
          -67 601 67 vlineto
          -115 18 -19 21 87 vvcurveto
          504 vlineto
          96 -1 391 -696 rlineto
          431 64 hlineto
          -71 24 -40 42 -126 221 rrcurveto
          -338 605 186 199 149 152 67 46 124 24 rlinecurve
          67 -467 -67 vlineto
          134 -18 9 -41 -101 -121 rrcurveto
          -349 -417 -95 -1 rlineto
          472 vlineto
          87 19 21 115 18 vhcurveto
          67 -601 -67 vlineto
          115 -18 20 -21 -87 vvcurveto
          -472 vlineto
          -96 1 -348 417 -101 121 9 41 134 18 rlinecurve
          67 -467 -67 vlineto
          123 -24 63 -44 148 -153 rrcurveto
          199 -215 -331 -590 -126 -221 -40 -42 -71 -24 rlinecurve
          -64 vlineto
          endchar
        </CharString>
        <CharString name="Zlinebelow">
          -11 callgsubr
          292 -368 rmoveto
          601 154 -601 hlineto
          endchar
        </CharString>
        <CharString name="a">
          1180 367 -21 -98 callsubr
        </CharString>
        <CharString name="a.dnum">
          737 228 -12 43 callgsubr
          45 vlineto
          -2 199 callsubr
          -36 -91 -5 callgsubr
          8 rlineto
          -152 vlineto
          -24 -13 -28 -14 -36 hhcurveto
          -42 -32 26 50 hvcurveto
          endchar
        </CharString>
        <CharString name="a.numr">
          728 228 666 rmoveto
          97 74 38 57 26 hvcurveto
          -59 14 67 -32 72 hhcurveto
          55 47 13 18 26 hvcurveto
          45 vlineto
          -2 -6 -8 -1 -9 hhcurveto
          -30 -24 19 42 hvcurveto
          229 vlineto
          139 -100 60 -174 -169 -103 -66 -79 -48 40 -35 54 53 41 39 49 29 -15 25 -22 15 vhcurveto
          4 17 18 3 19 hhcurveto
          84 47 -37 -91 hvcurveto
          -42 vlineto
          -115 -23 rlineto
          -181 -36 -64 -60 -80 vvcurveto
          -78 67 -55 102 vhcurveto
          40 167 rmoveto
          53 32 35 84 19 vhcurveto
          35 7 rlineto
          -152 vlineto
          -23 -13 -28 -14 -36 hhcurveto
          -42 -32 25 50 hvcurveto
          endchar
        </CharString>
        <CharString name="a.sups">
          737 228 836 43 callgsubr
          44 vlineto
          -1 199 callsubr
          -37 -90 -5 callgsubr
          7 rlineto
          -151 vlineto
          -24 -13 -28 -14 -36 hhcurveto
          -42 -32 26 50 hvcurveto
          endchar
        </CharString>
        <CharString name="aacute">
          1180 487 -77 callsubr
          -35 -1145 -98 callsubr
        </CharString>
        <CharString name="abreve">
          1180 547 1148 rmoveto
          217 110 149 callsubr
          -180 -1169 -98 callsubr
        </CharString>
        <CharString name="abreveacute">
          1180 850 -42 callsubr
          303 -300 rmoveto
          187 124 101 163 -8 hvcurveto
          -75 hlineto
          -63 -6 -93 -42 -129 hhcurveto
          -127 -94 58 callsubr
          -180 -1125 -98 callsubr
        </CharString>
        <CharString name="abrevecyrillic">
          1180 548 67 callgsubr
          -73 -52 -57 -69 -66 48 -52 61 -4 hvcurveto
          -37 -44 -64 -24 -80 hhcurveto
          -79 107 callgsubr
          -72 -77 -53 -53 -83 -139 132 -115 202 vhcurveto
          -181 -1162 -98 callsubr
        </CharString>
        <CharString name="abrevedotbelow">
          1180 547 1148 rmoveto
          217 110 149 callsubr
          -180 -1169 37 callsubr
          153 callsubr
        </CharString>
        <CharString name="abrevegrave">
          1180 244 -28 callsubr
          303 -576 rmoveto
          187 124 101 163 -8 hvcurveto
          -75 hlineto
          -63 -6 -93 -42 -129 hhcurveto
          -127 -94 58 callsubr
          -180 -1125 -98 callsubr
        </CharString>
        <CharString name="abrevehookabove">
          1180 538 166 callsubr
          30 callgsubr
          -86 55 -110 vhcurveto
          9 -553 rmoveto
          187 124 101 163 -8 hvcurveto
          -75 hlineto
          -63 -6 -93 -42 -129 hhcurveto
          -127 -94 58 callsubr
          -180 -1125 -98 callsubr
        </CharString>
        <CharString name="abrevetilde">
          185 callsubr
          -125 -326 rmoveto
          187 124 101 163 -8 hvcurveto
          -75 hlineto
          -63 -6 -93 -42 -129 hhcurveto
          -127 -94 58 callsubr
          -180 -1125 -98 callsubr
        </CharString>
        <CharString name="acaron">
          1180 794 -58 callsubr
          -245 188 -87 0 233 -382 -41 callsubr
          -512 -1545 -98 callsubr
        </CharString>
        <CharString name="acircumflex">
          1180 300 -13 callsubr
          152 -1145 -98 callsubr
        </CharString>
        <CharString name="acircumflexacute">
          1180 850 -42 callsubr
          1 -302 -4 callsubr
          122 -1191 -98 callsubr
        </CharString>
        <CharString name="acircumflexdotbelow">
          1180 300 -13 callsubr
          152 -1145 37 callsubr
          153 callsubr
        </CharString>
        <CharString name="acircumflexgrave">
          1180 244 -28 callsubr
          1 -578 -4 callsubr
          122 -1191 -98 callsubr
        </CharString>
        <CharString name="acircumflexhookabove">
          1180 780 166 callsubr
          -18 callgsubr
          122 -1191 -98 callsubr
        </CharString>
        <CharString name="acircumflextilde">
          185 callsubr
          -427 -328 -4 callsubr
          122 -1191 -98 callsubr
        </CharString>
        <CharString name="acute">
          1024 452 -47 callsubr
          endchar
        </CharString>
        <CharString name="acutecmb">
          0 -60 -47 callsubr
          endchar
        </CharString>
        <CharString name="acutecmb.short">
          0 -47 1098 rmoveto
          375 288 rlineto
          7 -94 callgsubr
          endchar
        </CharString>
        <CharString name="acutedotaccentcmb">
          14 callgsubr
          -176 -31 callgsubr
          endchar
        </CharString>
        <CharString name="acutedotaccentcmb.short">
          0 1767 vmoveto
          65 51 43 57 58 -51 42 -65 -64 -52 -42 -58 -57 51 -43 65 hvcurveto
          311 -146 rmoveto
          150 vlineto
          -622 -178 rlineto
          -56 vlineto
          endchar
        </CharString>
        <CharString name="acyrillic">
          1180 367 -21 -98 callsubr
        </CharString>
        <CharString name="adblgrave">
          1180 327 -70 callgsubr
          262 383 rmoveto
          -271 -10 hlineto
          232 -373 rlineto
          88 hlineto
          -412 -1145 -98 callsubr
        </CharString>
        <CharString name="adieresis">
          1180 312 1173 rmoveto
          -53 callsubr
          -51 callsubr
          471 hmoveto
          16 callsubr
          -416 -1194 -98 callsubr
        </CharString>
        <CharString name="adieresismacron">
          1180 244 21 callsubr
          133 -473 26 callsubr
          -11 hlineto
          -63 -92 callsubr
          363 hmoveto
          63 50 45 63 63 -50 46 -63 hvcurveto
          -11 hlineto
          -64 -50 -46 -63 -63 50 -45 64 hvcurveto
          -351 -1144 -98 callsubr
        </CharString>
        <CharString name="adotaccent">
          1180 547 -78 callsubr
          -97 callgsubr
          -180 -1185 -98 callsubr
        </CharString>
        <CharString name="adotbelow">
          1180 367 -21 37 callsubr
          153 callsubr
        </CharString>
        <CharString name="adotmacron">
          1180 244 66 callgsubr
          69 53 49 68 69 -53 50 -69 -67 -54 -50 -69 -68 53 -49 68 hvcurveto
          -180 -1140 -98 callsubr
        </CharString>
        <CharString name="ae">
          1690 373 -21 132 callsubr
        </CharString>
        <CharString name="aeacute">
          1690 806 -77 callsubr
          -348 -1145 132 callsubr
        </CharString>
        <CharString name="aemacron">
          1690 543 -45 callsubr
          -170 -1410 132 callsubr
        </CharString>
        <CharString name="agrave">
          1180 609 -102 callgsubr
          156 -1518 -98 callsubr
        </CharString>
        <CharString name="ahookabove">
          1180 593 102 callsubr
          56 hhcurveto
          70 45 -33 -52 -55 -40 -48 -95 -59 hvcurveto
          82 hlineto
          196 68 74 70 91 vvcurveto
          96 -87 66 -126 vhcurveto
          -226 -1539 -98 callsubr
        </CharString>
        <CharString name="ainvertedbreve">
          1180 547 1500 rmoveto
          -38 callgsubr
          1 callgsubr
          -110 151 -217 vhcurveto
          -180 -1521 -98 callsubr
        </CharString>
        <CharString name="alphagreek">
          1342 471 -20 173 callsubr
        </CharString>
        <CharString name="alphatonosgreek">
          1342 657 1125 rmoveto
          241 372 rlineto
          10 -286 vlineto
          -44 -382 rlineto
          -97 -1145 173 callsubr
        </CharString>
        <CharString name="amacron">
          1180 224 -45 callsubr
          143 -1410 -98 callsubr
        </CharString>
        <CharString name="ampersand">
          1668 520 -23 rmoveto
          189 136 79 152 144 hvcurveto
          204 -208 rlineto
          462 64 hlineto
          -72 23 -66 47 -169 170 rrcurveto
          -151 154 133 170 135 171 51 36 104 15 rlinecurve
          67 vlineto
          -432 -1 rlineto
          -67 vlineto
          124 -18 26 -43 -94 -140 rrcurveto
          -94 -142 -313 320 -9 9 -8 8 -8 9 rlinecurve
          211 69 128 108 145 vvcurveto
          168 -151 128 -264 -279 -176 -156 -198 -115 49 -97 111 -131 vhcurveto
          -241 -74 -127 -143 -1 -186 rrcurveto
          -230 185 -163 263 vhcurveto
          59 1240 rmoveto
          103 65 58 92 102 61 -92 -123 -2 vhcurveto
          -1 -107 -42 -91 -92 -62 rrcurveto
          -135 142 -48 78 94 vvcurveto
          -211 -710 rmoveto
          90 37 72 83 52 vhcurveto
          32 -35 37 -38 41 -41 348 -356 rcurveline
          -65 -77 -75 -27 -82 hhcurveto
          -189 -154 145 203 -1 hvcurveto
          endchar
        </CharString>
        <CharString name="anoteleiagreek">
          550 275 673 42 callgsubr
        </CharString>
        <CharString name="aogonek">
          1181 367 -21 rmoveto
          164 129 69 99 45 hvcurveto
          -103 23 107 -56 119 hhcurveto
          13 13 0 1 12 hvcurveto
          -196 -102 -72 -94 -101 vvcurveto
          -108 92 -67 118 101 90 46 69 41 vhcurveto
          66 vlineto
          -16 -17 -31 -10 -34 hhcurveto
          -52 -46 33 70 87 56 81 118 95 hvcurveto
          63 vlineto
          -4 -11 -15 -2 -17 hhcurveto
          -54 -43 35 83 hvcurveto
          465 vlineto
          240 -170 106 -283 -278 -179 -112 -141 -81 65 -58 85 85 65 62 80 59 -34 49 -50 21 vhcurveto
          15 40 45 8 49 hhcurveto
          150 88 -68 -178 hvcurveto
          -92 vlineto
          -205 -43 rlineto
          -308 -62 -114 -104 -153 vvcurveto
          -146 120 -101 176 vhcurveto
          27 299 rmoveto
          108 60 70 166 38 vhcurveto
          78 17 rlineto
          -310 vlineto
          -53 -29 -56 -30 -71 hhcurveto
          -84 -64 56 104 hvcurveto
          endchar
        </CharString>
        <CharString name="approxequal">
          1235 882 772 63 callgsubr
          -497 vmoveto
          28 callgsubr
          173 1 63 71 94 0 callgsubr
          endchar
        </CharString>
        <CharString name="aring">
          1180 247 1323 rmoveto
          -123 129 -80 171 172 128 80 124 121 -127 82 -173 -172 -128 -82 -122 vhcurveto
          205 hmoveto
          79 39 57 56 57 39 -56 -79 -82 -39 -54 -57 -56 -39 55 80 vhcurveto
          -85 -1344 -98 callsubr
        </CharString>
        <CharString name="aringacute">
          1180 850 1505 66 callsubr
          -19 callgsubr
          -26 31 44 44 26 105 callgsubr
          -198 -1185 -98 callsubr
        </CharString>
        <CharString name="aringbelow">
          1180 367 -21 37 callsubr
          -93 -565 rmoveto
          -114 128 -72 172 171 129 205 callsubr
        </CharString>
        <CharString name="asciicircum">
          1235 581 1444 rmoveto
          -451 -590 93 -87 392 512 393 -513 97 87 -451 591 rlineto
          endchar
        </CharString>
        <CharString name="asciitilde">
          1235 882 523 63 callgsubr
          endchar
        </CharString>
        <CharString name="asterisk">
          808 390 1120 rmoveto
          28 hlineto
          65 195 rlineto
          95 36 -57 60 -58 hhcurveto
          -60 -56 -60 -95 37 hvcurveto
          99 -198 rmoveto
          13 -25 200 42 rlineto
          100 16 22 79 -29 50 -30 53 -79 20 -64 -81 rrcurveto
          -186 -179 rmoveto
          13 25 -133 154 rlineto
          -63 80 -81 -21 -29 -51 -30 -51 23 -78 101 -17 rrcurveto
          212 -72 rmoveto
          -13 26 -199 -43 rlineto
          -100 -16 -23 -79 29 -50 30 -52 80 -20 63 80 rrcurveto
          187 180 rmoveto
          -14 -25 134 -155 rlineto
          62 -79 81 20 29 51 31 52 -23 77 -101 16 rrcurveto
          -219 14 rmoveto
          -28 hlineto
          -65 -195 rlineto
          -95 -36 57 -60 58 hhcurveto
          60 56 59 96 -36 hvcurveto
          endchar
        </CharString>
        <CharString name="at">
          2048 557 381 rmoveto
          -210 86 -126 149 129 121 87 165 65 vhcurveto
          -1 -6 -4 -28 -6 vvcurveto
          -144 -9 78 -100 197 hhcurveto
          349 250 295 382 448 -365 303 -507 -559 -458 -425 -593 -521 379 -328 454 170 179 41 82 104 hvcurveto
          69 vlineto
          -79 -131 -146 -22 -158 hhcurveto
          -415 -332 290 473 539 418 384 496 455 313 -265 -409 -348 -219 -201 -179 -80 -36 44 113 24 hvcurveto
          149 692 -152 0 -141 -121 rlineto
          86 -32 -73 56 -113 hhcurveto
          -271 -184 -306 -311 hvcurveto
          290 -5 rmoveto
          211 98 310 154 62 39 -47 -83 -1 vhcurveto
          -73 -344 rlineto
          -122 -26 -79 -104 -84 hhcurveto
          -64 -26 70 109 hvcurveto
          endchar
        </CharString>
        <CharString name="atilde">
          1180 678 13 callgsubr
          -39 hvcurveto
          -32 23 rlineto
          39 -58 -50 24 -62 hhcurveto
          -115 -84 -88 -225 9 hvcurveto
          77 hlineto
          99 3 -77 callgsubr
          62 hhcurveto
          -311 -1188 -98 callsubr
        </CharString>
        <CharString name="austral">
          1462 212 292 rmoveto
          -63 -177 -31 -30 -110 -18 rrcurveto
          -67 423 67 vlineto
          -141 22 -24 35 55 166 rrcurveto
          33 99 524 0 37 -108 52 -156 -24 -37 -139 -21 rlinecurve
          -67 656 67 vlineto
          -105 17 -33 33 -58 162 -40 110 rcurveline
          236 58 -256 hlineto
          -79 219 rlineto
          335 58 -356 hlineto
          -258 723 -224 0 -257 -723 rlineto
          -357 -58 337 hlineto
          -78 -219 rlineto
          -259 -58 238 hlineto
          220 335 rmoveto
          148 447 151 -447 rlineto
          -392 -277 rmoveto
          73 219 339 0 74 -219 rlineto
          endchar
        </CharString>
        <CharString name="austral.tnum">
          1243 -2 444 rmoveto
          -58 194 vlineto
          -28 -95 -52 -177 -24 -32 -89 -15 rlinecurve
          -67 353 67 vlineto
          -114 16 -18 32 47 173 rrcurveto
          27 98 409 0 29 -105 44 -164 -16 -33 -116 -17 rlinecurve
          -67 599 67 vlineto
          -88 14 -23 35 -49 165 -31 105 rcurveline
          192 58 -209 hlineto
          -64 219 rlineto
          273 58 -290 hlineto
          -214 725 -237 0 -213 -725 rlineto
          -292 -58 275 hlineto
          -64 -219 rlineto
          176 277 rmoveto
          114 417 114 -417 rlineto
          -303 -277 rmoveto
          60 219 258 0 60 -219 rlineto
          endchar
        </CharString>
        <CharString name="b">
          -53 callgsubr
          endchar
        </CharString>
        <CharString name="backslash">
          741 541 -280 rmoveto
          158 hlineto
          -498 1860 rlineto
          -158 hlineto
          endchar
        </CharString>
        <CharString name="baht">
          1426 63 30 rmoveto
          638 -219 58 220 hlineto
          319 12 268 132 258 vvcurveto
          219 -185 121 -277 13 vhcurveto
          212 16 188 97 194 vvcurveto
          201 -191 110 -334 9 vhcurveto
          219 -58 -218 -638 -67 vlineto
          52 callgsubr
          474 1239 rmoveto
          94 -3 rlineto
          25 23 -2 -4 22 hvcurveto
          -528 vlineto
          -9 -9 -1 -9 hhcurveto
          -137 hlineto
          410 265 rmoveto
          -147 -68 -83 -120 -26 vhcurveto
          508 vlineto
          129 -38 59 -91 -123 vvcurveto
          -410 -343 rmoveto
          137 -2 rlineto
          9 9 0 -1 9 hvcurveto
          -601 vlineto
          -3 -22 -23 -2 -25 hhcurveto
          -94 -3 rlineto
          461 314 rmoveto
          -156 -85 -101 -154 -38 vhcurveto
          583 vlineto
          155 -30 84 -108 -150 vvcurveto
          endchar
        </CharString>
        <CharString name="baht.tnum">
          1243 34 36 rmoveto
          581 -225 58 226 hlineto
          292 13 247 131 247 37 callgsubr
          190 -171 107 -308 10 vhcurveto
          225 -58 -224 -581 -67 vlineto
          53 callgsubr
          446 1228 rmoveto
          81 -1 19 -1 18 -2 17 -2 rlinecurve
          -526 vlineto
          -1 -8 -8 0 -9 hhcurveto
          -110 -1 rlineto
          357 272 rmoveto
          -143 -58 -88 -106 -29 vhcurveto
          502 vlineto
          109 -36 55 -87 -119 vvcurveto
          -357 -349 rmoveto
          110 -1 rlineto
          9 8 0 -1 8 hvcurveto
          -599 vlineto
          -17 -2 -18 -2 -19 -1 -81 -1 rcurveline
          406 307 rmoveto
          -152 -80 -100 -133 -37 vhcurveto
          579 vlineto
          138 -32 75 -107 -151 vvcurveto
          endchar
        </CharString>
        <CharString name="bar">
          741 292 -280 rmoveto
          158 1860 -158 hlineto
          endchar
        </CharString>
        <CharString name="bdotaccent">
          1279 312 1604 rmoveto
          91 74 66 89 90 -74 65 -91 -90 -74 -65 -90 -89 74 -66 90 hvcurveto
          892 -1091 181 callsubr
          endchar
        </CharString>
        <CharString name="bdotbelow">
          -53 callgsubr
          -221 -911 -66 callsubr
        </CharString>
        <CharString name="becyrillic">
          1291 1216 498 rmoveto
          299 -211 193 -329 -232 -173 -123 -179 -73 vhcurveto
          -5 32 -3 36 37 vvcurveto
          197 88 155 363 30 vhcurveto
          120 12 307 27 89 88 15 226 rlinecurve
          -68 hlineto
          -19 -50 -60 -13 -229 -23 -234 -25 -143 -59 -116 -104 rrcurveto
          -139 -126 -81 -208 -317 vvcurveto
          -375 191 -249 368 310 264 202 317 vhcurveto
          -347 -15 rmoveto
          -281 -80 -134 -137 -142 -77 168 255 262 76 150 146 136 78 -158 -262 vhcurveto
          endchar
        </CharString>
        <CharString name="betagreek">
          1268 126 -460 rmoveto
          337 hlineto
          -4 213 -4 186 -3 162 rrcurveto
          -69 53 104 -54 129 hhcurveto
          230 219 152 284 270 -171 172 -243 26 hvcurveto
          176 17 161 107 180 vvcurveto
          198 -166 132 -302 -299 -213 -154 -397 -1 vhcurveto
          312 146 rmoveto
          205 59 107 136 120 60 -101 -158 -164 -84 -95 -172 -6 vhcurveto
          1 -225 rlineto
          204 -7 117 -116 -195 vvcurveto
          -178 -104 -83 -127 -87 -76 36 54 -37 vhcurveto
          -9 495 -1 261 170 vvcurveto
          endchar
        </CharString>
        <CharString name="bitcoin">
          1416 63 30 rmoveto
          481 -219 58 219 98 hlineto
          42 42 2 4 41 hvcurveto
          -225 58 233 vlineto
          256 40 197 128 221 vvcurveto
          219 -185 121 -277 13 vhcurveto
          213 16 187 97 194 vvcurveto
          172 -140 105 -251 33 vhcurveto
          229 -58 -223 vlineto
          3 -39 -42 2 -44 hhcurveto
          -98 218 -58 -218 -481 -67 hlineto
          52 callgsubr
          874 966 rmoveto
          -179 -100 -84 -173 -2 vhcurveto
          -127 538 hlineto
          85 -3 rlineto
          219 -7 96 -105 -158 vvcurveto
          51 -641 rmoveto
          -195 -132 -108 -234 -8 vhcurveto
          -85 -3 0 612 127 -2 rlineto
          210 -2 114 -119 -175 vvcurveto
          endchar
        </CharString>
        <CharString name="bitcoin.tnum">
          1243 34 36 rmoveto
          432 -225 58 225 100 hlineto
          39 38 2 4 37 hvcurveto
          -231 58 239 vlineto
          235 40 181 127 211 37 callgsubr
          163 -126 102 -230 32 vhcurveto
          235 -58 -228 vlineto
          3 -36 -38 1 -40 hhcurveto
          -100 224 -58 -224 -432 -67 hlineto
          53 callgsubr
          800 966 rmoveto
          -176 -89 -94 -157 -1 vhcurveto
          -105 -1 0 534 75 -1 rlineto
          182 -7 94 -99 -155 vvcurveto
          49 -651 rmoveto
          -189 -126 -108 -199 -7 vhcurveto
          -75 -1 0 607 105 -1 rlineto
          189 -3 106 -121 -177 vvcurveto
          endchar
        </CharString>
        <CharString name="blinebelow">
          -53 callgsubr
          -522 -848 -69 callsubr
        </CharString>
        <CharString name="braceleft">
          741 508 1013 rmoveto
          228 vlineto
          154 19 117 168 vhcurveto
          68 -42 vlineto
          -294 -139 -128 -242 hvcurveto
          -319 vlineto
          -154 -74 -55 -119 vhcurveto
          -63 vlineto
          119 74 -55 -156 hvcurveto
          -318 vlineto
          -242 139 -128 294 vhcurveto
          42 68 hlineto
          -168 -19 117 154 hvcurveto
          230 vlineto
          223 -116 110 -236 29 vhcurveto
          238 28 114 110 224 vvcurveto
          endchar
        </CharString>
        <CharString name="braceright">
          741 233 1013 rmoveto
          -224 114 -110 238 -28 vhcurveto
          -236 -29 -116 -110 -223 vvcurveto
          -230 vlineto
          -154 -19 -117 -167 vhcurveto
          -68 41 vlineto
          294 139 128 242 hvcurveto
          318 vlineto
          156 75 55 117 vhcurveto
          63 vlineto
          -117 -75 55 154 hvcurveto
          319 vlineto
          242 -139 128 -294 vhcurveto
          -41 -68 hlineto
          167 19 -117 -154 hvcurveto
          endchar
        </CharString>
        <CharString name="bracketleft">
          741 178 -284 rmoveto
          506 4 0 69 -223 7 0 1708 223 7 0 69 -506 4 rlineto
          endchar
        </CharString>
        <CharString name="bracketright">
          741 563 1584 rmoveto
          -506 -4 0 -69 223 -7 0 -1708 -223 -7 0 -69 506 -4 rlineto
          endchar
        </CharString>
        <CharString name="breve">
          1024 512 75 callgsubr
          -33 callgsubr
          -37 callgsubr
          -47 callgsubr
          endchar
        </CharString>
        <CharString name="breveacutecmb">
          -86 callgsubr
          303 -300 93 callsubr
        </CharString>
        <CharString name="breveacutecmb.short">
          110 callsubr
          -56 vlineto
          311 -246 -31 callsubr
          96 callsubr
        </CharString>
        <CharString name="brevebelowcmb">
          0 -453 vmoveto
          201 103 136 141 20 -2 19 -3 16 hvcurveto
          -72 -4 hlineto
          -91 -93 -63 -134 -133 -94 64 90 vhcurveto
          4 -72 vlineto
          -3 -17 -2 -18 -20 vvcurveto
          -141 103 -136 201 vhcurveto
          endchar
        </CharString>
        <CharString name="brevecmb">
          0 1148 vmoveto
          216 110 151 157 22 -1 21 -33 callgsubr
          -37 callgsubr
          -47 callgsubr
          endchar
        </CharString>
        <CharString name="brevecmb.short">
          0 1131 vmoveto
          60 callsubr
          -4 hlineto
          -90 -90 -62 -128 -127 -91 63 89 vhcurveto
          4 -74 vlineto
          -3 -16 -1 -18 -19 vvcurveto
          -137 101 -132 195 vhcurveto
          endchar
        </CharString>
        <CharString name="brevecyrilliccmb">
          0 1141 vmoveto
          201 133 115 139 83 -53 53 -77 -73 -52 -57 -69 -66 48 -52 206 callsubr
          endchar
        </CharString>
        <CharString name="brevecyrilliccmb.short">
          0 1568 vmoveto
          199 132 105 133 75 -51 -9 callgsubr
          -51 53 -71 -72 -51 -52 -75 -133 132 -105 199 vhcurveto
          endchar
        </CharString>
        <CharString name="brevegravecmb">
          0 -303 -28 callsubr
          303 -576 93 callsubr
        </CharString>
        <CharString name="brevegravecmb.short">
          0 -311 1863 rmoveto
          622 -83 0 56 -622 178 rlineto
          311 -480 -31 callsubr
          96 callsubr
        </CharString>
        <CharString name="brevehookabovecmb">
          0 -9 1657 rmoveto
          -86 207 callsubr
          -109 vhcurveto
          9 -553 93 callsubr
        </CharString>
        <CharString name="brevehookabovecmb.short">
          0 -9 2004 rmoveto
          -88 -70 -34 -40 -41 hvcurveto
          -45 vlineto
          14 26 49 12 47 hhcurveto
          71 39 -24 -36 -35 -36 -26 -79 -16 hvcurveto
          60 -34 rlineto
          145 23 77 42 76 vvcurveto
          76 -88 47 -112 vhcurveto
          9 -470 -31 callsubr
          96 callsubr
        </CharString>
        <CharString name="brevetildecmb">
          0 124 1430 rmoveto
          111 70 -91 callgsubr
          53 callsubr
          -66 callgsubr
          57 callsubr
          -13 50 hhcurveto
          -124 -326 93 callsubr
        </CharString>
        <CharString name="brevetildecmb.short">
          0 128 1810 130 callsubr
          -47 -1 -27 -19 -49 hhcurveto
          -29 -30 7 11 -41 hvcurveto
          -36 11 rlineto
          14 60 callgsubr
          19 49 29 30 -6 -44 callgsubr
          -128 -276 -31 callsubr
          96 callsubr
        </CharString>
        <CharString name="brokenbar">
          741 292 789 rmoveto
          158 791 -158 hlineto
          -1860 vmoveto
          158 791 -158 hlineto
          endchar
        </CharString>
        <CharString name="bullet">
          758 379 344 rmoveto
          136 111 112 136 137 -111 111 -136 -136 -112 -111 -137 -136 112 -112 136 hvcurveto
          endchar
        </CharString>
        <CharString name="c">
          1074 610 -21 6 callsubr
        </CharString>
        <CharString name="cacute">
          1074 558 -77 callsubr
          137 -1145 6 callsubr
        </CharString>
        <CharString name="caret">
          550 245 hmoveto
          -288 -363 75 -74 241 304 243 -305 78 74 -288 364 rlineto
          endchar
        </CharString>
        <CharString name="caron">
          1024 759 -58 callsubr
          100 callgsubr
        </CharString>
        <CharString name="caroncmb">
          0 247 -58 callsubr
          100 callgsubr
        </CharString>
        <CharString name="caroncmb.short">
          0 244 1406 rmoveto
          -230 -139 -228 139 -85 0 211 -295 203 0 212 295 rlineto
          endchar
        </CharString>
        <CharString name="carondotaccentcmb">
          14 callgsubr
          -9 rmoveto
          -303 -100 -303 100 0 -69 279 -203 48 0 279 203 rlineto
          endchar
        </CharString>
        <CharString name="carondotaccentcmb.short">
          0 1788 vmoveto
          65 51 42 58 58 -51 43 -65 -64 -52 -6 callgsubr
          endchar
        </CharString>
        <CharString name="caronslovak">
          1024 438 79 callgsubr
        </CharString>
        <CharString name="caronslovakcmb">
          0 86 79 callgsubr
        </CharString>
        <CharString name="ccaron">
          1074 866 150 callsubr
          -341 -1545 6 callsubr
        </CharString>
        <CharString name="ccedilla">
          1074 579 -468 rmoveto
          116 callsubr
          165 8 136 64 72 95 rlinecurve
          138 callsubr
          -302 212 -194 274 -20 vhcurveto
          -119 -143 114 callsubr
          -98 callgsubr
          23 callsubr
        </CharString>
        <CharString name="ccedillaacute">
          1074 558 -77 callsubr
          106 -1592 rmoveto
          116 callsubr
          165 8 136 64 72 95 rlinecurve
          138 callsubr
          -302 212 -194 274 -20 vhcurveto
          -119 -143 114 callsubr
          -98 callgsubr
          23 callsubr
        </CharString>
        <CharString name="ccircumflex">
          1074 372 -9 callsubr
          64 callsubr
          323 -1145 6 callsubr
        </CharString>
        <CharString name="cdotaccent">
          1074 619 -78 callsubr
          -22 callsubr
          -9 -1185 6 callsubr
        </CharString>
        <CharString name="cedi">
          1352 793 -189 rmoveto
          58 201 hlineto
          169 3 169 42 80 55 11 333 rcurveline
          -63 hlineto
          -244 -58 -126 -97 -176 -2 -2 0 -2 hhcurveto
          1236 vlineto
          2 2 0 2 hhcurveto
          184 119 -113 -226 53 hvcurveto
          63 hlineto
          -11 333 -87 54 -137 41 -190 3 rlinecurve
          200 -58 -201 vlineto
          -413 -15 -286 -272 -419 vvcurveto
          -426 291 -270 408 -16 vhcurveto
          -350 732 rmoveto
          338 130 218 220 34 vhcurveto
          -1225 vlineto
          -224 41 -126 257 337 vvcurveto
          endchar
        </CharString>
        <CharString name="cedi.tnum">
          1243 733 -189 rmoveto
          58 202 hlineto
          150 4 145 37 75 47 11 334 rcurveline
          -64 hlineto
          -54 -236 -111 -96 -152 1 rrcurveto
          1236 1 vlineto
          151 106 -111 -217 49 hvcurveto
          64 hlineto
          -10 334 -80 46 -121 36 -160 4 rlinecurve
          200 -58 -201 vlineto
          -383 -14 -268 -274 -419 vvcurveto
          -440 273 -258 378 -13 vhcurveto
          -304 732 rmoveto
          338 112 215 192 37 vhcurveto
          -1226 vlineto
          -197 40 -107 247 349 vvcurveto
          endchar
        </CharString>
        <CharString name="cedilla">
          1024 483 95 callsubr
          36 -56 vlineto
          -160 -198 1 -55 rlineto
          4 9 20 3 17 hhcurveto
          62 44 -26 -47 -48 -98 callgsubr
          23 callsubr
        </CharString>
        <CharString name="cedillacmb">
          0 -29 -468 rmoveto
          -49 callgsubr
          -8 -9 -1 -1 -8 hvcurveto
          78 92 rlineto
          36 -56 vlineto
          -160 -192 114 callsubr
          -98 callgsubr
          23 callsubr
        </CharString>
        <CharString name="cent">
          1095 655 27 callgsubr
          -41 7 13 -39 hvcurveto
          768 vlineto
          4 20 20 11 callgsubr
          -140 99 -241 5 vhcurveto
          199 -58 -200 vlineto
          -298 -17 -224 -206 -305 vvcurveto
          -317 231 -196 291 -4 vhcurveto
          -199 vlineto
          -189 778 rmoveto
          173 73 124 116 49 vhcurveto
          -725 vlineto
          -114 64 -75 130 185 vvcurveto
          endchar
        </CharString>
        <CharString name="cent.1">
          1069 648 hmoveto
          200 vlineto
          162 10 133 64 70 93 rrcurveto
          67 vlineto
          -48 -52 -89 -33 -94 49 callgsubr
          36 -7 -11 31 hvcurveto
          -57 -19 -40 26 callgsubr
          -58 -200 vlineto
          -293 -15 -222 -206 -306 vvcurveto
          -314 228 -197 287 -7 vhcurveto
          -199 vlineto
          endchar
        </CharString>
        <CharString name="cent.1.tnum">
          1243 713 hmoveto
          200 vlineto
          163 10 133 64 70 93 -1 67 rcurveline
          -48 -52 -89 -33 -93 49 callgsubr
          35 -7 -11 31 hvcurveto
          -56 -19 -41 26 callgsubr
          -57 -200 vlineto
          -294 -15 -221 -206 -306 vvcurveto
          -314 227 -197 288 -7 vhcurveto
          -199 vlineto
          endchar
        </CharString>
        <CharString name="cent.tnum">
          1243 708 27 callgsubr
          -42 7 13 -38 hvcurveto
          768 vlineto
          4 19 21 11 callgsubr
          -141 99 -240 5 vhcurveto
          199 -58 -200 vlineto
          -299 -17 -223 -206 -305 vvcurveto
          -316 231 -197 291 -4 vhcurveto
          -199 vlineto
          -190 778 rmoveto
          173 73 124 117 49 vhcurveto
          -725 vlineto
          -114 64 -76 130 185 vvcurveto
          endchar
        </CharString>
        <CharString name="checyrillic">
          1338 161 696 rmoveto
          -222 148 -100 203 123 117 35 43 64 vhcurveto
          -282 vlineto
          -70 -22 -18 -126 -15 vhcurveto
          -67 608 67 vlineto
          -110 14 -21 18 71 vvcurveto
          664 vlineto
          71 21 18 110 13 vhcurveto
          68 -565 -68 vlineto
          90 -11 15 -17 -66 vvcurveto
          -319 vlineto
          -17 -33 -63 -15 -60 hhcurveto
          -112 -60 56 134 hvcurveto
          161 vlineto
          66 15 18 89 10 vhcurveto
          68 -560 -68 vlineto
          109 -13 20 -18 -71 vvcurveto
          endchar
        </CharString>
        <CharString name="chigreek">
          1170 327 -459 rmoveto
          131 638 128 -295 rlineto
          -273 114 82 -88 161 hhcurveto
          94 85 42 57 47 hvcurveto
          65 vlineto
          -9 -13 -23 -8 -26 hhcurveto
          -65 -47 38 218 -94 hvcurveto
          -161 373 118 234 146 252 148 219 rlinecurve
          -316 hlineto
          -134 -618 -119 273 rlineto
          273 -113 -82 86 -160 hhcurveto
          -95 -84 -42 -56 -48 hvcurveto
          -66 vlineto
          9 13 24 8 25 hhcurveto
          65 48 -37 -219 93 hvcurveto
          152 -349 -128 -260 -142 -255 -139 -210 rlinecurve
          endchar
        </CharString>
        <CharString name="circumflex">
          1024 265 -9 callsubr
          -233 383 -198 0 -233 -383 rlineto
          endchar
        </CharString>
        <CharString name="circumflexacutecmb">
          -86 callgsubr
          -302 vmoveto
          98 callsubr
        </CharString>
</ttFont>
